<svg id="Layer_1" data-name="Layer 1" xmlns="http://www.w3.org/2000/svg" viewBox="0 0 495 125.2"><defs><style>.cls-1{fill:#fdffe3;}</style></defs><title>blindpoint-04</title><path class="cls-1" d="M166.4,301.4c1.7,0,2.9-.7,2.9-2.9v-3c0-2.2-1.2-2.9-2.9-2.9h-3.5c-1.7,0-2.9.7-2.9,2.9v3c0,2.2,1.2,2.9,2.9,2.9Z" transform="translate(-58.1 -292.6)"/><path class="cls-1" d="M174,342.8c1.8,0,4.3-.4,4.3-3.1s-2.2-3.1-4.3-3.1h-4.6V312.3c0-3.7-1-4.3-4.6-4.3h-6.5c-2.1,0-4.3.5-4.3,3.1s2.5,3.1,4.3,3.1H160v2.1c0,2.2,1.2,2.9,2.9,2.9h.3v1h-.3c-1.7,0-2.9.7-2.9,2.9v2.7h-1.7c-2.1,0-4.3.5-4.3,3.1s2.5,3.1,4.3,3.1h4.9v3.6h-4.9c-2.1,0-4.3.5-4.3,3.1v1c0,2.7,2.5,3.1,4.3,3.1h4.9v11.4h-.3a5.9,5.9,0,0,0-1.4.2h-3.3c-2.1,0-4.3.5-4.3,3.1s2.5,3.1,4.3,3.1H160c.2,1.8,1.3,2.4,2.9,2.4h.3v1.2h-4.9c-2.1,0-4.3.5-4.3,3.1a2.75,2.75,0,0,0,1.7,2.7,2.62,2.62,0,0,0-1.7,2.7c0,2.7,2.5,3.1,4.3,3.1h4.9v22.4h-4.9c-2.1,0-4.3.5-4.3,3.1s2.5,3.1,4.3,3.1H174c1.8,0,4.3-.4,4.3-3.1s-2.2-3.1-4.3-3.1h-4.6V374c0-1.8-.3-2.9-1-3.5H174c1.8,0,4.3-.4,4.3-3.1s-2.2-3.1-4.3-3.1h-4.6v-3.6H174c1.8,0,4.3-.4,4.3-3.1s-2.2-3.1-4.3-3.1h-4.6V342.8Z" transform="translate(-58.1 -292.6)"/><path class="cls-1" d="M127.5,342.8c1.8,0,4.3-.4,4.3-3.1s-2.2-3.1-4.3-3.1h-4.6V299.5c0-3.7-1-4.3-4.6-4.3h-6.5c-2.1,0-4.3.5-4.3,3.1s2.5,3.1,4.3,3.1h4.9v11.7h-4.9c-2.1,0-4.3.5-4.3,3.1s2.5,3.1,4.3,3.1h4.9v3.6h-4.9c-2.1,0-4.3.5-4.3,3.1s2.5,3.1,4.3,3.1h4.9v7.5h-4.9c-2.1,0-4.3.5-4.3,3.1s2.5,3.1,4.3,3.1h4.9v11.7h-4.9c-2.1,0-4.3.5-4.3,3.1a3.73,3.73,0,0,0,.2,1.2,4.3,4.3,0,0,0-.2,1.2c0,2.7,2.5,3.1,4.3,3.1h4.9v1.2h-4.9c-2.1,0-4.3.5-4.3,3.1s2.5,3.1,4.3,3.1h4.9v27.8h-4.9c-2.1,0-4.3.5-4.3,3.1s2.5,3.1,4.3,3.1h15.7c1.8,0,4.3-.4,4.3-3.1s-2.2-3.1-4.3-3.1h-4.6V370.5h4.6c1.8,0,4.3-.4,4.3-3.1s-2.2-3.1-4.3-3.1h-4.6v-3.6h4.6c1.8,0,4.3-.4,4.3-3.1s-2.2-3.1-4.3-3.1h-4.6V342.8Z" transform="translate(-58.1 -292.6)"/><path class="cls-1" d="M506.5,338.2l-.6-19.5c-.1-3.4,0-6-2.8-8.4a8,8,0,0,0-5.7-2.3h-4.6c-2,0-3.7,1-5.4,2.1l-5,3.3v-.8c0-2.2-.3-4.5-3.1-4.5s-3.1,2.3-3.1,4.6v53.6c0,1.6.2,3.1,1.4,3.9-1.3.8-1.4,2.5-1.4,4.2v25.9c0,2.1.5,4.3,3.1,4.3s3.1-2.1,3.1-4.3v-18l9.2-5.7a3.53,3.53,0,0,1,1.9-.6h2.1c3.7,0,4.1,1.5,4.2,5.3l.6,19.1c.1,2.1.6,4.2,3.1,4.2,2.8,0,3.1-2.5,3-4.6l-.6-19.5c-.1-3.4,0-6-2.8-8.4a8,8,0,0,0-5.7-2.3h-4.6c-2,0-3.7,1-5.4,2.1l-5,3.3v-.8c0-1.6-.2-3.4-1.5-4.1,1.2-.7,1.5-2.3,1.5-3.9v-18l9.2-5.7a3.53,3.53,0,0,1,1.9-.6h2.1c3.7,0,4.1,1.5,4.2,5.3l.6,19.1c.1,2.1.6,4.2,3.1,4.2,2.8,0,3.1-2.5,3-4.6l-.2-7.2a7.44,7.44,0,0,0,.2-2.6l-.5-14.7A6.74,6.74,0,0,0,506.5,338.2Zm-24.1-17.6,9.2-5.7a3.53,3.53,0,0,1,1.9-.6h2.1c3.7,0,4.1,1.5,4.2,5.3l.2,6.7a7.1,7.1,0,0,0-2.6-.4h-4.6c-2,0-3.7,1-5.4,2.1l-5,3.3V320.6Zm15,15.1h-4.6c-2,0-3.7,1-5.4,2.1l-5,3.3v-2.6l9.2-5.7a3.53,3.53,0,0,1,1.9-.6h2.1c3.2,0,3.9,1.1,4.1,3.9A5.87,5.87,0,0,0,497.4,335.7Z" transform="translate(-58.1 -292.6)"/><path class="cls-1" d="M535.1,342.3a13.55,13.55,0,0,0,4.1.6h3.2c3.3,0,6.3-.5,8.5-3.2a9.31,9.31,0,0,0,2.1-5.2,3.14,3.14,0,0,0-3.2-3.1,3.19,3.19,0,0,0-3.1,2.5,5.07,5.07,0,0,1-.8,1.8H536c-.7-.8-.8-2-.8-3.6h10.4c1.8,0,4.3-.4,4.3-3.1s-2.2-3.1-4.3-3.1H535.2V314.3h10.4c1.8,0,4.3-.4,4.3-3.1s-2.2-3.1-4.3-3.1H535.2v-6.3c0-2.1-.5-4.3-3.1-4.3s-3.1,2.1-3.1,4.3v6.3h-2c-2.1,0-4.3.5-4.3,3.1s2.5,3.1,4.3,3.1h2v11.6h-2c-2.1,0-4.3.5-4.3,3.1s2.5,3.1,4.3,3.1h2v3.6h-2c-2.1,0-4.3.5-4.3,3.1s2.5,3.1,4.3,3.1h2v16.8c0,1.2,0,2.3.1,3.4a5.28,5.28,0,0,0-.1,1.3v6.3h-2c-2.1,0-4.3.5-4.3,3.1s2.5,3.1,4.3,3.1h2v16.8c0,3.4-.1,6,2.3,8.6,2.2,2.4,4.9,3.1,8,3.1h3.2c3.3,0,6.3-.5,8.5-3.2a9.31,9.31,0,0,0,2.1-5.2,3.08,3.08,0,0,0-3.2-3.1,3.19,3.19,0,0,0-3.1,2.5c-.6,2.5-1.8,2.7-4.3,2.7h-3.2c-4.3,0-4.1-2-4.1-5.5V375.7h10.4c1.8,0,4.3-.4,4.3-3.1a2.81,2.81,0,0,0-2.6-3,8.7,8.7,0,0,0,3.7-2.5,9.31,9.31,0,0,0,2.1-5.2,3.14,3.14,0,0,0-3.2-3.1,2.2,2.2,0,0,0-.8.1,6.9,6.9,0,0,0,1.8-1.6,9.31,9.31,0,0,0,2.1-5.2,3.08,3.08,0,0,0-3.2-3.1,3.19,3.19,0,0,0-3.1,2.5c-.6,2.5-1.8,2.7-4.3,2.7h-3.2c-4,0-4.1-1.7-4.1-4.8v-7.1Zm4.1,18.4h3.2a13.33,13.33,0,0,0,5.4-.9,2.7,2.7,0,0,0-1,1.7c-.6,2.5-1.8,2.7-4.3,2.7h-3.2c-3.7,0-4.1-1.5-4.1-4.2A10.19,10.19,0,0,0,539.2,360.7Z" transform="translate(-58.1 -292.6)"/><path class="cls-1" d="M85,312.1l-2.1-1.8a7.32,7.32,0,0,0-4.6-2.2H71.5c-2.8,0-4.1,1.4-6.1,3.4l-1.1,1.1v-13c0-2.1-.5-4.3-3.1-4.3s-3.1,2.1-3.1,4.3V400.3c0,2.1.5,4.3,3.1,4.3s3.1-2.1,3.1-4.1V400l1.4,1.4c1.7,1.6,3.5,3.2,6,3.2H78a8.39,8.39,0,0,0,4.8-2.2l2.1-1.8a8.14,8.14,0,0,0,3.4-7.2V380.9c0-3.3-.9-5-3.4-7.2l-2.1-1.8a9.19,9.19,0,0,0-2.9-1.8,10,10,0,0,0,2.9-1.8l2.1-1.8a8.14,8.14,0,0,0,3.4-7.2V337a11.15,11.15,0,0,0-.3-2.7,11.15,11.15,0,0,0,.3-2.7V319.1C88.4,315.9,87.5,314.2,85,312.1Zm-2.8,36.3c0,1.2-.1,2.7-.8,3.3L78.7,354a2.71,2.71,0,0,1-1.9.6H72c-.6,0-1.6-.9-2.4-1.5l-3.5-3a5.73,5.73,0,0,1-1.5-1.7,4.13,4.13,0,0,1,1.5-1.7l4-3.5a1.38,1.38,0,0,1,.4-.3,4.87,4.87,0,0,0,1.2.1H78a2.77,2.77,0,0,0,.9-.1l2.4,1.9a3.5,3.5,0,0,1,.8,2.6l.1,1ZM79,335.8c-.2,0-.5-.1-.7-.1H71.5a3.08,3.08,0,0,0-1,.1,5.72,5.72,0,0,1-.8-.7l-.9-.7,1.3-1.1a4.33,4.33,0,0,1,2.6-1.1H77a2.46,2.46,0,0,1,1.5.5l2.2,1.7Zm-13.8,3.5-1,1a3.81,3.81,0,0,1,.3-1.6Zm-1,27.1V366l1.4,1.4a13.49,13.49,0,0,0,3.7,2.7c-1.5.5-2.6,1.6-4,3.1l-1.1,1.1Zm1.9-47.6,4-3.5a4.33,4.33,0,0,1,2.6-1.1H77a2.46,2.46,0,0,1,1.5.5l2.8,2.2a3.5,3.5,0,0,1,.8,2.6v8a6.32,6.32,0,0,0-3.9-1.6H71.4c-2.8,0-4.1,1.4-6.1,3.4l-.8.8a6.87,6.87,0,0,1-.3-2.2v-5.4A4.51,4.51,0,0,1,66.1,318.8Zm16.1,62.4v11c0,1.2-.1,2.7-.8,3.3l-2.7,2.3a2.71,2.71,0,0,1-1.9.6H72c-.6,0-1.6-.9-2.4-1.5l-3.5-3a4.31,4.31,0,0,1-1.9-4.1v-5.4a4.27,4.27,0,0,1,1.9-3.7l4-3.5a4.33,4.33,0,0,1,2.6-1.1H77a2.46,2.46,0,0,1,1.5.5l2.8,2.2C81.8,379,82.2,380,82.2,381.2Zm-3.5-17.5a2.71,2.71,0,0,1-1.9.6H72c-.6,0-1.6-.9-2.4-1.5l-3.5-3a4.34,4.34,0,0,1-1.9-3.5l1.4,1.3c1.7,1.6,3.5,3.2,6,3.2H78a7.84,7.84,0,0,0,4.1-1.6,2.92,2.92,0,0,1-.8,2.4Z" transform="translate(-58.1 -292.6)"/><path class="cls-1" d="M271.1,295.3c-2.6,0-3.1,2.1-3.1,4.3v13l-1-1.1c-2.3-2.3-4-3.4-6.1-3.4h-5.5a7.54,7.54,0,0,0-5.9,2.2l-2.1,1.8c-2.6,2.2-3.4,3.9-3.4,7.2v12.5a11.15,11.15,0,0,0,.3,2.7,11.15,11.15,0,0,0-.3,2.7v22.3c0,3.3.8,5,3.4,7.2l2.1,1.8a12.06,12.06,0,0,0,3.1,1.8,8.32,8.32,0,0,0-3.1,1.8l-2.1,1.8c-2.6,2.2-3.4,3.9-3.4,7.2v12.5c0,3.3.8,5,3.4,7.2l2.1,1.8a9.28,9.28,0,0,0,5.3,2.2h6c1.9,0,4-1.4,5.9-3.2l1.4-1.4v.4c0,2.1.6,4.1,3.1,4.1s3.1-2.2,3.1-4.3V299.7C274.2,297.4,273.8,295.3,271.1,295.3ZM268,339.4v.8l-.9-1,.7-.7A2.92,2.92,0,0,1,268,339.4Zm-5.3-4.3a5.5,5.5,0,0,1-.9.7,2.77,2.77,0,0,0-.9-.1h-5.5a11.48,11.48,0,0,0-1.9.1,2.18,2.18,0,0,1-.5-.4l-1.3-1,1.3-1a4.29,4.29,0,0,1,2.3-1.2h4.4a5,5,0,0,1,3,1.5l.8.7ZM251,344.6l1.9-1.5a2.09,2.09,0,0,1,.6-.4,5,5,0,0,0,1.2.2h6c.3,0,.6-.1,1-.1a8.65,8.65,0,0,0,1,.7l3.5,3a8.52,8.52,0,0,1,1.6,1.7,4.31,4.31,0,0,1-1.6,1.7l-3.5,3a5.5,5.5,0,0,1-3,1.5h-4.4a4.29,4.29,0,0,1-2.3-1.2l-1.9-1.5c-.8-.6-.9-2.1-1-3.6S250.3,345.2,251,344.6Zm0-27.6,1.9-1.5a4.29,4.29,0,0,1,2.3-1.2h4.4a5,5,0,0,1,3,1.5l3.5,3c.9.8,1.8,1.5,1.8,2.7v7.9a2.92,2.92,0,0,1-.2.9l-.8-.9c-2.3-2.3-4-3.4-6.1-3.4h-5.5a7.38,7.38,0,0,0-5.3,1.7v-5.9C250.1,319.9,250.1,317.7,251,317Zm-.9,42a8.53,8.53,0,0,0,4.6,1.7h6c1.9,0,4-1.4,5.9-3.2l1.4-1.4v.8c0,1.2-.9,1.9-1.8,2.7l-3.5,3a5.5,5.5,0,0,1-3,1.5h-4.4a4.29,4.29,0,0,1-2.3-1.2l-1.9-1.5C250.5,361.1,250.2,360.1,250.1,359ZM268,391c0,1.2-.9,1.9-1.8,2.7l-3.5,3a5.5,5.5,0,0,1-3,1.5h-4.4A4.29,4.29,0,0,1,253,397l-1.9-1.5c-1-.8-1-3-1-4.7v-7.6c0-1.7,0-3.9,1-4.7L253,377a4.29,4.29,0,0,1,2.3-1.2h4.4a5,5,0,0,1,3,1.5l3.5,3c.9.8,1.8,1.5,1.8,2.7Zm0-16.8-1-1.1a12.07,12.07,0,0,0-4.3-3.1,12,12,0,0,0,3.9-2.7l1.4-1.4v8.3Z" transform="translate(-58.1 -292.6)"/><path class="cls-1" d="M363.2,313.8l-3.7-2.9c-1.7-1.3-3.7-2.8-5.2-2.8H350c-1.7,0-4.2,2.3-5.8,3.7l-1.2,1.1v-.8c0-2.1-.6-4.1-3.1-4.1-2.8,0-3.1,2.4-3.1,4.6V413.5c0,2.1.5,4.3,3.1,4.3s3.1-2.1,3.1-4.3V401l1.2,1.2c2,1.9,3.3,3.7,6.1,3.7h4.2c1.7,0,3.7-1.7,5-2.8l3.7-3c3.6-2.8,3.9-4.5,3.9-9v-6.6c0-4.4-.3-6.1-3.9-9l-3.7-2.9c-.8-.6-1.6-1.2-2.4-1.7.9-.6,1.7-1.3,2.4-1.8l3.7-3c3.6-2.8,3.9-4.5,3.9-9V340.7c0-2.5-.1-4.1-.9-5.6a12.61,12.61,0,0,0,.9-5.6v-6.6C367.1,318.4,366.8,316.6,363.2,313.8Zm-7.3,22.3a3.43,3.43,0,0,0-1.6-.4H350a4.19,4.19,0,0,0-1.5.4l-1.1-1.1,1.2-1.1c.6-.6,1.7-1.8,2.6-1.8h1.6a3.6,3.6,0,0,1,2.1,1.1l2.2,1.8Zm-12.2,3.8-.7.6a3,3,0,0,1,.2-1Zm-.7,33.9v-6.9l1.2,1.2a26.13,26.13,0,0,0,3.1,2.8c-1.1.8-2.2,1.8-3.1,2.6l-1.2,1.1Zm1.7-26.4,3.8-3.6a4.84,4.84,0,0,0,1.8.3h4.2a2.3,2.3,0,0,0,1.4-.4l3.7,3.1a3,3,0,0,1,1.2,2,3.29,3.29,0,0,1-1.2,2l-4.6,3.9a3.6,3.6,0,0,1-2.1,1.1h-1.6c-.8,0-1.7-.8-2.6-1.7l-4.7-4.5a1.79,1.79,0,0,1-.5-.7A6.44,6.44,0,0,1,344.7,347.4ZM343,323c0-1.4.5-2.1,1.7-3.3l3.9-3.7c.6-.6,1.7-1.8,2.6-1.8h1.6a3.6,3.6,0,0,1,2.1,1.1l4.6,3.9a3,3,0,0,1,1.3,2.7v8l-1.5-1.2c-1.7-1.3-3.7-2.8-5.2-2.8H350c-1.7,0-4.2,2.3-5.8,3.7l-1,.9a3.89,3.89,0,0,1-.2-1.5Zm16.7,57.9a3,3,0,0,1,1.3,2.7v8.3a3,3,0,0,1-1.3,2.7l-4.6,3.9a3.6,3.6,0,0,1-2.1,1.1h-1.6c-.8,0-1.7-.8-2.6-1.7l-4.7-4.5a3.92,3.92,0,0,1-.9-2.6v-6.1c0-1.4.5-2.1,1.7-3.3l3.9-3.7c.6-.6,1.7-1.8,2.6-1.8H353a3.6,3.6,0,0,1,2.1,1.1Zm0-20.3-4.6,3.9a3.6,3.6,0,0,1-2.1,1.1h-1.6c-.8,0-1.7-.8-2.6-1.7l-4.7-4.5a4,4,0,0,1-.9-2.2l1.2,1.1c2,1.9,3.3,3.7,6.1,3.7h4.2c1.7,0,3.7-1.7,5-2.8l1.5-1.2A4.61,4.61,0,0,1,359.7,360.6Z" transform="translate(-58.1 -292.6)"/><path class="cls-1" d="M409.7,311.5c-3-2.5-4.5-3.5-8.8-3.5H396c-4.3,0-5.7,1-8.8,3.5s-3.9,3.9-3.9,8.1v11.7a13.22,13.22,0,0,0,.3,3,14.49,14.49,0,0,0-.3,3.2V359c0,4.1,1,5.6,4.3,8.3a13.92,13.92,0,0,0,4.7,2.9c-1.8.5-3.1,1.5-5,3.1-3.1,2.5-3.9,3.9-3.9,8.1v11.7c0,4.1,1,5.6,4.3,8.3s4.5,3.2,8.5,3.2h4.9c3.9,0,5.2-.5,8.5-3.2s4.3-4.3,4.3-8.3V381.4c0-4.1-.8-5.5-3.9-8.1-1.9-1.6-3.2-2.6-5-3.1,1.5-.4,2.7-1.2,4.7-2.9,3.2-2.7,4.3-4.3,4.3-8.3V337.5a14.49,14.49,0,0,0-.3-3.2,12.62,12.62,0,0,0,.3-3V319.6C413.6,315.5,412.8,314.1,409.7,311.5Zm-2.3,37.6c0,1.3-.5,2.1-2.3,3.7a5.58,5.58,0,0,1-4.3,1.7H396a5.73,5.73,0,0,1-4.3-1.7c-1.8-1.5-2.3-2.4-2.3-3.7v-1.9c0-1.3.5-2.1,2.3-3.7a5.08,5.08,0,0,1,1.3-.9,23.64,23.64,0,0,0,3,.2h4.9a13.24,13.24,0,0,0,3-.2c.4.2.8.6,1.3.9,1.8,1.5,2.3,2.4,2.3,3.7l-.1,1.9ZM405.2,335c-.5.4-.9.7-1.3,1a12.77,12.77,0,0,0-2.9-.2h-5a21.93,21.93,0,0,0-2.9.2,11.32,11.32,0,0,1-1.3-1c-.2-.2-.5-.4-.7-.6a4.35,4.35,0,0,1,.7-.6,5.58,5.58,0,0,1,4.3-1.7H401a5.73,5.73,0,0,1,4.3,1.7c.2.2.5.4.7.6A2.76,2.76,0,0,0,405.2,335Zm-13.5-19.1a5.58,5.58,0,0,1,4.3-1.7h4.9a5.73,5.73,0,0,1,4.3,1.7c1.8,1.5,2.3,2.4,2.3,3.7v8c-1.8-1.2-3.4-1.7-6.5-1.7h-5c-3.1,0-4.7.5-6.5,1.7v-8C389.5,318.3,389.9,317.5,391.7,315.9Zm15.7,65.4V393c0,1.3-.5,2.1-2.3,3.7a5.58,5.58,0,0,1-4.3,1.7H396a5.73,5.73,0,0,1-4.3-1.7c-1.8-1.5-2.3-2.4-2.3-3.7V381.3c0-1.3.5-2.1,2.3-3.7a5.58,5.58,0,0,1,4.3-1.7h4.9a5.73,5.73,0,0,1,4.3,1.7C407,379.1,407.4,380,407.4,381.3Zm-2.2-18.7a5.58,5.58,0,0,1-4.3,1.7H396a5.73,5.73,0,0,1-4.3-1.7c-1.8-1.5-2.2-2.4-2.3-3.6,2,1.4,3.5,1.7,6.5,1.7h4.9c3,0,4.5-.3,6.5-1.7C407.4,360.3,406.9,361.1,405.2,362.6Z" transform="translate(-58.1 -292.6)"/><path class="cls-1" d="M227.8,338.2l-.6-19.5c-.1-3.4,0-6-2.8-8.4a8,8,0,0,0-5.7-2.3H214c-2,0-3.7,1-5.4,2.1l-5,3.3v-.8c0-2.2-.3-4.5-3.1-4.5s-3.1,2.3-3.1,4.6v53.6c0,1.6.2,3.1,1.4,3.9-1.3.8-1.4,2.5-1.4,4.2v25.9c0,2.1.5,4.3,3.1,4.3s3.1-2.1,3.1-4.3v-18l9.2-5.7a3.53,3.53,0,0,1,1.9-.6h2.1c3.7,0,4.1,1.5,4.2,5.3l.6,19.1c.1,2.1.6,4.2,3.1,4.2,2.8,0,3.1-2.5,3-4.6l-.6-19.5c-.1-3.4,0-6-2.8-8.4a8,8,0,0,0-5.7-2.3H214c-2,0-3.7,1-5.4,2.1l-5,3.3v-.8c0-1.6-.2-3.4-1.5-4.1,1.2-.7,1.5-2.3,1.5-3.9v-18l9.2-5.7a3.53,3.53,0,0,1,1.9-.6h2.1c3.7,0,4.1,1.5,4.2,5.3l.6,19.1c.1,2.1.6,4.2,3.1,4.2,2.8,0,3.1-2.5,3-4.6l-.2-7.2a7.44,7.44,0,0,0,.2-2.6l-.5-14.7A8.16,8.16,0,0,0,227.8,338.2Zm-24.2-17.6,9.2-5.7a3.53,3.53,0,0,1,1.9-.6h2.1c3.7,0,4.1,1.5,4.2,5.3l.2,6.7a7.1,7.1,0,0,0-2.6-.4H214c-2,0-3.7,1-5.4,2.1l-5,3.3V320.6Zm15,15.1H214c-2,0-3.7,1-5.4,2.1l-5,3.3v-2.6l9.2-5.7a3.53,3.53,0,0,1,1.9-.6h2.1c3.2,0,3.9,1.1,4.1,3.9A5.56,5.56,0,0,0,218.6,335.7Z" transform="translate(-58.1 -292.6)"/><path class="cls-1" d="M452.8,342.8c1.8,0,4.3-.4,4.3-3.1s-2.2-3.1-4.3-3.1h-4.6V312.3c0-3.7-1-4.3-4.6-4.3H437c-2.1,0-4.3.5-4.3,3.1s2.5,3.1,4.3,3.1h1.7v2.1c0,2.2,1.2,2.9,2.9,2.9h.3v1h-.3c-1.7,0-2.9.7-2.9,2.9v2.7H437c-2.1,0-4.3.5-4.3,3.1s2.5,3.1,4.3,3.1h4.9v3.6H437c-2.1,0-4.3.5-4.3,3.1v1c0,2.7,2.5,3.1,4.3,3.1h4.9v11.4h-.3a5.9,5.9,0,0,0-1.4.2H437c-2.1,0-4.3.5-4.3,3.1s2.5,3.1,4.3,3.1h1.8c.2,1.8,1.3,2.4,2.9,2.4h.3v1.2h-5c-2.1,0-4.3.5-4.3,3.1a2.75,2.75,0,0,0,1.7,2.7,2.62,2.62,0,0,0-1.7,2.7c0,2.7,2.5,3.1,4.3,3.1h4.9v22.4H437c-2.1,0-4.3.5-4.3,3.1s2.5,3.1,4.3,3.1h15.7c1.8,0,4.3-.4,4.3-3.1s-2.2-3.1-4.3-3.1h-4.6V374c0-1.8-.3-2.9-1-3.5h5.6c1.8,0,4.3-.4,4.3-3.1s-2.2-3.1-4.3-3.1h-4.6v-3.6h4.6c1.8,0,4.3-.4,4.3-3.1s-2.2-3.1-4.3-3.1h-4.6V342.8Z" transform="translate(-58.1 -292.6)"/><path class="cls-1" d="M445.2,301.4c1.7,0,2.9-.7,2.9-2.9v-3c0-2.2-1.2-2.9-2.9-2.9h-3.5c-1.7,0-2.9.7-2.9,2.9v3c0,2.2,1.2,2.9,2.9,2.9Z" transform="translate(-58.1 -292.6)"/></svg>