<?xml version="1.0" encoding="utf-8"?>
<!-- Generator: Adobe Illustrator 23.0.1, SVG Export Plug-In . SVG Version: 6.00 Build 0)  -->
<svg version="1.1" id="Layer_1" xmlns="http://www.w3.org/2000/svg" xmlns:xlink="http://www.w3.org/1999/xlink" x="0px" y="0px"
	 viewBox="0 0 814 149" style="enable-background:new 0 0 814 149;" xml:space="preserve">
<style type="text/css">
	.st0{fill:#FFFFFF;}
	.st1{fill:#EED7CB;}
	.st2{opacity:0.5;}
	.st3{fill:#E7C1AA;}
	.st4{opacity:0.8;}
	.st5{opacity:0.2;}
	.st6{fill:#BDCDC4;}
	.st7{fill:#EBE8DB;}
	.st8{opacity:0.25;}
	.st9{fill:#BF815B;}
	.st10{fill:#8B9C7D;}
	.st11{opacity:0.52;}
	.st12{opacity:0.14;}
	.st13{fill:none;stroke:#BDCDC4;stroke-width:2;stroke-miterlimit:10;}
	.st14{fill:none;stroke:#BDCDC4;stroke-miterlimit:10;}
	.st15{fill:none;stroke:#BF815B;stroke-miterlimit:10;}
	.st16{fill:#EBE8DB;stroke:#BDCDC4;stroke-width:2;stroke-miterlimit:10;}
	.st17{fill:none;stroke:#BF815B;stroke-width:3;stroke-miterlimit:10;}
	.st18{fill:#EBE8DB;stroke:#BDCDC4;stroke-miterlimit:10;}
</style>
<g>
	<path class="st6" d="M51.2,46h19c3.3,0,6.2,0.4,8.7,1.1c2.5,0.7,4.6,1.7,6.2,3c1.7,1.3,2.9,2.8,3.8,4.5c0.8,1.8,1.3,3.7,1.3,5.8
		c0,1.7-0.3,3.3-1,4.8c-0.6,1.5-1.6,2.8-2.8,4s-2.6,2.2-4.3,3.1c-1.7,0.9-3.5,1.6-5.5,2l20,26.7H86L66.9,75h-6.4v25.8h-9.2V46z
		 M60.5,72.3h5.3c2.1,0,4-0.3,5.8-0.8c1.8-0.5,3.3-1.3,4.6-2.3s2.3-2.3,3-3.7c0.7-1.5,1.1-3.1,1.1-4.9c0-1.6-0.3-3.1-0.9-4.5
		c-0.6-1.4-1.4-2.5-2.4-3.5c-1-1-2.2-1.8-3.7-2.3c-1.4-0.6-3-0.8-4.7-0.8h-8.1V72.3z"/>
	<path class="st6" d="M132.8,100.9h-8.4v-5.8c-1,0.8-2,1.6-2.9,2.3c-1,0.8-2,1.5-3.1,2.2s-2.4,1.2-3.7,1.6c-1.4,0.4-2.9,0.6-4.7,0.6
		c-1.7,0-3.2-0.3-4.5-0.8c-1.3-0.5-2.5-1.3-3.4-2.2c-0.9-0.9-1.6-2.1-2.2-3.4c-0.5-1.3-0.8-2.7-0.8-4.2c0-1.8,0.4-3.5,1.1-4.9
		c0.7-1.5,1.7-2.8,3-3.9s2.7-2.2,4.4-3.1c1.7-0.9,3.4-1.7,5.3-2.4c1.9-0.7,3.8-1.3,5.8-1.9c2-0.5,3.9-1.1,5.8-1.6v-2.6
		c0-1.9-0.2-3.5-0.6-4.8c-0.4-1.3-0.9-2.4-1.6-3.2c-0.7-0.8-1.6-1.4-2.6-1.8c-1-0.4-2.1-0.5-3.4-0.5c-1.4,0-2.6,0.2-3.5,0.6
		s-1.6,0.9-2.1,1.5s-0.9,1.3-1,2c-0.2,0.8-0.3,1.5-0.3,2.3c0,0.7-0.1,1.5-0.2,2.1c-0.1,0.7-0.3,1.3-0.6,1.8
		c-0.3,0.5-0.7,0.9-1.3,1.3c-0.5,0.3-1.2,0.5-2.1,0.5c-1.3,0-2.4-0.5-3.2-1.4c-0.8-0.9-1.2-2.1-1.2-3.5c0-1.4,0.5-2.7,1.4-3.9
		c0.9-1.2,2.1-2.3,3.7-3.2c1.6-0.9,3.4-1.6,5.5-2.1c2.1-0.5,4.3-0.8,6.5-0.8c2.8,0,5.1,0.3,7.1,0.8c1.9,0.5,3.5,1.3,4.7,2.3
		s2,2.2,2.6,3.5c0.5,1.4,0.8,2.9,0.8,4.6V100.9z M124.4,76.2c-1.8,0.6-3.7,1.3-5.7,2.1c-2,0.9-3.8,1.8-5.5,2.9
		c-1.7,1.1-3,2.3-4.1,3.6c-1.1,1.3-1.6,2.7-1.6,4.2c0,1,0.2,2,0.6,2.9s0.9,1.7,1.5,2.4s1.4,1.3,2.2,1.7c0.8,0.4,1.7,0.6,2.6,0.6
		c1,0,1.9-0.1,2.7-0.4c0.9-0.2,1.7-0.6,2.5-1c0.8-0.4,1.6-0.9,2.4-1.5c0.8-0.6,1.6-1.2,2.5-1.8V76.2z"/>
	<path class="st6" d="M186.1,60.8v3.5h-8c0.8,1.2,1.5,2.5,2,3.9c0.5,1.4,0.7,2.9,0.7,4.2c0,2.2-0.5,4.2-1.4,6
		c-1,1.8-2.3,3.4-4.1,4.7c-1.7,1.3-3.8,2.3-6.2,3c-2.4,0.7-5.1,1.1-7.9,1.1c-1.1,0-2.1-0.1-3.2-0.3s-2.1-0.4-2.9-0.6
		c-0.8,0.6-1.5,1.4-2,2.3c-0.6,0.9-0.8,1.7-0.8,2.6c0,0.8,0.5,1.5,1.4,2c0.9,0.5,2.2,0.8,3.9,0.9l15.7,0.6c2.5,0.1,4.6,0.4,6.2,0.9
		c1.7,0.5,3,1.1,4,1.9c1,0.8,1.7,1.8,2.1,2.9c0.4,1.1,0.6,2.4,0.6,3.8c0,2.5-0.6,4.7-1.7,6.7c-1.1,2-2.8,3.7-5,5.1
		c-2.2,1.4-4.8,2.5-7.9,3.3c-3.1,0.8-6.6,1.1-10.5,1.1c-7,0-12.3-0.8-15.7-2.4c-3.4-1.6-5.2-3.7-5.2-6.3c0-1.2,0.3-2.3,0.9-3.4
		c0.6-1.1,1.3-2.1,2.2-3.1c0.9-1,1.9-1.9,3-2.8c1.1-0.9,2.2-1.8,3.3-2.6c-1.6-0.5-2.9-1.2-3.9-2.1s-1.6-1.9-1.6-3.1
		c0-0.9,0.2-1.8,0.7-2.7c0.4-0.9,1.1-1.8,1.8-2.6s1.7-1.6,2.7-2.3c1.1-0.7,2.2-1.3,3.3-1.7c-2.9-1.2-5.1-2.9-6.7-5.1
		c-1.6-2.2-2.4-4.7-2.4-7.5c0-2.1,0.5-4.1,1.4-5.9s2.3-3.5,3.9-4.8c1.7-1.4,3.6-2.5,5.9-3.3c2.3-0.8,4.7-1.2,7.4-1.2
		c1.2,0,2.5,0.1,3.7,0.3s2.4,0.4,3.5,0.7s2,0.6,2.8,1c0.8,0.4,1.5,0.8,1.9,1.2H186.1z M152.1,100.5c-1.3,0.9-2.2,2.1-2.9,3.4
		c-0.7,1.3-1,2.6-1,3.8c0,1,0.3,1.9,1,2.7c0.7,0.9,1.7,1.6,3,2.3c1.3,0.7,3,1.2,5,1.6c2,0.4,4.3,0.6,7,0.6c2.8,0,5.3-0.2,7.6-0.7
		c2.2-0.4,4.1-1,5.7-1.8c1.5-0.7,2.7-1.5,3.5-2.5c0.8-0.9,1.2-1.8,1.2-2.8c0-1.9-0.9-3.3-2.8-4.1c-1.9-0.9-4.5-1.3-7.7-1.3
		c-2,0-4.1,0-6.2-0.1s-4-0.2-5.8-0.3c-1.8-0.1-3.3-0.3-4.7-0.4C153.7,100.8,152.7,100.6,152.1,100.5z M162.6,85
		c1.2,0,2.4-0.3,3.5-0.8c1.1-0.5,2.1-1.3,2.9-2.2c0.8-0.9,1.5-2,2-3.3c0.5-1.3,0.7-2.6,0.7-4.1c0-2.1-0.3-4-0.8-5.8
		c-0.6-1.8-1.3-3.3-2.3-4.6c-1-1.3-2.1-2.3-3.4-3.1c-1.3-0.7-2.7-1.1-4.1-1.1c-1.4,0-2.7,0.3-3.7,0.9c-1,0.6-1.9,1.4-2.6,2.4
		c-0.7,1-1.2,2.2-1.5,3.6s-0.5,2.9-0.5,4.5c0,1.9,0.2,3.7,0.7,5.4c0.5,1.7,1.1,3.1,2,4.3c0.9,1.2,1.9,2.2,3.1,2.9
		C159.8,84.6,161.2,85,162.6,85z"/>
	<path class="st6" d="M194,58.5h8.4v7.7c2.6-2.9,5.2-5.1,8-6.5c2.8-1.4,5.6-2.1,8.4-2.1c1.5,0,2.9,0.3,4.2,1
		c1.3,0.7,2.4,1.6,3.4,2.8s1.7,2.5,2.3,4.1c0.6,1.6,0.8,3.2,0.8,5v30.4H221v-29c0-2.8-0.6-4.9-1.9-6.4c-1.3-1.4-2.9-2.1-4.8-2.1
		c-0.9,0-1.8,0.1-2.8,0.4c-1,0.3-2,0.7-3,1.2c-1,0.5-2.1,1.2-3.1,1.9c-1,0.7-2,1.6-3,2.5v31.4H194V58.5z"/>
	<path class="st6" d="M270.3,100.9h-8.4v-5.8c-1,0.8-2,1.6-2.9,2.3c-1,0.8-2,1.5-3.1,2.2s-2.4,1.2-3.7,1.6c-1.4,0.4-2.9,0.6-4.7,0.6
		c-1.7,0-3.2-0.3-4.5-0.8c-1.3-0.5-2.5-1.3-3.4-2.2c-0.9-0.9-1.6-2.1-2.2-3.4c-0.5-1.3-0.8-2.7-0.8-4.2c0-1.8,0.4-3.5,1.1-4.9
		c0.7-1.5,1.7-2.8,3-3.9s2.7-2.2,4.4-3.1c1.7-0.9,3.4-1.7,5.3-2.4c1.9-0.7,3.8-1.3,5.8-1.9c2-0.5,3.9-1.1,5.8-1.6v-2.6
		c0-1.9-0.2-3.5-0.6-4.8c-0.4-1.3-0.9-2.4-1.6-3.2c-0.7-0.8-1.6-1.4-2.6-1.8c-1-0.4-2.1-0.5-3.4-0.5c-1.4,0-2.6,0.2-3.5,0.6
		s-1.6,0.9-2.1,1.5s-0.9,1.3-1,2c-0.2,0.8-0.3,1.5-0.3,2.3c0,0.7-0.1,1.5-0.2,2.1c-0.1,0.7-0.3,1.3-0.6,1.8
		c-0.3,0.5-0.7,0.9-1.3,1.3c-0.5,0.3-1.2,0.5-2.1,0.5c-1.3,0-2.4-0.5-3.2-1.4c-0.8-0.9-1.2-2.1-1.2-3.5c0-1.4,0.5-2.7,1.4-3.9
		c0.9-1.2,2.1-2.3,3.7-3.2c1.6-0.9,3.4-1.6,5.5-2.1c2.1-0.5,4.3-0.8,6.5-0.8c2.8,0,5.1,0.3,7.1,0.8c1.9,0.5,3.5,1.3,4.7,2.3
		s2,2.2,2.6,3.5c0.5,1.4,0.8,2.9,0.8,4.6V100.9z M261.9,76.2c-1.8,0.6-3.7,1.3-5.7,2.1c-2,0.9-3.8,1.8-5.5,2.9
		c-1.7,1.1-3,2.3-4.1,3.6c-1.1,1.3-1.6,2.7-1.6,4.2c0,1,0.2,2,0.6,2.9s0.9,1.7,1.5,2.4s1.4,1.3,2.2,1.7c0.8,0.4,1.7,0.6,2.6,0.6
		c1,0,1.9-0.1,2.7-0.4c0.9-0.2,1.7-0.6,2.5-1c0.8-0.4,1.6-0.9,2.4-1.5c0.8-0.6,1.6-1.2,2.5-1.8V76.2z"/>
	<path class="st6" d="M281.5,58.5h8.3v8c0.8-1.2,1.7-2.3,2.7-3.4c0.9-1.1,1.9-2,2.9-2.8c1-0.8,2.1-1.5,3.2-1.9s2.2-0.7,3.3-0.7
		c0.9,0,1.8,0.1,2.6,0.4s1.5,0.6,2.1,1.1c0.6,0.5,1.1,1,1.4,1.6c0.3,0.6,0.5,1.3,0.5,1.9c0,1.4-0.4,2.4-1.3,3.1c-0.9,0.7-2,1-3.5,1
		c-0.9,0-1.7-0.1-2.2-0.3c-0.6-0.2-1.1-0.4-1.6-0.6s-0.9-0.4-1.4-0.6c-0.5-0.2-1.1-0.3-1.8-0.3c-1.1,0-2.2,0.6-3.4,1.9
		c-1.1,1.2-2.3,2.8-3.5,4.7v29.3h-8.3V58.5z"/>
	<path class="st6" d="M363.3,46h9.2v24.3L401.4,46h6l-27.5,23.1l34.8,31.8H403L372.5,73v27.9h-9.2V46z"/>
	<path class="st6" d="M429,100.9c0,2.9-0.2,5.5-0.5,7.6c-0.3,2.1-0.8,3.9-1.5,5.3s-1.5,2.6-2.4,3.5c-1,0.9-2.1,1.5-3.3,2
		c-1.3,0.5-2.6,0.8-4.2,0.9s-3.2,0.2-5,0.2c-1.3,0-2.5-0.1-3.5-0.4c-1-0.3-1.9-0.6-2.6-1.1c-0.7-0.5-1.3-1-1.6-1.6s-0.6-1.3-0.6-1.9
		c0-1.2,0.4-2.1,1.2-2.7c0.8-0.6,1.8-0.9,3.1-0.9c0.9,0,1.7,0.3,2.2,0.9c0.6,0.6,1.1,1.2,1.6,1.9c0.5,0.7,1.1,1.3,1.7,1.9
		c0.6,0.6,1.4,0.9,2.5,0.9c0.7,0,1.3-0.1,1.8-0.3c0.5-0.2,1-0.6,1.4-1.2c0.4-0.6,0.7-1.3,0.9-2.2c0.2-0.9,0.3-2.1,0.3-3.5v-50
		l5.9-2.4h2.5V100.9z M424.7,36.9c0.6,0,1.3,0.1,1.9,0.3c0.6,0.2,1.1,0.5,1.6,0.9c0.4,0.4,0.8,0.8,1,1.3c0.2,0.5,0.4,1.1,0.4,1.6
		c0,0.6-0.1,1.1-0.4,1.6c-0.2,0.5-0.6,1-1,1.3c-0.4,0.4-1,0.7-1.6,0.9c-0.6,0.2-1.2,0.3-1.9,0.3s-1.3-0.1-1.9-0.3
		c-0.6-0.2-1.1-0.5-1.5-0.9c-0.4-0.4-0.8-0.8-1-1.3c-0.3-0.5-0.4-1-0.4-1.6c0-0.6,0.1-1.1,0.4-1.6c0.3-0.5,0.6-1,1-1.3
		c0.4-0.4,0.9-0.7,1.5-0.9C423.4,37,424,36.9,424.7,36.9z"/>
	<path class="st6" d="M471.1,100.9h-8.4v-5.8c-1,0.8-2,1.6-2.9,2.3c-1,0.8-2,1.5-3.1,2.2s-2.4,1.2-3.7,1.6c-1.4,0.4-2.9,0.6-4.7,0.6
		c-1.7,0-3.2-0.3-4.5-0.8c-1.3-0.5-2.5-1.3-3.4-2.2c-0.9-0.9-1.6-2.1-2.2-3.4c-0.5-1.3-0.8-2.7-0.8-4.2c0-1.8,0.4-3.5,1.1-4.9
		c0.7-1.5,1.7-2.8,3-3.9s2.7-2.2,4.4-3.1c1.7-0.9,3.4-1.7,5.3-2.4c1.9-0.7,3.8-1.3,5.8-1.9c2-0.5,3.9-1.1,5.8-1.6v-2.6
		c0-1.9-0.2-3.5-0.6-4.8c-0.4-1.3-0.9-2.4-1.6-3.2c-0.7-0.8-1.6-1.4-2.6-1.8c-1-0.4-2.1-0.5-3.4-0.5c-1.4,0-2.6,0.2-3.5,0.6
		s-1.6,0.9-2.1,1.5s-0.9,1.3-1,2c-0.2,0.8-0.3,1.5-0.3,2.3c0,0.7-0.1,1.5-0.2,2.1c-0.1,0.7-0.3,1.3-0.6,1.8
		c-0.3,0.5-0.7,0.9-1.3,1.3c-0.5,0.3-1.2,0.5-2.1,0.5c-1.3,0-2.4-0.5-3.2-1.4c-0.8-0.9-1.2-2.1-1.2-3.5c0-1.4,0.5-2.7,1.4-3.9
		c0.9-1.2,2.1-2.3,3.7-3.2c1.6-0.9,3.4-1.6,5.5-2.1c2.1-0.5,4.3-0.8,6.5-0.8c2.8,0,5.1,0.3,7.1,0.8c1.9,0.5,3.5,1.3,4.7,2.3
		s2,2.2,2.6,3.5c0.5,1.4,0.8,2.9,0.8,4.6V100.9z M462.6,76.2c-1.8,0.6-3.7,1.3-5.7,2.1c-2,0.9-3.8,1.8-5.5,2.9
		c-1.7,1.1-3,2.3-4.1,3.6c-1.1,1.3-1.6,2.7-1.6,4.2c0,1,0.2,2,0.6,2.9s0.9,1.7,1.5,2.4s1.4,1.3,2.2,1.7c0.8,0.4,1.7,0.6,2.6,0.6
		c1,0,1.9-0.1,2.7-0.4c0.9-0.2,1.7-0.6,2.5-1c0.8-0.4,1.6-0.9,2.4-1.5c0.8-0.6,1.6-1.2,2.5-1.8V76.2z"/>
	<path class="st6" d="M482.3,58.5h8.3v8c0.8-1.2,1.7-2.3,2.7-3.4c0.9-1.1,1.9-2,2.9-2.8c1-0.8,2.1-1.5,3.2-1.9s2.2-0.7,3.3-0.7
		c0.9,0,1.8,0.1,2.6,0.4s1.5,0.6,2.1,1.1c0.6,0.5,1.1,1,1.4,1.6c0.3,0.6,0.5,1.3,0.5,1.9c0,1.4-0.4,2.4-1.3,3.1c-0.9,0.7-2,1-3.5,1
		c-0.9,0-1.7-0.1-2.2-0.3c-0.6-0.2-1.1-0.4-1.6-0.6s-0.9-0.4-1.4-0.6c-0.5-0.2-1.1-0.3-1.8-0.3c-1.1,0-2.2,0.6-3.4,1.9
		c-1.1,1.2-2.3,2.8-3.5,4.7v29.3h-8.3V58.5z"/>
	<path class="st6" d="M538,95.5c-1.1,1.9-2.6,3.5-4.5,4.6c-1.9,1.1-4.2,1.7-6.9,1.7c-1.4,0-2.7-0.2-3.7-0.7c-1.1-0.5-1.9-1.2-2.6-2
		c-0.7-0.9-1.2-1.9-1.5-3.1c-0.3-1.2-0.5-2.6-0.5-4V62.1h-7.3V60c2.3,0,4.3-0.4,5.8-1.3s2.8-2,3.8-3.5c1-1.5,1.7-3.2,2.3-5.1
		c0.6-1.9,1-4,1.4-6.1h2.4v14.5h9.5v3.6h-9.5v29.8c0,1.3,0.4,2.3,1.3,3.2s2,1.3,3.3,1.3c1,0,1.8-0.2,2.6-0.7c0.8-0.5,1.4-1,2-1.7
		L538,95.5z"/>
	<path class="st6" d="M574.4,100.9h-8.4v-5.8c-1,0.8-2,1.6-2.9,2.3c-1,0.8-2,1.5-3.1,2.2s-2.4,1.2-3.7,1.6c-1.4,0.4-2.9,0.6-4.7,0.6
		c-1.7,0-3.2-0.3-4.5-0.8c-1.3-0.5-2.5-1.3-3.4-2.2c-0.9-0.9-1.6-2.1-2.2-3.4c-0.5-1.3-0.8-2.7-0.8-4.2c0-1.8,0.4-3.5,1.1-4.9
		c0.7-1.5,1.7-2.8,3-3.9s2.7-2.2,4.4-3.1c1.7-0.9,3.4-1.7,5.3-2.4c1.9-0.7,3.8-1.3,5.8-1.9c2-0.5,3.9-1.1,5.8-1.6v-2.6
		c0-1.9-0.2-3.5-0.6-4.8c-0.4-1.3-0.9-2.4-1.6-3.2c-0.7-0.8-1.6-1.4-2.6-1.8c-1-0.4-2.1-0.5-3.4-0.5c-1.4,0-2.6,0.2-3.5,0.6
		s-1.6,0.9-2.1,1.5s-0.9,1.3-1,2c-0.2,0.8-0.3,1.5-0.3,2.3c0,0.7-0.1,1.5-0.2,2.1c-0.1,0.7-0.3,1.3-0.6,1.8
		c-0.3,0.5-0.7,0.9-1.3,1.3c-0.5,0.3-1.2,0.5-2.1,0.5c-1.3,0-2.4-0.5-3.2-1.4c-0.8-0.9-1.2-2.1-1.2-3.5c0-1.4,0.5-2.7,1.4-3.9
		c0.9-1.2,2.1-2.3,3.7-3.2c1.6-0.9,3.4-1.6,5.5-2.1c2.1-0.5,4.3-0.8,6.5-0.8c2.8,0,5.1,0.3,7.1,0.8c1.9,0.5,3.5,1.3,4.7,2.3
		s2,2.2,2.6,3.5c0.5,1.4,0.8,2.9,0.8,4.6V100.9z M565.9,76.2c-1.8,0.6-3.7,1.3-5.7,2.1c-2,0.9-3.8,1.8-5.5,2.9
		c-1.7,1.1-3,2.3-4.1,3.6c-1.1,1.3-1.6,2.7-1.6,4.2c0,1,0.2,2,0.6,2.9s0.9,1.7,1.5,2.4s1.4,1.3,2.2,1.7c0.8,0.4,1.7,0.6,2.6,0.6
		c1,0,1.9-0.1,2.7-0.4c0.9-0.2,1.7-0.6,2.5-1c0.8-0.4,1.6-0.9,2.4-1.5c0.8-0.6,1.6-1.2,2.5-1.8V76.2z"/>
	<path class="st6" d="M585.6,58.5h8.4v7.7c2.6-2.9,5.2-5.1,8-6.5c2.8-1.4,5.6-2.1,8.4-2.1c1.5,0,2.9,0.3,4.2,1
		c1.3,0.7,2.4,1.6,3.4,2.8s1.7,2.5,2.3,4.1c0.6,1.6,0.8,3.2,0.8,5v30.4h-8.4v-29c0-2.8-0.6-4.9-1.9-6.4c-1.3-1.4-2.9-2.1-4.8-2.1
		c-0.9,0-1.8,0.1-2.8,0.4c-1,0.3-2,0.7-3,1.2c-1,0.5-2.1,1.2-3.1,1.9c-1,0.7-2,1.6-3,2.5v31.4h-8.4V58.5z"/>
	<path class="st6" d="M644.3,98.9c1.1,0,2.2-0.2,3.2-0.5c1-0.4,1.8-0.8,2.5-1.4c0.7-0.6,1.2-1.3,1.6-2c0.4-0.7,0.6-1.5,0.6-2.3
		c0-1.3-0.3-2.4-1-3.4c-0.6-1-1.5-1.8-2.6-2.6c-1.1-0.8-2.3-1.5-3.6-2.1c-1.4-0.6-2.7-1.3-4.2-1.9c-1.4-0.7-2.8-1.4-4.2-2.2
		c-1.4-0.8-2.6-1.7-3.6-2.7s-1.9-2.2-2.6-3.5c-0.6-1.3-1-2.9-1-4.7c0-1.7,0.4-3.3,1.1-4.7c0.7-1.5,1.7-2.7,3-3.8
		c1.3-1.1,2.8-1.9,4.6-2.5c1.8-0.6,3.7-0.9,5.8-0.9c1.4,0,2.7,0.1,3.9,0.3c1.2,0.2,2.4,0.6,3.6,1.1s2.3,1.4,3.5,2.4
		c1.2,1,2.4,2.4,3.7,4.1l-3.1,2.7c-1.6-2.6-3.4-4.6-5.4-5.9c-2-1.3-4.1-1.9-6.4-1.9c-1.2,0-2.3,0.1-3.3,0.4c-1,0.3-1.8,0.7-2.6,1.2
		c-0.7,0.5-1.3,1.1-1.6,1.8s-0.6,1.4-0.6,2.2c0,1.3,0.4,2.4,1.1,3.3c0.7,0.9,1.6,1.8,2.8,2.6c1.2,0.8,2.5,1.5,3.9,2.1
		c1.5,0.6,3,1.3,4.5,1.9c1.5,0.7,3.1,1.4,4.5,2.2c1.5,0.8,2.8,1.7,3.9,2.7c1.2,1,2.1,2.2,2.8,3.5c0.7,1.3,1.1,2.9,1.1,4.6
		c0,1.8-0.3,3.5-1,5c-0.7,1.6-1.7,2.9-3,4.1c-1.3,1.1-3,2-5.1,2.7c-2,0.7-4.4,1-7.1,1c-1.2,0-2.5-0.1-3.8-0.3
		c-1.3-0.2-2.6-0.6-3.9-1.1c-1.3-0.6-2.7-1.4-4-2.4c-1.3-1-2.6-2.4-3.9-4.1l3.4-3.1c1,1.5,2,2.7,2.9,3.7c0.9,1,1.9,1.9,2.9,2.5
		s2,1.1,3,1.4C641.9,98.7,643.1,98.9,644.3,98.9z"/>
	<path class="st6" d="M682.5,98.9c1.1,0,2.2-0.2,3.2-0.5c1-0.4,1.8-0.8,2.5-1.4c0.7-0.6,1.2-1.3,1.6-2c0.4-0.7,0.6-1.5,0.6-2.3
		c0-1.3-0.3-2.4-1-3.4c-0.6-1-1.5-1.8-2.6-2.6c-1.1-0.8-2.3-1.5-3.6-2.1c-1.4-0.6-2.7-1.3-4.2-1.9c-1.4-0.7-2.8-1.4-4.2-2.2
		c-1.4-0.8-2.6-1.7-3.6-2.7s-1.9-2.2-2.6-3.5c-0.6-1.3-1-2.9-1-4.7c0-1.7,0.4-3.3,1.1-4.7c0.7-1.5,1.7-2.7,3-3.8
		c1.3-1.1,2.8-1.9,4.6-2.5c1.8-0.6,3.7-0.9,5.8-0.9c1.4,0,2.7,0.1,3.9,0.3c1.2,0.2,2.4,0.6,3.6,1.1s2.3,1.4,3.5,2.4
		c1.2,1,2.4,2.4,3.7,4.1l-3.1,2.7c-1.6-2.6-3.4-4.6-5.4-5.9c-2-1.3-4.1-1.9-6.4-1.9c-1.2,0-2.3,0.1-3.3,0.4c-1,0.3-1.8,0.7-2.6,1.2
		c-0.7,0.5-1.3,1.1-1.6,1.8s-0.6,1.4-0.6,2.2c0,1.3,0.4,2.4,1.1,3.3c0.7,0.9,1.6,1.8,2.8,2.6c1.2,0.8,2.5,1.5,3.9,2.1
		c1.5,0.6,3,1.3,4.5,1.9c1.5,0.7,3.1,1.4,4.5,2.2c1.5,0.8,2.8,1.7,3.9,2.7c1.2,1,2.1,2.2,2.8,3.5c0.7,1.3,1.1,2.9,1.1,4.6
		c0,1.8-0.3,3.5-1,5c-0.7,1.6-1.7,2.9-3,4.1c-1.3,1.1-3,2-5.1,2.7c-2,0.7-4.4,1-7.1,1c-1.2,0-2.5-0.1-3.8-0.3
		c-1.3-0.2-2.6-0.6-3.9-1.1c-1.3-0.6-2.7-1.4-4-2.4c-1.3-1-2.6-2.4-3.9-4.1l3.4-3.1c1,1.5,2,2.7,2.9,3.7c0.9,1,1.9,1.9,2.9,2.5
		s2,1.1,3,1.4C680.2,98.7,681.3,98.9,682.5,98.9z"/>
	<path class="st6" d="M727.8,101.8c-3.2,0-6.2-0.6-9-1.7s-5.1-2.7-7.1-4.6c-2-2-3.5-4.3-4.7-6.9c-1.1-2.6-1.7-5.4-1.7-8.4
		c0-3.1,0.6-6.1,1.7-8.8c1.1-2.7,2.7-5.1,4.7-7.2c2-2,4.4-3.7,7.1-4.8c2.7-1.2,5.7-1.8,9-1.8c3.2,0,6.2,0.5,8.9,1.6
		c2.7,1.1,5.1,2.6,7.1,4.5c2,1.9,3.5,4.1,4.7,6.6c1.1,2.5,1.7,5.2,1.7,8.1c0,3.2-0.6,6.2-1.7,9.1c-1.1,2.8-2.7,5.3-4.7,7.4
		c-2,2.1-4.4,3.8-7.1,5S731,101.8,727.8,101.8z M729.4,98.7c1.7,0,3.2-0.4,4.6-1.3c1.4-0.9,2.6-2,3.6-3.4c1-1.4,1.8-3.1,2.3-5
		c0.6-1.9,0.8-3.9,0.8-6.1c0-3.1-0.3-5.9-0.8-8.6c-0.5-2.7-1.4-5-2.6-7c-1.2-2-2.7-3.6-4.6-4.7c-1.9-1.1-4.2-1.7-7-1.7
		c-1.4,0-2.8,0.4-4.1,1.2c-1.3,0.8-2.5,1.9-3.5,3.4c-1,1.4-1.8,3.1-2.4,5c-0.6,1.9-0.9,3.9-0.9,6c0,3.1,0.3,6,1,8.7
		c0.6,2.7,1.6,5.1,2.9,7.1c1.3,2,2.8,3.6,4.6,4.8C725,98.1,727.1,98.7,729.4,98.7z"/>
	<path class="st6" d="M758.2,58.5h8.4v7.7c2.6-2.9,5.2-5.1,8-6.5c2.8-1.4,5.6-2.1,8.4-2.1c1.5,0,2.9,0.3,4.2,1
		c1.3,0.7,2.4,1.6,3.4,2.8c1,1.2,1.7,2.5,2.3,4.1c0.6,1.6,0.8,3.2,0.8,5v30.4h-8.4v-29c0-2.8-0.6-4.9-1.9-6.4
		c-1.3-1.4-2.9-2.1-4.8-2.1c-0.9,0-1.8,0.1-2.8,0.4c-1,0.3-2,0.7-3,1.2c-1,0.5-2.1,1.2-3.1,1.9s-2,1.6-3,2.5v31.4h-8.4V58.5z"/>
</g>
</svg>
