<?xml version="1.0" encoding="utf-8"?>
<!-- Generator: Adobe Illustrator 23.0.1, SVG Export Plug-In . SVG Version: 6.00 Build 0)  -->
<svg version="1.1" id="Layer_1" xmlns="http://www.w3.org/2000/svg" xmlns:xlink="http://www.w3.org/1999/xlink" x="0px" y="0px"
	 viewBox="0 0 1965 698" style="enable-background:new 0 0 1965 698;" xml:space="preserve">
<style type="text/css">
	.st0{fill:#FFFFFF;}
	.st1{fill:#EED7CB;}
	.st2{opacity:0.5;}
	.st3{fill:#E7C1AA;}
	.st4{opacity:0.8;}
	.st5{opacity:0.2;}
	.st6{fill:#BDCDC4;}
	.st7{fill:#EBE8DB;}
	.st8{opacity:0.25;}
	.st9{fill:#BF815B;}
	.st10{fill:#8B9C7D;}
	.st11{opacity:0.52;}
	.st12{opacity:0.14;}
	.st13{fill:none;stroke:#BDCDC4;stroke-width:2;stroke-miterlimit:10;}
	.st14{fill:none;stroke:#BDCDC4;stroke-miterlimit:10;}
	.st15{fill:none;stroke:#BF815B;stroke-miterlimit:10;}
	.st16{fill:#EBE8DB;stroke:#BDCDC4;stroke-width:2;stroke-miterlimit:10;}
	.st17{fill:none;stroke:#BF815B;stroke-width:3;stroke-miterlimit:10;}
	.st18{fill:#EBE8DB;stroke:#BDCDC4;stroke-miterlimit:10;}
</style>
<polygon class="st6" points="1055.5,296 1055.5,393.5 1057.5,393.5 1061.5,405.4 1059.5,411.3 1141.5,412.5 1142,337 1183,337 
	1182.5,296 "/>
<polygon class="st6" points="890,294 889,396 881,396 877,405 879,412 796,413 795.5,335 754.5,335 755,294 "/>
<path class="st6" d="M894,159v102h31l-1-42c0,0,10-39,46-43s45,44,45,44v41h33V159H894z"/>
<path class="st16" d="M12,443.5c0,0,20,0,29,6.9c0,0,18-22.9,29-16c11,6.9,327-16,347,2.3c0,0,57,2.3,68,22.9c0,0,91-27.5,112-16
	c0,0,97-22.9,117,16c0,0,155-61.8,216-16c0,0,181-43.5,213,16c0,0,449-54.9,585,0c0,0,113-29.7,138,6.9c0,0,48-41.2,66-20.6V638H12
	V443.5z"/>
<path class="st16" d="M280.6,391.7l-7.1,9.3c0,0-1.4,7.1-2.1,9.3s0.7,11.4,0.7,11.4s0.7,7.8,0.7,10.7c0,2.9-2.1,14.3,6.4,20.7
	c0,0-3.6-2.1-5.7-1.4c-2.1,0.7-1.4,3.6-2.9,2.9c-1.4-0.7-0.7-2.1-2.1-2.1c-1.4,0-5,3.6-5.7,2.9c-0.7-0.7,0.7-2.9,0.7-2.9
	s-0.7-2.1-3.6,0c0,0-1.4,0-1.4-0.7c0,0,5.7-5,5.7-7.8c0-2.9,0-10,0-10s-0.7-5.7-0.7-12.8c0-7.1,0.7-12.8,0.7-12.8s-0.7-7.1-4.3-9.3
	c-3.6-2.1-5.7-6.4-5.7-6.4s-2.9-4.3-4.3-5c-1.4-0.7-3.6-3.6-3.6-3.6s-2.1-1.4-4.3-2.1c0,0-2.1,0.7-2.9,0c0,0,2.1,0,2.1-0.7
	s-1.4-1.4-1.4-1.4s0.7,0,3.6,1.4c2.9,1.4,4.3,2.1,4.3,2.1s1.4,0.7,1.4-2.1c0,0,0-2.1,0-2.9c0-0.7,0.7,2.1,0.7,3.6
	c0,1.4,1.4-2.9,1.4-2.9s-0.7,5-1.4,5s1.4,4.3,2.9,4.3c1.4,0,3.6,3.6,5,4.3c1.4,0.7,5,7.1,6.4,5c1.4-2.1-0.7-6.4-0.7-6.4
	s-2.9-7.1-2.9-7.8s-11.4-15-13.5-15.7h-0.7c0,0,0.7-0.7,0-1.4c0,0,2.1,0,1.4-0.7c-0.7-0.7,1.4,3.6,2.9,3.6c1.4,0,3.6,2.9,3.6,2.9
	l8.6,10.7c0,0,0.7-7.1,0-8.6c-0.7-1.4,0-2.9,0-2.9s-1.9-2.1-1.4-4.3c0.7-3.6,0.7-4.3,0-7.1c0,0-9.3-2.9-11.4-5c0,0-1.4-2.9-4.3-1.4
	c-0.6,0.3-0.3-1.9-0.5-3c-0.1-0.7,0.8-1.1,1.2-0.5c0.5,0.7,1.8,0.6,2.1,0.6c0.7,0,2.9,1.4,5.7,3.6c0,0,2.1,2.9,5.7,2.9
	c2.6,0-7.8-7.8-7.8-7.8v-0.7l2.9,0.7c0,0,4.3,0.7,0.7-8.6l1.4-1.4c0,0,2.9,5.7,2.9,8.6c0,2.9,0.7,7.8,1.4,7.1s1.4-2.9,1.4-5
	s-1.4-2.1-0.7-3.6c0.7-1.4,1.4-1.4,1.4-2.9c0-1.4,0.7-3.6,0.7-5s3.6-5.7,2.9-7.1l0.7-1.4c0,0,1.4,1.4,2.1,0.7c0,0-0.7,0.7-1.4,5
	c-0.7,4.3-4.3,10.7-4.3,10.7s0.7,2.1,0.7,8.6s0,15.7,0.7,16.4c0.7,0.7,2.1,4.3,3.6,0.7c1.4-3.6,2.1-9.3,2.1-9.3l0.7-10.7v-2.1
	c0,0,0.7-0.7,1.4-3.6s0-9.3,0.7-10.7c0.7-1.4-2.9-15-5.7-13.5c0,0,4.3,0,3.6-2.9c-0.7-2.9,3.6,7.1,3.6,7.1s0,6.4,2.1,6.4
	s2.1,0,2.1,0s0.7-2.9,1.4-2.9s1.4-12.1,0.7-12.1c-0.7,0,0.7,0.7,1.4-0.7c0.7-1.4,0,11.4,0,11.4s1.4-2.1,2.9-2.1
	c1.4,0,7.1-4.3,7.1-4.3s-1.4,2.1,0,2.9c0,0,0,1.4-2.1,2.1c-2.1,0.7-5.7,3.6-6.4,2.9c-0.7-0.7-1.4,4.3-3.6,5.7
	c-2.1,1.4,0.7-0.7-3.6,10.7c0,0,0.7,4.3,0,6.4s2.1-2.1,5.7-5.7c3.6-3.6,6.4-7.8,6.4-7.8s6.4-2.9,6.4-5.7c0,0,0,0.7,1.4,0.7
	c0,0-0.7,2.9,0,2.9s-7.8,5-9.3,7.1c-1.4,2.1-10,11.4-10,11.4s-6.4,11.4,2.9,3.6c0,0,10.7-2.9,12.1-5.7l1.4-1.4l0.7,1.4l-0.7,2.9
	c0,0-7.1,3.6-10,3.6c-2.9,0-5.7,8.6-10,9.3c0,0-6.4,17.8-3.6,17.1c2.9-0.7,9.3-7.8,10-6.4c0.7,1.4,3.6-2.9,7.8-5s7.1-5,7.1-5
	s2.1-2.9,3.6-5s4.3-2.1,4.3-2.1s-7.1,7.8-6.4,8.6c0.7,0.7,5.7-2.9,5.7-2.9s-0.7,2.1,0.7,2.1s-2.9,1.4-4.3,2.1s-10,5.7-12.8,6.4
	c-2.9,0.7-2.1,2.9-4.3,3.6c-2.1,0.7-2.9,5-6.4,5.7c-3.6,0.7-4.3,8.6-4.3,8.6s5-3.6,6.4-6.4c1.4-2.9,4.3-3.6,4.3-5.7l0.7,2.9
	L280.6,391.7z"/>
<path class="st13" d="M251.1,325.9c0,0,4.8,2.9,4.9-2.7c0,0,3.2,1.8,3.9-1.3c0,0,2.8,3.3,3.4-1.8c0,0,3.4,4.8,4.5-0.8
	c0,0,4.5,5.7,5.4-1.9c0,0,5.2,1.6,4.7-4.4"/>
<path class="st13" d="M260.5,400.9c0,0,0.4,5.9-4.3,3.6c0,0-0.2,1.4-2.5,1.7c0,0,0.1,3.6-2.6,2.4c0,0-0.3,5.7-5.2,4.9
	c0,0-3.9,1.5-5.6-1c0,0-5-0.2-3.7-3.6c0,0-2.9,0.2-2.4-2.6"/>
<path class="st13" d="M299.4,401.4c0,0-0.1,5.9-4.5,3.2c0,0-0.4,1.4-2.6,1.5c0,0-0.2,3.6-2.8,2.2c0,0-0.8,5.7-5.6,4.4
	c0,0-4,1.2-5.5-1.5c0,0-5-0.6-3.4-3.8c0,0-2.9,0-2.2-2.8"/>
<path class="st13" d="M295.1,346c0,0-2.3,6.9,4.3,5.8c0,0-2.9,4.9,5,4.5c0,0-0.2,4.8,4.7,3.6c0,0-1.5,4.1,3.4,2.8c0,0,1,1.2,2.2,1.1
	c0.8,0,1.6-0.6,2.2-2.8c0,0,1.2,2.3,3.5,1.2c0,0,2.5,3.1,4.9,0.4c0,0,2.5,1.5,3.3-1.4"/>
<path class="st13" d="M240.4,394.6c0.9,3.5-1.4,2.3-1.4,2.3c3.2,4.7-0.5,5.8-0.5,5.8c-1.1,5.1-4.8,1.2-4.8,1.2
	c-0.2,3.6-3.8,0.4-3.8,0.4c-2,1.6-3.5-2.5-3.5-2.5c-3.1,1.8-3.9-1-3.9-1c-3.1,1.8-2.5-3.3-2.5-3.3c-1.3,3-3.5-1.8-3.5-1.8
	c-3.1,1.8-3.8-4.6-3.8-4.6c-3.2,1.1-3.3-5.4-3.3-5.4c-2.3-1.2-0.7-7.1-0.7-7.1c-2.7,0.3-2.1-4.8-2.1-4.8c-3-2.6-0.1-5.7-0.1-5.7
	c-2.7-4.7,3.8-5.4,3.8-5.4c-3-2.6,2.3-8.8,2.3-8.8c-0.9-3.5,3.4-3.9,3.4-3.9c-2.2-0.5-2.2-5.5-0.5-5s2-6.7,1.2-4.4s-1.8-1.2-1.6,0.2
	c0.1,1.4-0.4,1.5-2.6,1c-2.2-0.5,0.2-3.6,0.2-3.6s-2.7,0.3-2.5-2.6c0.2-2.9,2.1-0.9,2.1-0.9c-1.7-5.6,2.6-6.7,2.6-6.7
	c-3.8,0.4-1.5-4.1-1.5-4.1c-3.5-2.5,2.2-5.2,2.2-5.2c-1.2-6.3,2.9-3.2,2.9-3.2c1.3-3,5.5,0.8,5.5,0.8c-3.5-1.8-0.1-6.4-0.1-6.4
	c-2.2,0.2-2-3.4-2-3.4c-2.5,2.4-3.7-3.9-3.7-3.9c-2.8-1.1-0.3-7.9-0.3-7.9c-2.8-5.4,2-7.4,2-7.4c-2.1-9.1,4.2-6.9,4.2-6.9
	c0.2-3.6,2.7-0.3,2.7-0.3c1.3-3,2.9,1.8,2.9,1.8c5.1-8.4,5.1,1.6,5.1,1.6c2.4-3.1,3.8-0.4,3.8-0.4c-3.1-9,2.9-8.9,2.9-8.9
	c-1.3-7,3.3-4.7,3.3-4.7c-1.6-4.8,2.9-3.9,2.9-3.9c-0.8-2.8,1.4-2.3,1.4-2.3c-1.7-5.6,3.5-3.2,3.5-3.2c1.9-2.4,2.8,1.1,2.8,1.1
	s-0.8-2.1,0.6-4.4c1.4-2.3,3.5,1.8,3.5,1.8c-1.5-4.1,0.7-3.7,0.7-3.7c-2.1-4.8,1.6-5.9,1.6-5.9c1.6-5.9,4.2-1.2,4.2-1.2
	c2.9-3.9,4.5,1,4.5,1c5.1-3.4,5.3,3.7,5.3,3.7c6.3-2.1,5.5,5.9,5.5,5.9c4.1-2.6,4.2,3.1,4.2,3.1s3.6-2.5,5.5,0.8
	c0,0,2.8,0.4,4.9,5.2c0,0,1.8-3.8,4.9,0.2c0,0,4-3.3,4.6,2.4c0,0,4.1,2.4,1.7,5.6c0,0,2.2-0.2,1.4,2.7c0,0,1.5-1.6,2.4,1.9
	c0,0,3.1-1.8,3.5,2.5c0,0,4.5,1.7,2.8,5.4c0,0,2.5,3.3-0.1,9.3c0,0,0.9-1.5,1.8,1.2c0.8,2.8-0.8,2.9-0.8,2.9s0.8,2.8-0.7,3.7
	c0,0,1.7,0.5,1.5,4.1c0,0,3.1-1.8,4.4,0.3c0,0,1.2-3.7,3.2-1.1c0,0,2.4-3.1,4.9,0.2c0,0,1.9-2.4,2.9,1.8c0,0,4.5-4.1,5.7,2.3
	c0,0,3.2-1.1,2.5,2.6c0,0,3.1,3.3,0.6,5.7c0,0,1.9,2.7,0.6,5.7s-4,3.3-4,3.3s2.8,0.4,3.1,3.3c0,0,3.6-1.8,3.5,2.5s-0.3,2.2-0.3,2.2
	s3.9,0.3,3.8,4.6c-0.1,4.3-3.3,5.4-3.3,5.4s3.3,0.4,3.1,4s-2.3,3.8-2.3,3.8s2.8,0.4,2,3.4c0,0,3.2,4.7-0.4,6.5c0,0,1.5,3.4-0.1,4.3
	c-1.5,0.9-3.8,0.4-3.8,0.4s0.9,3.5-1.2,3.7c0,0,0.9,3.5-1.2,3.7c0,0,1.4,2.7-1.7,4.5c0,0,1.4,2.7-0.8,2.9c0,0,0.8,2.1-2,1.6
	c-2.8-0.4-2.8-0.4-2.8-0.4l0,0c0,0,1,4.2-2.5,2.4c0,0-1.3,3-3.9-0.3c0,0,0.4,4.3-3.9,4c0,0,1.7,5.6-1.7,4.5c0,0,0.4,4.3-2.9,3.2
	c0,0,1.7,5.6-1.8,3.8c0,0-0.2,2.9-2.5,1.7c0,0-3.9,4-5.2-3c0,0-1.3,3-3.3-0.4c0,0-1.2,3.7-3.4-1.1c0,0-2.2-0.5-1.9-2.7
	c0,0-0.2,2.9-2.1,0.9c0,0-2.9,3.9-4.9,0.5c0,0-2.5,1.7-3.9-1c0,0-2,1.6-2.9-1.8c0,0-1.2,3.7-2.8-0.4"/>
<path class="st13" d="M307,304.6c0,0-6,0.7-7-1.4c0,0-5.2,0.4-6.6-3.2c0,0-6.2,2.1-8.7-3.6c0,0-2.6,1.8-5.1-0.1c0,0-3.4,2.6-7.4,0.4
	"/>
<path class="st13" d="M236.3,318.6c0,0,5.6,0.4,4.1-6.5c0,0,7.1,0.1,7.4-8c0,0,4.2,2.2,6.9-1.4c0,0,3.2,2.1,4.1-0.4"/>
<path class="st13" d="M247.4,370.2c0,0-0.1,7.2-5.9,5.6c0,0,0.6,6.4-6,4.9c0,0-0.8,6.5-6.7,4.9c0,0-2.4,4.5-7,1.4"/>
<path class="st16" d="M1665.1,398.3l6.5,8.5c0,0,1.3,6.5,2,8.5s-0.7,10.5-0.7,10.5s-0.7,7.2-0.7,9.8s2,13.1-5.9,19
	c0,0,3.3-2,5.2-1.3s1.3,3.3,2.6,2.6s0.7-2,2-2s4.6,3.3,5.2,2.6s-0.7-2.6-0.7-2.6s0.7-2,3.3,0c0,0,1.3,0,1.3-0.7c0,0-5.2-4.6-5.2-7.2
	s0-9.2,0-9.2s0.7-5.2,0.7-11.8s-0.7-11.8-0.7-11.8s0.7-6.5,3.9-8.5s5.2-5.9,5.2-5.9s2.6-3.9,3.9-4.6s3.3-3.3,3.3-3.3s2-1.3,3.9-2
	c0,0,2,0.7,2.6,0c0,0-2,0-2-0.7s1.3-1.3,1.3-1.3s-0.7,0-3.3,1.3s-3.9,2-3.9,2s-1.3,0.7-1.3-2c0,0,0-2,0-2.6c0-0.7-0.7,2-0.7,3.3
	s-1.3-2.6-1.3-2.6s0.7,4.6,1.3,4.6s-1.3,3.9-2.6,3.9c-1.3,0-3.3,3.3-4.6,3.9s-4.6,6.5-5.9,4.6s0.7-5.9,0.7-5.9s2.6-6.5,2.6-7.2
	s10.5-13.7,12.4-14.4h0.7c0,0-0.7-0.7,0-1.3c0,0-2,0-1.3-0.7s-1.3,3.3-2.6,3.3s-3.3,2.6-3.3,2.6l-7.9,9.8c0,0-0.7-6.5,0-7.9
	s0-3.9,0-3.9s0.7-0.7,1.3-2.6c0.7-2,3.9-6.5,4.6-9.2c0,0,0-1.3,2-1.3c0,0,5.9-3.9,7.2-3.3c0.6,0.3,0.9-0.5,1.1-1.4
	c0.1-0.7-0.7-1-1.1-0.5c-0.5,0.7-1,1.2-1.3,1.2c-0.7,0-3.3,0.7-5.9,2.6c0,0-2,0-3.3,2c-1.3,2-2-0.7-2-0.7s2.6-4.6,4.6-4.6
	s2.6-1.3,2.6-1.3l0.7-0.7l-1.3-0.7c0,0-2.6,0.7-3.3,1.3s-2,0-2,0s-2,2,2.6-7.9l-1.3-1.3c0,0-2.6,5.2-2.6,7.9s-0.7,7.2-1.3,6.5
	c-0.7-0.7-1.3-2.6-1.3-4.6s1.3-2,0.7-3.3s-1.3-1.3-1.3-2.6c0-1.3-0.7-3.3-0.7-4.6s-3.3-5.2-2.6-6.5l-0.7-1.3c0,0-1.3,1.3-2,0.7
	c0,0,0.7,0.7,1.3,4.6s3.9,9.8,3.9,9.8s-0.7,2-0.7,7.9c0,5.9,0,14.4-0.7,15s-2,3.9-3.3,0.7s-2-8.5-2-8.5l-0.7-9.8v-2
	c0,0-0.7-0.7-1.3-3.3s0-8.5-0.7-9.8s2.6-13.7,5.2-12.4c0,0-3.9,0-3.3-2.6c0.7-2.6-3.3,6.5-3.3,6.5s0,5.9-2,5.9s-2,0-2,0
	s-0.7-2.6-1.3-2.6s-1.3-11.1-0.7-11.1s-0.7,0.7-1.3-0.7s0,10.5,0,10.5s-1.3-2-2.6-2s-6.5-3.9-6.5-3.9s1.3,2,0,2.6c0,0,0,1.3,2,2
	s5.2,3.3,5.9,2.6s1.3,3.9,3.3,5.2s-0.7-0.7,3.3,9.8c0,0-0.7,3.9,0,5.9c0.7,2-2-2-5.2-5.2s-5.9-7.2-5.9-7.2s-5.9-2.6-5.9-5.2
	c0,0,0,0.7-1.3,0.7c0,0,0.7,2.6,0,2.6s7.2,4.6,8.5,6.5c1.3,2,9.2,10.5,9.2,10.5s5.9,10.5-2.6,3.3c0,0-9.8-2.6-11.1-5.2l-1.3-1.3
	l-0.7,1.3l0.7,2.6c0,0,6.5,3.3,9.2,3.3s5.2,7.9,9.2,8.5c0,0,5.9,16.4,3.3,15.7s-8.5-7.2-9.2-5.9c-0.7,1.3-3.3-2.6-7.2-4.6
	s-6.5-4.6-6.5-4.6s-2-2.6-3.3-4.6c-1.3-2-3.9-2-3.9-2s6.5,7.2,5.9,7.9s-5.2-2.6-5.2-2.6s0.7,2-0.7,2s2.6,1.3,3.9,2
	c1.3,0.7,9.2,5.2,11.8,5.9c2.6,0.7,2,2.6,3.9,3.3s2.6,4.6,5.9,5.2s3.9,7.9,3.9,7.9s-4.6-3.3-5.9-5.9c-1.3-2.6-3.9-3.3-3.9-5.2
	l-0.7,2.6L1665.1,398.3z"/>
<path class="st13" d="M1651.7,329.3c0,0,3.3,8.5,10.5,0c0,0,2.6,3.3,7.2,0.7c0,0,2-0.7,3.9-3.3c0,0-1.3,2,0,2.6c0,0-2.6,0,0,2.6
	c0,0-2,2,2.6,2.6c0,0,2,0.7,3.3-1.3c0,0,0,5.2,3.3,4.6c0,0,0,0.7,2-0.7"/>
<path class="st13" d="M1672.4,339.3c0,0,0.9,5,4.8,1.8c0,0,0.7,3.3,3.3,2c0,0-0.7,3.9,3.3,1.3c0,0-1.3,5.2,3.3,2.6
	c0,0-1.3,6.5,4.6,2.6c0,0,2,4.6,5.9,0.7"/>
<path class="st13" d="M1708.6,348.3c0,0,5.2-1.3,3.9,3.3c0,0,1.3,0,2,2c0,0,3.3-0.7,2.6,2c0,0,5.2-0.7,5.2,3.9c0,0,2,3.3,0,5.2
	c0,0,0.7,4.6-2.6,3.9c0,0,0.7,2.6-2,2.6"/>
<path class="st13" d="M1691,371.8c0,0,0.7,1.5,2.2,1.4c0.7,0,1.3,0.4,1.7,1c0.2,0.4,0.7,0.6,1.7,0.5c0.5-0.1,0.9,0.3,0.9,0.7
	c0.1,0.5,0.3,1,1,1.1c0.5,0.1,0.8,0.5,0.7,1c-0.2,1.1-0.2,2.6,1.6,2.2"/>
<path class="st13" d="M1699.5,390.1c0,0,1.3,6.5,5.9,2.6c0,0,0,5.2,5.9,1.3c0,0,2,3.9,5.2,0.7c0,0,0.7,3.9,3.9,0.7
	c0,0,1.3,0.4,2.2-0.1c0.6-0.4,1-1.3,0.4-3.2c0,0,2,1.3,3.3-0.7c0,0,3.3,1.3,3.9-2c0,0,2.6,0,2-2.6"/>
<path class="st13" d="M1722.4,395.4c-0.7,3.3,2,2,2,2c-3.3,4.6,1.3,5.2,1.3,5.2c2,4.6,5.9,0.7,5.9,0.7c0.7,3.3,4.6,0,4.6,0
	c2.6,1.3,3.9-2.6,3.9-2.6c3.9,1.3,4.6-1.3,4.6-1.3c3.9,1.3,2.6-3.3,2.6-3.3c2,2.6,3.9-2,3.9-2c3.9,1.3,3.9-4.6,3.9-4.6
	c3.9,0.7,3.3-5.2,3.3-5.2c2.6-1.3,0-6.5,0-6.5c3.3,0,2-4.6,2-4.6c3.3-2.6-0.7-5.2-0.7-5.2c2.6-4.6-5.2-4.6-5.2-4.6
	c3.3-2.6-3.9-7.9-3.9-7.9c0.7-3.3-4.6-3.3-4.6-3.3c2.6-0.7,2-5.2,0-4.6s-3.3-5.9-2-3.9c1.3,2,2-1.3,2,0s0.7,1.3,3.3,0.7
	s-0.7-3.3-0.7-3.3s3.3,0,2.6-2.6s-2.6-0.7-2.6-0.7c1.3-5.2-3.9-5.9-3.9-5.9c4.6,0,1.3-3.9,1.3-3.9c3.9-2.6-3.3-4.6-3.3-4.6
	c0.7-5.9-3.9-2.6-3.9-2.6c-2-2.6-6.5,1.3-6.5,1.3c3.9-2-0.7-5.9-0.7-5.9c2.6,0,2-3.3,2-3.3c3.3,2,3.9-3.9,3.9-3.9
	c3.3-1.3-0.7-7.2-0.7-7.2c2.6-5.2-3.3-6.5-3.3-6.5c1.3-8.5-5.9-5.9-5.9-5.9c-0.7-3.3-3.3,0-3.3,0c-2-2.6-3.3,2-3.3,2
	c-7.2-7.2-5.9,2-5.9,2c-3.3-2.6-4.6,0-4.6,0c2.6-8.5-4.6-7.9-4.6-7.9c0.7-6.5-4.6-3.9-4.6-3.9c1.3-4.6-3.9-3.3-3.9-3.3
	c0.7-2.6-2-2-2-2c1.3-5.2-4.6-2.6-4.6-2.6c-2.6-2-3.3,1.3-3.3,1.3s0.7-2-1.3-3.9s-3.9,2-3.9,2c1.3-3.9-1.3-3.3-1.3-3.3
	c2-4.6-2.6-5.2-2.6-5.2c-2.6-5.2-5.2-0.7-5.2-0.7c-3.9-3.3-5.2,1.3-5.2,1.3c-6.5-2.6-5.9,3.9-5.9,3.9c-7.9-1.3-5.9,5.9-5.9,5.9
	c-5.2-2-4.6,3.3-4.6,3.3s-4.6-2-6.5,1.3c0,0-3.3,0.7-5.2,5.2c0,0-2.6-3.3-5.9,0.7c0,0-5.2-2.6-5.2,2.6c0,0-4.6,2.6-1.3,5.2
	c0,0-2.6,0-1.3,2.6c0,0-2-1.3-2.6,2c0,0-3.9-1.3-3.9,2.6c0,0-5.2,2-2.6,5.2c0,0-2.6,3.3,1.3,8.5c0,0-1.3-1.3-2,1.3s1.3,2.6,1.3,2.6
	s-0.7,2.6,1.3,3.3c0,0-2,0.7-1.3,3.9c0,0-3.9-1.3-5.2,0.7c0,0-2-3.3-3.9-0.7c0,0-3.3-2.6-5.9,0.7c0,0-2.6-2-3.3,2
	c0,0-5.9-3.3-6.5,2.6c0,0-3.9-0.7-2.6,2.6c0,0-3.3,3.3,0,5.2c0,0-2,2.6,0,5.2c2,2.6,5.2,2.6,5.2,2.6s-3.3,0.7-3.3,3.3
	c0,0-4.6-1.3-3.9,2.6c0.7,3.9,0.7,2,0.7,2s-4.6,0.7-3.9,4.6s4.6,4.6,4.6,4.6s-3.9,0.7-3.3,3.9c0.7,3.3,3.3,3.3,3.3,3.3
	s-3.3,0.7-2,3.3c0,0-3.3,4.6,1.3,5.9c0,0-1.3,3.3,0.7,3.9s4.6,0,4.6,0s-0.7,3.3,2,3.3c0,0-0.7,3.3,2,3.3c0,0-1.3,2.6,2.6,3.9
	c0,0-1.3,2.6,1.3,2.6c0,0-0.7,2,2.6,1.3c3.3-0.7,3.3-0.7,3.3-0.7l0,0c0,0-0.7,3.9,3.3,2c0,0,2,2.6,4.6-0.7c0,0,0,3.9,5.2,3.3
	c0,0-1.3,5.2,2.6,3.9c0,0,0,3.9,3.9,2.6c0,0-1.3,5.2,2.6,3.3c0,0,0.7,2.6,3.3,1.3c0,0,5.2,3.3,5.9-3.3c0,0,2,2.6,3.9-0.7
	c0,0,2,3.3,3.9-1.3c0,0,2.6-0.7,2-2.6c0,0,0.7,2.6,2.6,0.7c0,0,3.9,3.3,5.9,0c0,0,3.3,1.3,4.6-1.3c0,0,2.6,1.3,3.3-2
	c0,0,2,3.3,3.3-0.7"/>
<path class="st13" d="M1613.8,353.5c0,0,0,4.6,5.9,2c0,0,1.3,5.2,5.9,2c0,0,3.3,4.6,6.5-1.3c0,0,0,4.6,4.6,3.3c0,0-2,3.3,1.3,3.9
	c0,0-3.9,4.6,0,6.5s5.9,1.3,5.9,1.3"/>
<path class="st13" d="M1620.3,382.9c0,0,3.9,4.6,8.5-1.3c0,0,2,3.3,5.2,1.3c0,0,4.6,2,4.6-2c0,0,3.9,2.6,5.2-2.6c0,0,0.7-0.7,0-3.9"
	/>
<path class="st13" d="M1671.3,318.2c0,0,2.6-2.6,5.2,0.7c0,0,5.2-4.6,8.5,3.3c0,0,5.2-0.7,3.3,5.9c0,0,4.6,0.7,2.6,4.6
	c0,0,3.9-3.3,5.9,0c0,0,5.2-3.3,8.5,2c0,0,2-2,4.6-0.7"/>
<path class="st13" d="M1681.1,308.3c0,0,5.2-2.6,6.5,0c0,0,4.6-2,6.5,2.6c0,0,5.2-4.6,8.5,2.6c0,0,2-3.3,4.6-1.3
	c0,0,2.6-4.6,6.5-2.6"/>
<path class="st13" d="M1650.4,300.5c0,0,3.9,3.3,6.5-2.6c0,0,5.2,3.9,9.8-2c0,0,2,3.9,5.9,2.6c0,0,1.3,3.3,3.3,2"/>
<path class="st13" d="M1625.5,335.2c0,0,0.7-6.5,5.9-4.6c0,0,0-5.9,5.9-3.9c0,0,1.3-5.9,6.5-3.9c0,0,2.6-3.9,6.5-0.7"/>
<path class="st16" d="M535.4,257.2v-62.1l54.1-84.1l-1-19l30-12l4-12l-8-12l36-14l16,8h258.3v-16h22c0,0,24-14,46.1,0h24v18l250.3,4
	l36,72.1h34l-24,40.1v96.1h190.2l-10,16v134.2h6v28v42.1H436.3v-52.1h4v-16h-4v-10h8V276.2l-12-16L535.4,257.2z"/>
<line class="st18" x1="444.3" y1="293.7" x2="1493.7" y2="293.7"/>
<line class="st18" x1="445.3" y1="275.2" x2="1493.7" y2="285"/>
<polygon class="st16" points="461,293.7 461.4,407.4 587.5,407.4 587.5,293.7 "/>
<polygon class="st16" points="607.9,293.7 608.5,406.4 738.7,406.4 738.7,296.3 "/>
<polyline class="st16" points="690.6,484.5 690.6,438.4 686.6,432.4 690.6,426.4 718.7,426.4 722.7,432.4 718.7,438.4 718.7,476.5 
	744.7,476.5 744.7,470.5 770.7,470.5 770.7,464.5 792.8,464.5 792.8,458.5 814.8,458.5 814.8,438.4 810.8,434.4 812.8,426.4 
	844.8,426.4 846.8,434.4 842.8,438.4 843.7,484.5 878.9,436.4 902.9,436.4 902.9,412.4 904.9,406.4 900.9,396.4 880.9,396.4 
	876.9,406.4 878.9,412.4 756.7,412.4 754.7,296.3 888.9,296.3 888.9,396.4 "/>
<line class="st16" x1="814.8" y1="441.5" x2="814.8" y2="415.5"/>
<polyline class="st16" points="878.9,436.4 878.9,412.4 902.9,412.4 "/>
<polyline class="st16" points="1059.1,436.4 1059.1,412.4 1035.1,412.4 "/>
<polyline class="st16" points="1035.1,436.4 1035.1,412.4 1059.1,412.4 "/>
<line class="st16" x1="690.6" y1="438.4" x2="718.7" y2="438.4"/>
<line class="st16" x1="814.8" y1="438.4" x2="842.8" y2="438.4"/>
<polyline class="st16" points="1247.4,484.5 1247.4,438.4 1251.4,432.4 1247.4,426.4 1219.3,426.4 1215.3,432.4 1219.3,438.4 
	1219.3,476.5 1193.3,476.5 1193.3,470.5 1167.3,470.5 1167.3,464.5 1145.2,464.5 1145.2,458.5 1123.2,458.5 1123.2,438.4 
	1127.2,434.4 1125.2,426.4 1093.2,426.4 1091.2,434.4 1095.2,438.4 1094.3,484.5 1059.1,436.4 1035.1,436.4 1035.1,412.4 
	1033.1,406.4 1037.1,396.4 1057.1,396.4 1061.1,406.4 1059.1,412.4 1181.3,412.4 1183.3,296.3 1055.1,296.3 1055.1,396.4 "/>
<rect x="1198.3" y="295.2" class="st16" width="136.2" height="118.2"/>
<polygon class="st16" points="1347.5,296.3 1347.5,414.4 1481.7,414.4 1481.7,298.3 "/>
<polyline class="st16" points="1182.6,337.1 1141.2,337.1 1141.2,412.4 1163.2,412.4 1163.2,338.3 "/>
<line class="st16" x1="1141.2" y1="362.3" x2="1181.3" y2="362.3"/>
<line class="st16" x1="1141.2" y1="384.4" x2="1182.6" y2="384.4"/>
<line class="st16" x1="1141.2" y1="400.7" x2="1181.3" y2="400.7"/>
<line class="st16" x1="1055.1" y1="314" x2="1181.3" y2="314"/>
<line class="st16" x1="1198.3" y1="314" x2="1334.5" y2="314"/>
<polyline class="st16" points="1347.5,314 1443.6,314 1481.7,298.3 "/>
<line class="st16" x1="1312.6" y1="314" x2="1312.6" y2="412.4"/>
<line class="st16" x1="1291.5" y1="314" x2="1291.5" y2="412.4"/>
<line class="st16" x1="1279.4" y1="316.3" x2="1279.4" y2="390.4"/>
<polyline class="st16" points="755.4,334.9 796.8,334.9 796.8,412.4 776.1,412.4 776.1,334.3 "/>
<line class="st16" x1="755.8" y1="360.8" x2="796.8" y2="360.8"/>
<line class="st16" x1="756.2" y1="381.7" x2="795.8" y2="381.7"/>
<line class="st16" x1="756.5" y1="397.1" x2="796.8" y2="397.1"/>
<polyline class="st16" points="900.9,396.4 900.9,296.3 968,296.3 1039.1,296.3 1039.1,396.4 "/>
<polygon class="st16" points="967,330.3 973,330.3 973,314.3 969.5,314.3 967,314.3 "/>
<line class="st16" x1="970" y1="296.3" x2="970" y2="314.3"/>
<polyline class="st16" points="900.9,296.3 929,340.3 1009.1,340.3 1039.1,296.3 "/>
<line class="st16" x1="1034.1" y1="402.6" x2="904.9" y2="402.6"/>
<line class="st16" x1="1035.1" y1="436.4" x2="902.9" y2="436.4"/>
<line class="st16" x1="1034.1" y1="408.5" x2="903.9" y2="408.5"/>
<rect x="904.9" y="448.4" class="st16" width="50.1" height="26"/>
<rect x="983" y="448.4" class="st16" width="50.1" height="26"/>
<line class="st16" x1="936" y1="341.3" x2="936" y2="401.4"/>
<line class="st16" x1="1005" y1="341.3" x2="1005" y2="402.6"/>
<rect x="951" y="376.4" class="st16" width="11.3" height="26.3"/>
<rect x="979" y="376.4" class="st16" width="11.3" height="26.3"/>
<line class="st16" x1="970" y1="340.3" x2="970" y2="402.6"/>
<line class="st16" x1="929" y1="340.3" x2="929" y2="402.6"/>
<line class="st16" x1="1009.1" y1="341.3" x2="1009.1" y2="402.6"/>
<line class="st16" x1="915.8" y1="319.6" x2="915.8" y2="402.6"/>
<line class="st16" x1="906.9" y1="308.3" x2="906.9" y2="402.4"/>
<line class="st16" x1="1021.4" y1="323.3" x2="1021.4" y2="402.6"/>
<line class="st16" x1="1030.5" y1="308.9" x2="1030.5" y2="402.6"/>
<polyline class="st16" points="906.9,408.4 906.9,428.4 902.9,428.4 "/>
<polyline class="st16" points="1031.1,408.4 1031.1,428.4 1035.1,428.4 "/>
<polyline class="st16" points="914.9,408.4 914.9,428.4 918.9,428.4 918.9,408.4 "/>
<polyline class="st16" points="926.9,408.4 926.9,428.4 931,428.4 931,408.4 "/>
<polyline class="st16" points="939,408.4 939,428.4 943,428.4 943,408.4 "/>
<polyline class="st16" points="951,408.4 951,428.4 955,428.4 955,408.4 "/>
<polyline class="st16" points="963,408.4 963,428.4 967,428.4 967,408.4 "/>
<polyline class="st16" points="977,408.4 977,428.4 981,428.4 981,408.4 "/>
<polyline class="st16" points="991,408.4 991,428.4 995,428.4 995,408.4 "/>
<polyline class="st16" points="1005,408.4 1005,428.4 1009.1,428.4 1009.1,408.4 "/>
<polyline class="st16" points="1017.1,408.4 1017.1,428.4 1021.1,428.4 1021.1,408.4 "/>
<polyline class="st16" points="1365.5,414.4 1365.5,434.4 1369.5,434.4 1369.5,414.4 "/>
<polyline class="st16" points="1377.5,414.4 1377.5,434.4 1381.5,434.4 1381.5,414.4 "/>
<polyline class="st16" points="1389.5,414.4 1389.5,434.4 1393.5,434.4 1393.5,414.4 "/>
<polyline class="st16" points="1401.6,414.4 1401.6,434.4 1405.6,434.4 1405.6,414.4 "/>
<polyline class="st16" points="1413.6,414.4 1413.6,434.4 1417.6,434.4 1417.6,414.4 "/>
<polyline class="st16" points="1427.6,414.4 1427.6,434.4 1431.6,434.4 1431.6,414.4 "/>
<polyline class="st16" points="1441.6,414.4 1441.6,434.4 1445.6,434.4 1445.6,414.4 "/>
<polyline class="st16" points="1455.6,414.4 1455.6,434.4 1459.6,434.4 1459.6,414.4 "/>
<polyline class="st16" points="1467.6,414.4 1467.6,434.4 1471.6,434.4 1471.6,414.4 "/>
<polyline class="st16" points="470.4,408.4 470.4,428.4 474.4,428.4 474.4,408.4 "/>
<polyline class="st16" points="482.4,408.4 482.4,428.4 486.4,428.4 486.4,408.4 "/>
<polyline class="st16" points="494.4,408.4 494.4,428.4 498.4,428.4 498.4,408.4 "/>
<polyline class="st16" points="506.4,408.4 506.4,428.4 510.4,428.4 510.4,408.4 "/>
<polyline class="st16" points="518.4,408.4 518.4,428.4 522.4,428.4 522.4,408.4 "/>
<polyline class="st16" points="532.4,408.4 532.4,428.4 536.4,428.4 536.4,408.4 "/>
<polyline class="st16" points="546.5,408.4 546.5,428.4 550.5,428.4 550.5,408.4 "/>
<polyline class="st16" points="560.5,408.4 560.5,428.4 564.5,428.4 564.5,408.4 "/>
<polyline class="st16" points="572.5,408.4 572.5,428.4 576.5,428.4 576.5,408.4 "/>
<polyline class="st16" points="620.6,406.4 620.6,426.4 624.6,426.4 624.6,406.4 "/>
<polyline class="st16" points="632.6,406.4 632.6,426.4 636.6,426.4 636.6,406.4 "/>
<polyline class="st16" points="644.6,406.4 644.6,426.4 648.6,426.4 648.6,406.4 "/>
<polyline class="st16" points="656.6,406.4 656.6,426.4 660.6,426.4 660.6,406.4 "/>
<polyline class="st16" points="668.6,406.4 668.6,426.4 672.6,426.4 672.6,406.4 "/>
<polyline class="st16" points="682.6,406.4 682.6,426.4 686.6,426.4 686.6,406.4 "/>
<polyline class="st16" points="696.7,406.4 696.7,426.4 700.7,426.4 700.7,406.4 "/>
<polyline class="st16" points="710.7,406.4 710.7,426.4 714.7,426.4 714.7,406.4 "/>
<polyline class="st16" points="722.7,406.4 722.7,426.4 726.7,426.4 726.7,406.4 "/>
<polyline class="st16" points="1213.3,414.4 1213.3,434.4 1217.3,434.4 1217.3,414.4 "/>
<polyline class="st16" points="1225.3,414.4 1225.3,425.4 1229.6,425.4 1229.6,414.4 "/>
<polyline class="st16" points="1238.1,414.4 1238.1,425.4 1242.4,425.4 1242.4,414.4 "/>
<polyline class="st16" points="1249.4,414.4 1249.4,434.4 1253.4,434.4 1253.4,414.4 "/>
<polyline class="st16" points="1261.4,414.4 1261.4,434.4 1265.4,434.4 1265.4,414.4 "/>
<polyline class="st16" points="1275.4,414.4 1275.4,434.4 1279.4,434.4 1279.4,414.4 "/>
<polyline class="st16" points="1289.4,414.4 1289.4,434.4 1293.4,434.4 1293.4,414.4 "/>
<polyline class="st16" points="1303.4,414.4 1303.4,434.4 1307.4,434.4 1307.4,414.4 "/>
<polyline class="st16" points="1315.4,414.4 1315.4,434.4 1319.4,434.4 1319.4,414.4 "/>
<line class="st16" x1="1334.5" y1="433.4" x2="1250.4" y2="433.4"/>
<line class="st16" x1="1351.5" y1="434.9" x2="1500.7" y2="434.9"/>
<polyline class="st16" points="1333.5,414.4 1333.5,434.4 1351.5,434.4 1351.5,414.4 1333.5,414.4 "/>
<polyline class="st16" points="1181.3,413.4 1181.3,434.4 1199.3,434.4 1199.3,413.4 1181.3,413.4 "/>
<polyline class="st16" points="738.7,407.4 738.7,428.4 756.7,428.4 756.7,407.4 738.7,407.4 "/>
<polyline class="st16" points="586.5,407.4 586.5,429.4 609.5,429.4 609.5,407.4 586.5,407.4 "/>
<polyline class="st16" points="1477.7,414.4 1477.7,433.4 1498.7,433.4 1498.7,414.4 1477.7,414.4 "/>
<line class="st16" x1="461.4" y1="428.4" x2="587.5" y2="428.4"/>
<line class="st16" x1="611.5" y1="428.4" x2="737.7" y2="428.4"/>
<line class="st16" x1="751.7" y1="428.4" x2="877.9" y2="428.4"/>
<line class="st16" x1="1060.1" y1="428.4" x2="1186.3" y2="428.4"/>
<polyline class="st16" points="437.3,415.4 461.4,415.4 461.4,407.4 "/>
<polyline class="st16" points="461.4,415.4 461.4,433.4 441.3,433.4 "/>
<polyline class="st16" points="1313.4,264.2 634.6,257.2 534.4,256.2 536.4,203.2 587.5,187.1 633.6,187.1 633.6,159.1 632.6,258.2 
	"/>
<line class="st16" x1="750.7" y1="190.1" x2="798.8" y2="190.1"/>
<line class="st16" x1="756.7" y1="190.1" x2="756.7" y2="258.5"/>
<line class="st16" x1="792.8" y1="190.1" x2="792.8" y2="258.5"/>
<polyline class="st16" points="768.7,190.1 768.7,258.5 781.7,258.5 780.8,190.1 "/>
<line class="st16" x1="756.7" y1="229.2" x2="792.8" y2="229.2"/>
<line class="st16" x1="1139.2" y1="190.1" x2="1187.3" y2="190.1"/>
<line class="st16" x1="1145.2" y1="190.1" x2="1145.2" y2="258.5"/>
<line class="st16" x1="1181.3" y1="190.1" x2="1181.3" y2="258.5"/>
<polyline class="st16" points="1157.2,190.1 1157.2,258.5 1170.2,258.5 1169.3,190.1 "/>
<line class="st16" x1="1145.2" y1="229.2" x2="1181.3" y2="229.2"/>
<polyline class="st16" points="923.9,259.2 923.9,219.2 952,219.2 952,259.2 "/>
<polyline class="st16" points="933,258.2 933,232.2 943,232.2 943,259.2 "/>
<polyline class="st16" points="999,260.2 999,234.2 1009.1,234.2 1009.1,261.2 "/>
<path class="st16" d="M953,220.2c0,0,0-18,18-20c0,0,18,0,20,18v42.7"/>
<polyline class="st13" points="1015.1,260.2 1015.1,220.2 991,220.2 "/>
<path class="st13" d="M924.9,220.2c0,0,8-42.1,46.1-44.1c0,0,36-2,44.1,44.1"/>
<polyline class="st16" points="1304.4,129 1006.6,128.5 1020.1,141.9 1329.2,141.9 1317.4,159.1 633.6,159.1 607.5,131 937,131 
	926.9,144.1 620.6,144.1 "/>
<polyline class="st16" points="924.9,131 924.9,49.9 1017.1,49.9 "/>
<polyline class="st16" points="947,33.9 947,136 991,136 991,33.9 "/>
<line class="st16" x1="926.9" y1="89.2" x2="1019.1" y2="89.2"/>
<polyline class="st13" points="926.9,41.9 1017.1,41.9 1017.1,49.9 1017.1,128.5 "/>
<polygon class="st16" points="1133.2,59.9 1135.2,72 1195.3,72 1199.3,59.9 "/>
<polygon class="st16" points="1190.3,128.5 1190.3,72 1137.2,72 1137.2,128 "/>
<line class="st16" x1="1136.2" y1="104.6" x2="1189.3" y2="104.6"/>
<polygon class="st16" points="808.8,59.9 806.8,72 746.7,72 742.7,59.9 "/>
<polygon class="st16" points="751.7,128.5 751.7,72 804.8,72 804.8,128 "/>
<line class="st16" x1="805.8" y1="104.6" x2="752.7" y2="104.6"/>
<line class="st16" x1="666.6" y1="49.9" x2="634.6" y2="128"/>
<polyline class="st16" points="618.6,80 586.5,172.1 633.4,172.1 "/>
<line class="st16" x1="534.4" y1="196.1" x2="586.5" y2="172.1"/>
<path class="st16" d="M546.5,252.2l20-8v-32c0,0-2-12-10-8c-8,4-8,16-8,16L546.5,252.2z"/>
<line class="st16" x1="590.5" y1="112" x2="610" y2="104.6"/>
<polyline class="st16" points="622.6,68 628.6,68 628.6,80 654.3,80 "/>
<polyline class="st16" points="646.6,294.5 646.6,334.3 609.5,334.3 609.5,340.3 646.6,340.3 646.6,406.4 656.6,406.4 656.6,340.3 
	694.7,340.3 694.7,406.4 702.7,406.4 702.7,340.3 736.7,340.3 738.7,340.3 738.7,333.9 702.7,333.9 702.7,295.5 694.5,295.4 
	694.7,334.3 656.6,334.3 656.6,294.7 "/>
<polyline class="st16" points="470.4,292.2 470.4,406.4 488.4,406.4 488.4,336.3 512.4,336.3 512.4,406.4 520.4,406.4 520.4,336.3 
	534.4,336.3 534.4,406.4 546.5,406.4 546.5,336.3 552.5,336.3 552.5,407.4 557.4,407.4 558.5,294.2 552.6,293.7 552.5,332.3 
	546.5,332.3 546.5,293.7 534.4,293.7 534.4,332.3 520.4,332.3 520.4,294.2 511.8,293.7 512.4,332.3 478.4,332.3 478.4,306.3 
	470.4,306.3 "/>
</svg>
