<svg id="Layer_1" data-name="Layer 1" xmlns="http://www.w3.org/2000/svg" viewBox="0 0 1920 256"><defs><style>.cls-1,.cls-3{fill:#ebe8db;}.cls-1,.cls-2,.cls-3{stroke:#bdcdc4;stroke-miterlimit:10;}.cls-1,.cls-2{stroke-width:2px;}.cls-2{fill:none;}</style></defs><title>bottom</title><path class="cls-1" d="M0,171s20,0,29,3c0,0,18-10,29-7s327-7,347,1c0,0,57,1,68,10,0,0,91-12,112-7,0,0,97-10,117,7,0,0,155-27,216-7,0,0,181-19,213,7,0,0,449-24,585,0,0,0,113-13,138,3,0,0,48-18,66-9v84H0Z"/><path class="cls-1" d="M1761.89,141.76c-.61,3,1.8,1.81,1.8,1.81-3,4.21,1.21,4.82,1.21,4.82,1.8,4.21,5.41.6,5.41.6.61,3,4.22,0,4.22,0,2.41,1.2,3.61-2.41,3.61-2.41,3.61,1.2,4.21-1.2,4.21-1.2,3.62,1.2,2.41-3,2.41-3,1.81,2.4,3.61-1.81,3.61-1.81,3.62,1.2,3.62-4.21,3.62-4.21,3.61.6,3-4.82,3-4.82,2.4-1.2,0-6,0-6,3,0,1.8-4.21,1.8-4.21,3-2.41-.6-4.82-.6-4.82,2.41-4.22-4.82-4.22-4.82-4.22,3-2.4-3.61-7.22-3.61-7.22.6-3-4.21-3-4.21-3,2.41-.6,1.8-4.82,0-4.21s-3-5.42-1.81-3.62,1.81-1.2,1.81,0,.6,1.21,3,.61-.6-3-.6-3,3,0,2.4-2.41-2.4-.6-2.4-.6c1.2-4.82-3.62-5.42-3.62-5.42,4.22,0,1.21-3.61,1.21-3.61,3.61-2.41-3-4.22-3-4.22.6-5.42-3.61-2.41-3.61-2.41-1.81-2.4-6,1.21-6,1.21,3.61-1.81-.61-5.42-.61-5.42,2.41,0,1.81-3,1.81-3,3,1.81,3.61-3.61,3.61-3.61,3-1.21-.6-6.62-.6-6.62,2.41-4.82-3-6-3-6,1.2-7.82-5.42-5.41-5.42-5.41-.6-3-3,0-3,0-1.8-2.41-3,1.8-3,1.8-6.62-6.62-5.42,1.81-5.42,1.81-3-2.41-4.21,0-4.21,0,2.41-7.83-4.22-7.23-4.22-7.23.61-6-4.21-3.61-4.21-3.61,1.2-4.21-3.61-3-3.61-3,.6-2.41-1.81-1.8-1.81-1.8,1.21-4.82-4.21-2.41-4.21-2.41-2.41-1.81-3,1.2-3,1.2a3.69,3.69,0,0,0-1.21-3.61c-1.8-1.81-3.61,1.81-3.61,1.81,1.21-3.62-1.2-3-1.2-3,1.8-4.22-2.41-4.82-2.41-4.82-2.41-4.82-4.82-.6-4.82-.6-3.61-3-4.81,1.2-4.81,1.2-6-2.41-5.42,3.61-5.42,3.61-7.22-1.2-5.42,5.42-5.42,5.42-4.81-1.8-4.21,3-4.21,3s-4.22-1.8-6,1.21c0,0-3,.6-4.82,4.81,0,0-2.41-3-5.42.6,0,0-4.81-2.4-4.81,2.41,0,0-4.22,2.41-1.21,4.82,0,0-2.41,0-1.2,2.41,0,0-1.81-1.21-2.41,1.8,0,0-3.61-1.2-3.61,2.41,0,0-4.82,1.81-2.41,4.82,0,0-2.41,3,1.2,7.82,0,0-1.2-1.2-1.8,1.21s1.2,2.41,1.2,2.41-.6,2.4,1.21,3c0,0-1.81.6-1.21,3.61,0,0-3.61-1.21-4.81.6,0,0-1.81-3-3.62-.6,0,0-3-2.41-5.41.6,0,0-2.41-1.81-3,1.81,0,0-5.42-3-6,2.4,0,0-3.62-.6-2.41,2.41,0,0-3,3,0,4.82a4.1,4.1,0,0,0,0,4.81,6.48,6.48,0,0,0,4.81,2.41s-3,.6-3,3c0,0-4.21-1.2-3.61,2.41s.6,1.81.6,1.81-4.21.6-3.61,4.21a5.3,5.3,0,0,0,4.22,4.21s-3.62.61-3,3.62,3,3,3,3-3,.6-1.81,3c0,0-3,4.21,1.2,5.42,0,0-1.2,3,.61,3.61a9,9,0,0,0,4.21,0s-.6,3,1.81,3c0,0-.61,3,1.8,3,0,0-1.2,2.41,2.41,3.61,0,0-1.2,2.41,1.2,2.41,0,0-.6,1.8,2.41,1.2l3-.6h0s-.6,3.61,3,1.81c0,0,1.81,2.4,4.22-.61,0,0,0,3.62,4.81,3,0,0-1.2,4.82,2.41,3.62,0,0,0,3.61,3.61,2.4,0,0-1.2,4.82,2.41,3a1.94,1.94,0,0,0,3,1.21s4.82,3,5.42-3c0,0,1.8,2.41,3.61-.6,0,0,1.81,3,3.61-1.21,0,0,2.41-.6,1.81-2.41,0,0,.6,2.41,2.41.61,0,0,3.61,3,5.42,0,0,0,3,1.2,4.21-1.21,0,0,2.41,1.21,3-1.8,0,0,1.81,3,3-.61"/><path class="cls-1" d="M1709.21,144.47l6,7.83s1.2,6,1.8,7.83-.6,9.63-.6,9.63-.6,6.62-.6,9,1.81,12-5.42,17.46c0,0,3-1.81,4.82-1.21s1.2,3,2.41,2.41.6-1.81,1.8-1.81,4.22,3,4.82,2.41-.6-2.41-.6-2.41.6-1.8,3,0c0,0,1.2,0,1.2-.6,0,0-4.82-4.21-4.82-6.62V180a96.53,96.53,0,0,0,0-21.67s.61-6,3.62-7.83a14.83,14.83,0,0,0,4.81-5.42s2.41-3.61,3.62-4.21a13.61,13.61,0,0,0,3-3,18,18,0,0,1,3.61-1.81s1.8.61,2.41,0c0,0-1.81,0-1.81-.6s1.2-1.2,1.2-1.2a9.77,9.77,0,0,0-3,1.2l-3.61,1.81s-1.2.6-1.2-1.81V133c0-.6-.6,1.81-.6,3s-1.21-2.4-1.21-2.4.6,4.21,1.21,4.21-1.21,3.61-2.41,3.61-3,3-4.22,3.61-4.21,6-5.42,4.22.61-5.42.61-5.42,2.4-6,2.4-6.62,9.64-12.64,11.44-13.25h.61a.82.82,0,0,1,0-1.2s-1.81,0-1.21-.6-1.2,3-2.41,3-3,2.41-3,2.41l-7.22,9s-.6-6,0-7.23,0-3.61,0-3.61a6.57,6.57,0,0,0,1.2-2.41c.6-1.8,3.62-6,4.22-8.43,0,0,0-1.2,1.8-1.2,0,0,5.42-3.61,6.63-3,.54.27.84-.43,1-1.29a.58.58,0,0,0-1-.45c-.46.61-.92,1.14-1.17,1.14a11.81,11.81,0,0,0-5.42,2.41,3.9,3.9,0,0,0-3,1.8c-1.2,1.81-1.8-.6-1.8-.6s2.41-4.21,4.21-4.21a2.6,2.6,0,0,0,2.41-1.21l.6-.6-1.2-.6a10.17,10.17,0,0,0-3,1.2c-.6.6-1.81,0-1.81,0s-1.81,1.81,2.41-7.22l-1.2-1.21s-2.41,4.82-2.41,7.23-.61,6.62-1.21,6a7,7,0,0,1-1.2-4.22c0-1.8,1.2-1.8.6-3s-1.2-1.2-1.2-2.4-.61-3-.61-4.22-3-4.81-2.4-6l-.61-1.2s-1.2,1.2-1.8.6c0,0,.6.6,1.2,4.21s3.61,9,3.61,9-.6,1.81-.6,7.23,0,13.24-.6,13.84-1.81,3.62-3,.61a40,40,0,0,1-1.81-7.83l-.6-9V109a7.18,7.18,0,0,1-1.2-3c-.6-2.4,0-7.82-.6-9s2.4-12.64,4.81-11.43c0,0-3.61,0-3-2.41s-3,6-3,6,0,5.42-1.8,5.42h-1.81s-.6-2.41-1.2-2.41-1.21-10.24-.61-10.24-.6.6-1.2-.6,0,9.63,0,9.63-1.2-1.8-2.41-1.8-6-3.61-6-3.61,1.21,1.8,0,2.4c0,0,0,1.21,1.81,1.81s4.81,3,5.42,2.41,1.2,3.61,3,4.81-.61-.6,3,9c0,0-.61,3.62,0,5.42s-1.81-1.8-4.82-4.81a49.67,49.67,0,0,1-5.42-6.63s-5.42-2.4-5.42-4.81c0,0,0,.6-1.2.6,0,0,.6,2.41,0,2.41s6.62,4.21,7.83,6,8.42,9.63,8.42,9.63,5.42,9.63-2.4,3c0,0-9-2.41-10.24-4.82l-1.2-1.2-.6,1.2.6,2.41s6,3,8.43,3,4.81,7.23,8.42,7.83c0,0,5.42,15,3,14.45s-7.82-6.63-8.42-5.42-3-2.41-6.63-4.22a25.42,25.42,0,0,1-6-4.21s-1.8-2.41-3-4.21a4.67,4.67,0,0,0-3.61-1.81s6,6.62,5.42,7.22-4.82-2.4-4.82-2.4.61,1.8-.6,1.8,2.41,1.21,3.61,1.81,8.43,4.81,10.84,5.42,1.81,2.4,3.61,3,2.41,4.21,5.42,4.81,3.61,7.23,3.61,7.23-4.21-3-5.42-5.42-3.61-3-3.61-4.82l-.6,2.41Z"/><path class="cls-1" d="M1696.87,81s3,7.83,9.63,0c0,0,2.41,3,6.62.6a8.45,8.45,0,0,0,3.61-3s-1.2,1.81,0,2.41c0,0-2.4,0,0,2.41,0,0-1.8,1.8,2.41,2.41a2.68,2.68,0,0,0,3-1.21s0,4.82,3,4.22c0,0,0,.6,1.81-.61"/><path class="cls-1" d="M1716,90.18s.78,4.63,4.4,1.62c0,0,.6,3,3,1.8,0,0-.61,3.61,3,1.21,0,0-1.21,4.81,3,2.4,0,0-1.21,6,4.21,2.41,0,0,1.81,4.22,5.42.6"/><path class="cls-1" d="M1749.24,98.42s4.82-1.21,3.61,3c0,0,1.21,0,1.81,1.8,0,0,3-.6,2.41,1.81,0,0,4.82-.6,4.82,3.61,0,0,1.8,3,0,4.82,0,0,.6,4.21-2.41,3.61,0,0,.6,2.41-1.81,2.41"/><path class="cls-1" d="M1733,120.09a2.31,2.31,0,0,0,2,1.27,1.73,1.73,0,0,1,1.54,1c.2.34.64.57,1.53.42a.76.76,0,0,1,.87.65,1,1,0,0,0,.94,1,.77.77,0,0,1,.68.88c-.17,1-.14,2.44,1.44,2"/><path class="cls-1" d="M1740.81,137s1.21,6,5.42,2.41c0,0,0,4.81,5.42,1.2,0,0,1.81,3.61,4.82.6,0,0,.6,3.61,3.61.6a2.75,2.75,0,0,0,2-.08c.57-.35.91-1.16.41-2.93a2.12,2.12,0,0,0,3-.6s3,1.21,3.61-1.8a1.79,1.79,0,0,0,1.81-2.41"/><path class="cls-1" d="M1662,103.23s0,4.22,5.42,1.81c0,0,1.2,4.82,5.42,1.81,0,0,3,4.21,6-1.21,0,0,0,4.22,4.21,3,0,0-1.81,3,1.2,3.61,0,0-3.61,4.22,0,6s5.42,1.2,5.42,1.2"/><path class="cls-1" d="M1668,130.33s3.61,4.21,7.83-1.21a3.43,3.43,0,0,0,4.81,1.21s4.22,1.8,4.22-1.81c0,0,3.61,2.41,4.81-2.41,0,0,.6-.6,0-3.61"/><path class="cls-1" d="M1714.93,70.73s2.41-2.41,4.81.6c0,0,4.82-4.22,7.83,3,0,0,4.82-.6,3,5.42,0,0,4.21.6,2.41,4.21,0,0,3.61-3,5.42,0,0,0,4.81-3,7.82,1.81a3.74,3.74,0,0,1,4.22-.61"/><path class="cls-1" d="M1724,61.7s4.81-2.41,6,0c0,0,4.21-1.81,6,2.4,0,0,4.81-4.21,7.82,2.41,0,0,1.81-3,4.22-1.2,0,0,2.41-4.22,6-2.41"/><path class="cls-1" d="M1695.66,54.47s3.62,3,6-2.41c0,0,4.82,3.62,9-1.8,0,0,1.81,3.61,5.42,2.41,0,0,1.21,3,3,1.8"/><path class="cls-1" d="M1672.79,86.38s.6-6,5.41-4.22c0,0,0-5.41,5.42-3.61,0,0,1.21-5.42,6-3.61a3.86,3.86,0,0,1,6-.6"/><path class="cls-1" d="M1753.16,112s3,1.81,3.06-1.7c0,0,2,1.13,2.49-.82,0,0,1.75,2.1,2.15-1.11,0,0,2.13,3,2.83-.53,0,0,2.81,3.62,3.41-1.21,0,0,3.27,1,3-2.77"/><path class="cls-2" d="M1782.05,163.27s.27,3.7-2.68,2.26c0,0-.15.89-1.56,1.1,0,0,0,2.29-1.64,1.54,0,0-.18,3.62-3.28,3.07,0,0-2.45.94-3.54-.62,0,0-3.18-.11-2.34-2.24,0,0-1.85.13-1.54-1.64"/><path class="cls-2" d="M1747.61,145.58s0,3.7-2.86,2c0,0-.23.86-1.65.95,0,0-.14,2.28-1.76,1.39,0,0-.48,3.58-3.53,2.78,0,0-2.52.72-3.48-.92,0,0-3.16-.37-2.15-2.42,0,0-1.86,0-1.4-1.76"/><path class="cls-1" d="M1769.42,159.28c.57,2.2-.88,1.45-.88,1.45,2,3-.31,3.65-.31,3.65-.69,3.23-3,.77-3,.77-.11,2.27-2.38.25-2.38.25-1.27,1-2.23-1.57-2.23-1.57-1.95,1.1-2.48-.65-2.48-.65-2,1.11-1.6-2.09-1.6-2.09-.83,1.9-2.18-1.12-2.18-1.12-1.95,1.1-2.37-2.92-2.37-2.92-2,.66-2.08-3.39-2.08-3.39-1.46-.76-.47-4.47-.47-4.47-1.7.17-1.35-3-1.35-3-1.89-1.6,0-3.61,0-3.61-1.69-3,2.39-3.41,2.39-3.41-1.89-1.61,1.48-5.58,1.48-5.58-.58-2.2,2.14-2.49,2.14-2.49-1.4-.3-1.39-3.47-.33-3.13s1.28-4.2.74-2.79-1.11-.78-1,.11-.24.93-1.65.63.1-2.28.1-2.28a1.38,1.38,0,0,1-1.55-1.64c.15-1.82,1.32-.59,1.32-.59-1.06-3.5,1.61-4.24,1.61-4.24-2.38.25-1-2.61-1-2.61-2.23-1.57,1.37-3.31,1.37-3.31-.76-4,1.85-2,1.85-2,.84-1.9,3.5.53,3.5.53-2.18-1.12-.08-4-.08-4-1.36.14-1.26-2.13-1.26-2.13-1.56,1.52-2.32-2.47-2.32-2.47-1.8-.71-.18-4.95-.18-4.95-1.74-3.43,1.23-4.65,1.23-4.65-1.3-5.74,2.64-4.35,2.64-4.35.1-2.27,1.7-.18,1.7-.18.83-1.89,1.84,1.16,1.84,1.16,3.22-5.31,3.2,1,3.2,1,1.52-2,2.39-.25,2.39-.25-2-5.67,1.81-5.61,1.81-5.61-.81-4.44,2.1-2.94,2.1-2.94-1-3,1.81-2.45,1.81-2.45-.53-1.75.88-1.45.88-1.45-1.06-3.5,2.19-2,2.19-2,1.22-1.48,1.8.72,1.8.72a3.35,3.35,0,0,1,.39-2.75c.88-1.45,2.19,1.12,2.19,1.12-1-2.61.44-2.31.44-2.31-1.35-3,1-3.72,1-3.72,1-3.71,2.68-.73,2.68-.73,1.81-2.45,2.82.61,2.82.61,3.21-2.15,3.34,2.36,3.34,2.36,4-1.33,3.49,3.7,3.49,3.7,2.58-1.63,2.62,2,2.62,2s2.24-1.59,3.49.54c0,0,1.75.26,3.1,3.28,0,0,1.13-2.37,3.11.13,0,0,2.54-2.08,2.91,1.5,0,0,2.57,1.54,1.06,3.5,0,0,1.36-.14.87,1.72,0,0,.93-1,1.5,1.2,0,0,2-1.11,2.23,1.57,0,0,2.87,1,1.74,3.43,0,0,1.6,2.09-.07,5.89,0,0,.59-1,1.12.78s-.49,1.86-.49,1.86.53,1.75-.45,2.31c0,0,1.07.34,1,2.61,0,0,2-1.11,2.77.16,0,0,.79-2.34,2-.66a1.82,1.82,0,0,1,3.11.12s1.22-1.48,1.84,1.16c0,0,2.83-2.56,3.59,1.43,0,0,2-.66,1.55,1.64,0,0,1.94,2.06.38,3.58a3.87,3.87,0,0,1,.38,3.58,3.39,3.39,0,0,1-2.54,2.07,2.36,2.36,0,0,1,1.94,2.06s2.29-1.15,2.23,1.57-.2,1.38-.2,1.38a2.65,2.65,0,0,1,2.37,2.91,3.42,3.42,0,0,1-2,3.38,2.28,2.28,0,0,1,2,2.5c-.11,2.27-1.47,2.42-1.47,2.42a1.58,1.58,0,0,1,1.26,2.13s2,3-.26,4.09c0,0,.92,2.16-.06,2.72a4,4,0,0,1-2.38.25s.58,2.2-.78,2.34c0,0,.57,2.2-.79,2.34a2.12,2.12,0,0,1-1.08,2.83s.87,1.72-.49,1.86c0,0,.48,1.31-1.27,1l-1.74-.27h0s.62,2.65-1.56,1.52c0,0-.84,1.9-2.43-.19a2.21,2.21,0,0,1-2.49,2.52s1.06,3.5-1.08,2.82c0,0,.28,2.68-1.85,2,0,0,1.06,3.5-1.13,2.37,0,0-.15,1.83-1.6,1.08,0,0-2.49,2.52-3.3-1.91,0,0-.83,1.89-2.09-.24,0,0-.79,2.35-2.14-.67a1.53,1.53,0,0,1-1.21-1.68s-.15,1.82-1.31.59c0,0-1.81,2.45-3.06.32a1.65,1.65,0,0,1-2.48-.64s-1.27,1-1.84-1.17c0,0-.79,2.35-1.75-.26"/><path class="cls-1" d="M1768.38,100.57s-3.76.44-4.41-.89c0,0-3.26.24-4.17-2,0,0-3.93,1.3-5.5-2.29a2.76,2.76,0,0,1-3.2,0,4.38,4.38,0,0,1-4.64.25"/><path class="cls-1" d="M1770.82,107.35s3.51.25,2.6-4.09c0,0,4.49.09,4.68-5,0,0,2.67,1.39,4.33-.91,0,0,2,1.29,2.61-.22"/><path class="cls-2" d="M1795.83,143.91s0,4.51-3.74,3.5c0,0,.37,4-3.78,3.06,0,0-.52,4.11-4.23,3.1a2.88,2.88,0,0,1-4.43.86"/><path class="cls-1" d="M1794.77,157.48l-4.49,5.84s-.9,4.5-1.35,5.85.45,7.19.45,7.19.45,4.94.45,6.74-1.35,9,4,13c0,0-2.25-1.34-3.59-.89s-.9,2.24-1.8,1.79-.45-1.35-1.35-1.35-3.15,2.25-3.6,1.8.45-1.8.45-1.8-.45-1.34-2.24,0c0,0-.9,0-.9-.44,0,0,3.59-3.15,3.59-5V184a72.95,72.95,0,0,1,0-16.18s-.45-4.5-2.69-5.85a11.17,11.17,0,0,1-3.6-4s-1.8-2.7-2.7-3.15a10,10,0,0,1-2.24-2.25,13.53,13.53,0,0,0-2.7-1.34s-1.35.45-1.8,0c0,0,1.35,0,1.35-.45s-.9-.9-.9-.9a7.27,7.27,0,0,1,2.25.9l2.69,1.34s.9.45.9-1.34v-1.8c0-.45.45,1.35.45,2.25s.9-1.8.9-1.8-.45,3.14-.9,3.14.9,2.7,1.8,2.7,2.25,2.25,3.15,2.7,3.14,4.49,4,3.14-.45-4-.45-4-1.79-4.5-1.79-4.95-7.2-9.43-8.55-9.88h-.44a.63.63,0,0,0,0-.9s1.34,0,.89-.45.9,2.24,1.8,2.24,2.25,1.8,2.25,1.8l5.39,6.75s.45-4.5,0-5.4a2.17,2.17,0,0,1,0-1.8,3.6,3.6,0,0,1-.9-2.69,7.63,7.63,0,0,0,0-4.5s-5.84-1.8-7.19-3.14a2,2,0,0,0-2.69-.9c-.41.2-.18-1.23-.3-1.87a.43.43,0,0,1,.77-.33c.34.46,1.14.4,1.32.4.45,0,1.8.9,3.6,2.25a4.87,4.87,0,0,0,3.6,1.79c1.62,0-5-4.94-5-4.94v-.45l1.8.45s2.7.45.45-5.39l.9-.9s1.8,3.59,1.8,5.39.45,4.94.89,4.5a5.24,5.24,0,0,0,.9-3.15c0-1.35-.9-1.35-.45-2.25s.9-.9.9-1.8.45-2.24.45-3.14,2.25-3.6,1.8-4.5l.45-.9s.9.9,1.35.45c0,0-.45.45-.9,3.15a27.81,27.81,0,0,1-2.7,6.74,20.14,20.14,0,0,1,.45,5.4c0,4,0,9.88.45,10.33s1.35,2.7,2.25.45a29.38,29.38,0,0,0,1.35-5.84l.45-6.74V131a5.37,5.37,0,0,0,.9-2.25c.45-1.8,0-5.84.45-6.74s-1.8-9.44-3.6-8.54c0,0,2.7,0,2.25-1.8s2.24,4.5,2.24,4.5,0,4,1.35,4h1.35s.45-1.8.9-1.8.9-7.64.45-7.64.45.45.9-.45,0,7.19,0,7.19.9-1.34,1.8-1.34,4.49-2.7,4.49-2.7-.9,1.35,0,1.8c0,0,0,.9-1.35,1.35s-3.59,2.24-4,1.79-.9,2.7-2.25,3.6.45-.45-2.25,6.74a11.49,11.49,0,0,1,0,4c-.45,1.35,1.35-1.35,3.6-3.6a36.94,36.94,0,0,0,4-4.94s4.05-1.8,4.05-3.6c0,0,0,.45.9.45,0,0-.45,1.8,0,1.8s-5,3.14-5.84,4.49-6.3,7.19-6.3,7.19-4,7.2,1.8,2.25c0,0,6.74-1.8,7.64-3.59l.9-.9.45.9-.45,1.79s-4.49,2.25-6.29,2.25-3.6,5.4-6.3,5.84c0,0-4,11.24-2.24,10.79s5.84-4.94,6.29-4,2.25-1.8,4.94-3.15a19.07,19.07,0,0,0,4.5-3.15s1.35-1.79,2.25-3.14a3.49,3.49,0,0,1,2.69-1.35s-4.49,4.94-4,5.39,3.59-1.79,3.59-1.79-.45,1.34.45,1.34-1.79.9-2.69,1.35-6.3,3.6-8.09,4-1.35,1.8-2.7,2.25-1.8,3.14-4,3.59-2.69,5.39-2.69,5.39,3.14-2.24,4-4,2.7-2.25,2.7-3.6l.45,1.8Z"/><path class="cls-1" d="M1763.86,122.67s-1.45,4.36,2.69,3.64c0,0-1.8,3.11,3.15,2.86a2.14,2.14,0,0,0,3,2.25s-1,2.56,2.17,1.77a2.16,2.16,0,0,0,1.36.72c.51,0,1-.4,1.37-1.73a1.65,1.65,0,0,0,2.22.76s1.54,1.94,3.07.23a1.35,1.35,0,0,0,2.1-.86"/><path class="cls-1" d="M82.06,132.65v-17.3L97.13,91.91l-.28-5.3,8.37-3.35,1.12-3.35-2.24-3.35,10.05-3.91,4.47,2.24h72V70.42h6.14s6.7-3.91,12.84,0h6.7v5l69.76,1.12L296.1,96.65h9.49l-6.7,11.17v26.79h53l-2.79,4.46v37.4h1.68V196H54.43V181.49h1.12V177H54.43v-2.79h2.23V138l-3.34-4.46Z"/><line class="cls-3" x1="56.66" y1="142.83" x2="349.12" y2="142.83"/><line class="cls-3" x1="56.94" y1="137.68" x2="349.12" y2="140.4"/><polygon class="cls-1" points="61.32 142.83 61.41 174.51 96.57 174.51 96.57 142.83 61.32 142.83"/><polygon class="cls-1" points="102.25 142.83 102.43 174.23 138.71 174.23 138.71 143.54 102.25 142.83"/><polyline class="cls-1" points="125.31 196 125.31 183.16 124.2 181.49 125.31 179.81 133.13 179.81 134.24 181.49 133.13 183.16 133.13 193.77 140.38 193.77 140.38 192.09 147.64 192.09 147.64 190.42 153.78 190.42 153.78 188.74 159.92 188.74 159.92 183.16 158.8 182.05 159.36 179.81 168.29 179.81 168.85 182.05 167.73 183.16 167.99 196 177.78 182.6 184.47 182.6 184.47 175.91 185.03 174.23 183.92 171.44 178.34 171.44 177.22 174.23 177.78 175.91 143.73 175.91 143.17 143.54 180.57 143.54 180.57 171.44"/><line class="cls-1" x1="159.93" y1="196" x2="159.93" y2="188.74"/><polyline class="cls-1" points="177.78 182.6 177.78 175.91 184.47 175.91"/><polyline class="cls-1" points="228.01 182.6 228.01 175.91 221.31 175.91"/><polyline class="cls-1" points="221.31 182.6 221.31 175.91 228.01 175.91"/><line class="cls-1" x1="125.31" y1="183.16" x2="133.13" y2="183.16"/><line class="cls-1" x1="159.92" y1="183.16" x2="167.73" y2="183.16"/><polyline class="cls-1" points="280.47 196 280.47 183.16 281.59 181.49 280.47 179.81 272.66 179.81 271.54 181.49 272.66 183.16 272.66 193.77 265.4 193.77 265.4 192.09 258.15 192.09 258.15 190.42 252.01 190.42 252.01 188.74 245.87 188.74 245.87 183.16 246.99 182.05 246.43 179.81 237.5 179.81 236.94 182.05 238.06 183.16 237.8 196 228.01 182.6 221.31 182.6 221.31 175.91 220.75 174.23 221.87 171.44 227.45 171.44 228.57 174.23 228.01 175.91 262.06 175.91 262.61 143.54 226.89 143.54 226.89 171.44"/><rect class="cls-1" x="266.8" y="143.26" width="37.95" height="32.93"/><polygon class="cls-1" points="308.38 143.54 308.38 176.47 345.77 176.47 345.77 144.09 308.38 143.54"/><polyline class="cls-1" points="262.42 154.93 250.89 154.93 250.89 175.91 257.02 175.91 257.02 155.26"/><line class="cls-1" x1="250.89" y1="161.95" x2="262.06" y2="161.95"/><line class="cls-1" x1="250.89" y1="168.09" x2="262.42" y2="168.09"/><line class="cls-1" x1="250.89" y1="172.65" x2="262.06" y2="172.65"/><line class="cls-1" x1="226.89" y1="148.49" x2="262.06" y2="148.49"/><line class="cls-1" x1="266.8" y1="148.49" x2="304.75" y2="148.49"/><polyline class="cls-1" points="308.38 148.49 335.17 148.49 345.77 144.09"/><line class="cls-1" x1="298.65" y1="148.49" x2="298.65" y2="175.91"/><line class="cls-1" x1="292.77" y1="148.49" x2="292.77" y2="175.91"/><line class="cls-1" x1="289.4" y1="149.12" x2="289.4" y2="169.77"/><polyline class="cls-1" points="143.36 154.31 154.9 154.31 154.9 175.91 149.13 175.91 149.13 154.14"/><line class="cls-1" x1="143.48" y1="161.53" x2="154.89" y2="161.53"/><line class="cls-1" x1="143.58" y1="167.34" x2="154.62" y2="167.34"/><line class="cls-1" x1="143.66" y1="171.64" x2="154.89" y2="171.64"/><polyline class="cls-1" points="183.92 171.44 183.92 143.54 202.62 143.54 222.43 143.54 222.43 171.44"/><polygon class="cls-1" points="202.34 153.02 204.01 153.02 204.01 148.56 203.03 148.56 202.34 148.56 202.34 153.02"/><line class="cls-1" x1="203.17" y1="143.54" x2="203.17" y2="148.56"/><polyline class="cls-1" points="183.92 143.54 191.73 155.81 214.06 155.81 222.43 143.54"/><line class="cls-1" x1="221.03" y1="173.18" x2="185.03" y2="173.18"/><line class="cls-1" x1="221.31" y1="182.6" x2="184.48" y2="182.6"/><line class="cls-1" x1="221.03" y1="174.82" x2="184.75" y2="174.82"/><rect class="cls-1" x="185.03" y="185.95" width="13.95" height="7.26"/><rect class="cls-1" x="206.8" y="185.95" width="13.95" height="7.26"/><line class="cls-1" x1="193.68" y1="156.09" x2="193.68" y2="172.84"/><line class="cls-1" x1="212.94" y1="156.09" x2="212.94" y2="173.19"/><rect class="cls-1" x="197.87" y="165.86" width="3.14" height="7.33"/><rect class="cls-1" x="205.68" y="165.86" width="3.14" height="7.33"/><line class="cls-1" x1="203.17" y1="155.81" x2="203.17" y2="173.19"/><line class="cls-1" x1="191.73" y1="155.81" x2="191.73" y2="173.19"/><line class="cls-1" x1="214.06" y1="156.09" x2="214.06" y2="173.19"/><line class="cls-1" x1="188.05" y1="150.04" x2="188.05" y2="173.19"/><line class="cls-1" x1="185.59" y1="146.88" x2="185.59" y2="173.12"/><line class="cls-1" x1="217.49" y1="151.07" x2="217.49" y2="173.19"/><line class="cls-1" x1="220.02" y1="147.07" x2="220.02" y2="173.19"/><polyline class="cls-1" points="185.59 174.79 185.59 180.37 184.47 180.37"/><polyline class="cls-1" points="220.2 174.79 220.2 180.37 221.31 180.37"/><polyline class="cls-1" points="187.82 174.79 187.82 180.37 188.94 180.37 188.94 174.79"/><polyline class="cls-1" points="191.17 174.79 191.17 180.37 192.29 180.37 192.29 174.79"/><polyline class="cls-1" points="194.52 174.79 194.52 180.37 195.64 180.37 195.64 174.79"/><polyline class="cls-1" points="197.87 174.79 197.87 180.37 198.99 180.37 198.99 174.79"/><polyline class="cls-1" points="201.22 174.79 201.22 180.37 202.34 180.37 202.34 174.79"/><polyline class="cls-1" points="205.13 174.79 205.13 180.37 206.24 180.37 206.24 174.79"/><polyline class="cls-1" points="209.03 174.79 209.03 180.37 210.15 180.37 210.15 174.79"/><polyline class="cls-1" points="212.94 174.79 212.94 180.37 214.06 180.37 214.06 174.79"/><polyline class="cls-1" points="216.29 174.79 216.29 180.37 217.41 180.37 217.41 174.79"/><polyline class="cls-1" points="313.4 176.47 313.4 182.05 314.52 182.05 314.52 176.47"/><polyline class="cls-1" points="316.75 176.47 316.75 182.05 317.87 182.05 317.87 176.47"/><polyline class="cls-1" points="320.1 176.47 320.1 182.05 321.22 182.05 321.22 176.47"/><polyline class="cls-1" points="323.45 176.47 323.45 182.05 324.57 182.05 324.57 176.47"/><polyline class="cls-1" points="326.8 176.47 326.8 182.05 327.92 182.05 327.92 176.47"/><polyline class="cls-1" points="330.7 176.47 330.7 182.05 331.82 182.05 331.82 176.47"/><polyline class="cls-1" points="334.61 176.47 334.61 182.05 335.73 182.05 335.73 176.47"/><polyline class="cls-1" points="338.52 176.47 338.52 182.05 339.63 182.05 339.63 176.47"/><polyline class="cls-1" points="341.87 176.47 341.87 182.05 342.98 182.05 342.98 176.47"/><polyline class="cls-1" points="63.92 174.79 63.92 180.37 65.04 180.37 65.04 174.79"/><polyline class="cls-1" points="67.27 174.79 67.27 180.37 68.39 180.37 68.39 174.79"/><polyline class="cls-1" points="70.62 174.79 70.62 180.37 71.73 180.37 71.73 174.79"/><polyline class="cls-1" points="73.97 174.79 73.97 180.37 75.08 180.37 75.08 174.79"/><polyline class="cls-1" points="77.31 174.79 77.31 180.37 78.43 180.37 78.43 174.79"/><polyline class="cls-1" points="81.22 174.79 81.22 180.37 82.34 180.37 82.34 174.79"/><polyline class="cls-1" points="85.13 174.79 85.13 180.37 86.25 180.37 86.25 174.79"/><polyline class="cls-1" points="89.03 174.79 89.03 180.37 90.15 180.37 90.15 174.79"/><polyline class="cls-1" points="92.38 174.79 92.38 180.37 93.5 180.37 93.5 174.79"/><polyline class="cls-1" points="105.78 174.23 105.78 179.81 106.9 179.81 106.9 174.23"/><polyline class="cls-1" points="109.13 174.23 109.13 179.81 110.24 179.81 110.24 174.23"/><polyline class="cls-1" points="112.48 174.23 112.48 179.81 113.59 179.81 113.59 174.23"/><polyline class="cls-1" points="115.83 174.23 115.83 179.81 116.94 179.81 116.94 174.23"/><polyline class="cls-1" points="119.17 174.23 119.17 179.81 120.29 179.81 120.29 174.23"/><polyline class="cls-1" points="123.08 174.23 123.08 179.81 124.2 179.81 124.2 174.23"/><polyline class="cls-1" points="126.99 174.23 126.99 179.81 128.1 179.81 128.1 174.23"/><polyline class="cls-1" points="130.9 174.23 130.9 179.81 132.01 179.81 132.01 174.23"/><polyline class="cls-1" points="134.24 174.23 134.24 179.81 135.36 179.81 135.36 174.23"/><polyline class="cls-1" points="270.99 176.47 270.99 182.05 272.1 182.05 272.1 176.47"/><polyline class="cls-1" points="274.33 176.47 274.33 179.53 275.52 179.53 275.52 176.47"/><polyline class="cls-1" points="277.89 176.47 277.89 179.53 279.08 179.53 279.08 176.47"/><polyline class="cls-1" points="281.03 176.47 281.03 182.05 282.15 182.05 282.15 176.47"/><polyline class="cls-1" points="284.38 176.47 284.38 182.05 285.5 182.05 285.5 176.47"/><polyline class="cls-1" points="288.29 176.47 288.29 182.05 289.4 182.05 289.4 176.47"/><polyline class="cls-1" points="292.19 176.47 292.19 182.05 293.31 182.05 293.31 176.47"/><polyline class="cls-1" points="296.1 176.47 296.1 182.05 297.22 182.05 297.22 176.47"/><polyline class="cls-1" points="299.45 176.47 299.45 182.05 300.57 182.05 300.57 176.47"/><line class="cls-1" x1="304.75" y1="181.77" x2="281.31" y2="181.77"/><line class="cls-1" x1="309.5" y1="182.17" x2="351.08" y2="182.17"/><polyline class="cls-1" points="304.47 176.47 304.47 182.05 309.5 182.05 309.5 176.47 304.47 176.47"/><polyline class="cls-1" points="262.06 176.19 262.06 182.05 267.08 182.05 267.08 176.19 262.06 176.19"/><polyline class="cls-1" points="138.71 174.51 138.71 180.37 143.73 180.37 143.73 174.51 138.71 174.51"/><polyline class="cls-1" points="96.29 174.51 96.29 180.65 102.71 180.65 102.71 174.51 96.29 174.51"/><polyline class="cls-1" points="344.66 176.47 344.66 181.77 350.52 181.77 350.52 176.47 344.66 176.47"/><line class="cls-1" x1="61.41" y1="180.37" x2="96.57" y2="180.37"/><line class="cls-1" x1="103.27" y1="180.37" x2="138.43" y2="180.37"/><line class="cls-1" x1="142.34" y1="180.37" x2="177.5" y2="180.37"/><line class="cls-1" x1="228.29" y1="180.37" x2="263.45" y2="180.37"/><polyline class="cls-1" points="54.71 176.75 61.41 176.75 61.41 174.51"/><polyline class="cls-1" points="61.41 176.75 61.41 181.77 55.83 181.77"/><polyline class="cls-1" points="298.89 134.61 109.69 132.66 81.78 132.37 82.34 117.61 96.57 113.12 109.41 113.12 109.41 105.3 109.13 132.93"/><line class="cls-1" x1="142.06" y1="113.96" x2="155.45" y2="113.96"/><line class="cls-1" x1="143.73" y1="113.96" x2="143.73" y2="133.01"/><line class="cls-1" x1="153.78" y1="113.96" x2="153.78" y2="133.01"/><polyline class="cls-1" points="147.08 113.95 147.08 133.01 150.7 133.01 150.43 113.95"/><line class="cls-1" x1="143.73" y1="124.85" x2="153.78" y2="124.85"/><line class="cls-1" x1="250.33" y1="113.96" x2="263.73" y2="113.96"/><line class="cls-1" x1="252.01" y1="113.96" x2="252.01" y2="133.01"/><line class="cls-1" x1="262.06" y1="113.96" x2="262.06" y2="133.01"/><polyline class="cls-1" points="255.36 113.95 255.36 133.01 258.98 133.01 258.71 113.95"/><line class="cls-1" x1="252.01" y1="124.85" x2="262.06" y2="124.85"/><polyline class="cls-1" points="190.34 133.21 190.34 122.05 198.15 122.05 198.15 133.21"/><polyline class="cls-1" points="192.85 132.93 192.85 125.68 195.64 125.68 195.64 133.21"/><polyline class="cls-1" points="211.27 133.49 211.27 126.23 214.06 126.23 214.06 133.77"/><path class="cls-1" d="M198.43,122.33s0-5,5-5.58c0,0,5,0,5.58,5v11.91"/><polyline class="cls-1" points="215.73 133.49 215.73 122.33 209.03 122.33"/><path class="cls-1" d="M190.61,122.33s2.24-11.72,12.84-12.28c0,0,10.05-.56,12.28,12.28"/><polyline class="cls-1" points="296.38 96.93 213.38 96.77 217.13 100.52 303.27 100.52 300.01 105.3 109.41 105.3 102.15 97.49 193.96 97.49 191.17 101.12 105.78 101.12"/><polyline class="cls-1" points="190.62 97.49 190.62 74.89 216.29 74.89"/><polyline class="cls-1" points="196.75 70.42 196.75 98.89 209.03 98.89 209.03 70.42"/><line class="cls-1" x1="191.17" y1="85.83" x2="216.85" y2="85.83"/><polyline class="cls-1" points="191.17 72.63 216.29 72.63 216.29 74.89 216.29 96.77"/><polygon class="cls-1" points="248.66 77.68 249.22 81.03 265.96 81.03 267.08 77.68 248.66 77.68"/><polygon class="cls-1" points="264.57 96.77 264.57 81.03 249.77 81.03 249.77 96.65 264.57 96.77"/><line class="cls-1" x1="249.5" y1="90.12" x2="264.29" y2="90.12"/><polygon class="cls-1" points="158.24 77.68 157.69 81.03 140.94 81.03 139.82 77.68 158.24 77.68"/><polygon class="cls-1" points="142.34 96.77 142.34 81.03 157.13 81.03 157.13 96.65 142.34 96.77"/><line class="cls-1" x1="157.41" y1="90.12" x2="142.62" y2="90.12"/><line class="cls-1" x1="118.62" y1="74.89" x2="109.69" y2="96.65"/><polyline class="cls-1" points="105.22 83.26 96.29 108.93 109.37 108.93"/><line class="cls-1" x1="81.78" y1="115.63" x2="96.29" y2="108.93"/><path class="cls-1" d="M85.13,131.26,90.71,129v-8.93s-.56-3.34-2.79-2.23-2.23,4.47-2.23,4.47Z"/><line class="cls-1" x1="97.41" y1="92.19" x2="102.83" y2="90.13"/><polyline class="cls-1" points="106.34 79.91 108.01 79.91 108.01 83.26 115.18 83.26"/><polyline class="cls-1" points="113.03 143.04 113.03 154.14 102.71 154.14 102.71 155.81 113.03 155.81 113.03 174.23 115.83 174.23 115.83 155.81 126.43 155.81 126.43 174.23 128.66 174.23 128.66 155.81 138.15 155.81 138.71 155.81 138.71 154.04 128.66 154.04 128.66 143.34 126.38 143.3 126.43 154.14 115.83 154.14 115.83 143.09"/><polyline class="cls-1" points="63.92 142.42 63.92 174.23 68.94 174.23 68.94 154.7 75.64 154.7 75.64 174.23 77.87 174.23 77.87 154.7 81.78 154.7 81.78 174.23 85.13 174.23 85.13 154.7 86.8 154.7 86.8 174.51 88.19 174.51 88.48 142.98 86.84 142.83 86.8 153.58 85.13 153.58 85.13 142.83 81.78 142.83 81.78 153.58 77.87 153.58 77.87 142.98 75.47 142.83 75.64 153.58 66.15 153.58 66.15 146.33 63.92 146.33"/></svg>