<?xml version="1.0" encoding="utf-8"?>
<!-- Generator: Adobe Illustrator 23.0.1, SVG Export Plug-In . SVG Version: 6.00 Build 0)  -->
<svg version="1.1" id="Layer_1" xmlns="http://www.w3.org/2000/svg" xmlns:xlink="http://www.w3.org/1999/xlink" x="0px" y="0px"
	 viewBox="0 0 1191 572" style="enable-background:new 0 0 1191 572;" xml:space="preserve">
<style type="text/css">
	.st0{fill:#FFFFFF;}
	.st1{fill:#EED7CB;}
	.st2{opacity:0.5;}
	.st3{fill:#E7C1AA;}
	.st4{opacity:0.8;}
	.st5{opacity:0.2;}
	.st6{fill:#BDCDC4;}
	.st7{fill:#EBE8DB;}
	.st8{opacity:0.25;}
	.st9{fill:#BF815B;}
	.st10{fill:#8B9C7D;}
	.st11{opacity:0.52;}
	.st12{opacity:0.14;}
	.st13{fill:none;stroke:#BDCDC4;stroke-width:2;stroke-miterlimit:10;}
	.st14{fill:none;stroke:#BDCDC4;stroke-miterlimit:10;}
	.st15{fill:none;stroke:#BF815B;stroke-miterlimit:10;}
	.st16{fill:#EBE8DB;stroke:#BDCDC4;stroke-width:2;stroke-miterlimit:10;}
	.st17{fill:none;stroke:#BF815B;stroke-width:3;stroke-miterlimit:10;}
	.st18{fill:#EBE8DB;stroke:#BDCDC4;stroke-miterlimit:10;}
</style>
<g>
	<path class="st13" d="M172.4,268.2v-62.1l54.1-84.1l-1-19l30-12l4-12l-8-12l36-14l16,8h258.3v-16h22c0,0,24-14,46.1,0h24v18
		l250.3,4l36,72.1h34l-24,40.1v96.1h190.2l-10,16v134.2h6v28v42.1H73.3v-52.1h4v-16h-4v-10h8V287.2l-12-16L172.4,268.2z"/>
	<line class="st14" x1="81.3" y1="304.7" x2="1130.7" y2="304.7"/>
	<line class="st14" x1="82.3" y1="286.2" x2="1130.7" y2="296"/>
	<polygon class="st13" points="98,304.7 98.4,418.4 224.5,418.4 224.5,304.7 	"/>
	<polygon class="st13" points="244.9,304.7 245.5,417.4 375.7,417.4 375.7,307.3 	"/>
	<polyline class="st13" points="327.6,495.5 327.6,449.4 323.6,443.4 327.6,437.4 355.7,437.4 359.7,443.4 355.7,449.4 355.7,487.5 
		381.7,487.5 381.7,481.5 407.7,481.5 407.7,475.5 429.8,475.5 429.8,469.5 451.8,469.5 451.8,449.4 447.8,445.4 449.8,437.4 
		481.8,437.4 483.8,445.4 479.8,449.4 480.7,495.5 515.9,447.4 539.9,447.4 539.9,423.4 541.9,417.4 537.9,407.4 517.9,407.4 
		513.9,417.4 515.9,423.4 393.7,423.4 391.7,307.3 525.9,307.3 525.9,407.4 	"/>
	<line class="st13" x1="451.8" y1="495.5" x2="451.8" y2="469.5"/>
	<polyline class="st13" points="515.9,447.4 515.9,423.4 539.9,423.4 	"/>
	<polyline class="st13" points="696.1,447.4 696.1,423.4 672.1,423.4 	"/>
	<polyline class="st13" points="672.1,447.4 672.1,423.4 696.1,423.4 	"/>
	<line class="st13" x1="327.6" y1="449.4" x2="355.7" y2="449.4"/>
	<line class="st13" x1="451.8" y1="449.4" x2="479.8" y2="449.4"/>
	<polyline class="st13" points="884.4,495.5 884.4,449.4 888.4,443.4 884.4,437.4 856.3,437.4 852.3,443.4 856.3,449.4 856.3,487.5 
		830.3,487.5 830.3,481.5 804.3,481.5 804.3,475.5 782.2,475.5 782.2,469.5 760.2,469.5 760.2,449.4 764.2,445.4 762.2,437.4 
		730.2,437.4 728.2,445.4 732.2,449.4 731.3,495.5 696.1,447.4 672.1,447.4 672.1,423.4 670.1,417.4 674.1,407.4 694.1,407.4 
		698.1,417.4 696.1,423.4 818.3,423.4 820.3,307.3 692.1,307.3 692.1,407.4 	"/>
	<rect x="835.3" y="306.2" class="st13" width="136.2" height="118.2"/>
	<polygon class="st13" points="984.5,307.3 984.5,425.4 1118.7,425.4 1118.7,309.3 	"/>
	<polyline class="st13" points="819.6,348.1 778.2,348.1 778.2,423.4 800.2,423.4 800.2,349.3 	"/>
	<line class="st13" x1="778.2" y1="373.3" x2="818.3" y2="373.3"/>
	<line class="st13" x1="778.2" y1="395.4" x2="819.6" y2="395.4"/>
	<line class="st13" x1="778.2" y1="411.7" x2="818.3" y2="411.7"/>
	<line class="st13" x1="692.1" y1="325" x2="818.3" y2="325"/>
	<line class="st13" x1="835.3" y1="325" x2="971.5" y2="325"/>
	<polyline class="st13" points="984.5,325 1080.6,325 1118.7,309.3 	"/>
	<line class="st13" x1="949.6" y1="325" x2="949.6" y2="423.4"/>
	<line class="st13" x1="928.5" y1="325" x2="928.5" y2="423.4"/>
	<line class="st13" x1="916.4" y1="327.3" x2="916.4" y2="401.4"/>
	<polyline class="st13" points="392.4,345.9 433.8,345.9 433.8,423.4 413.1,423.4 413.1,345.3 	"/>
	<line class="st13" x1="392.8" y1="371.8" x2="433.8" y2="371.8"/>
	<line class="st13" x1="393.2" y1="392.7" x2="432.8" y2="392.7"/>
	<line class="st13" x1="393.5" y1="408.1" x2="433.8" y2="408.1"/>
	<polyline class="st13" points="537.9,407.4 537.9,307.3 605,307.3 676.1,307.3 676.1,407.4 	"/>
	<polygon class="st13" points="604,341.3 610,341.3 610,325.3 606.5,325.3 604,325.3 	"/>
	<line class="st13" x1="607" y1="307.3" x2="607" y2="325.3"/>
	<polyline class="st13" points="537.9,307.3 566,351.3 646.1,351.3 676.1,307.3 	"/>
	<line class="st13" x1="671.1" y1="413.6" x2="541.9" y2="413.6"/>
	<line class="st13" x1="672.1" y1="447.4" x2="539.9" y2="447.4"/>
	<line class="st13" x1="671.1" y1="419.5" x2="540.9" y2="419.5"/>
	<rect x="541.9" y="459.4" class="st13" width="50.1" height="26"/>
	<rect x="620" y="459.4" class="st13" width="50.1" height="26"/>
	<line class="st13" x1="573" y1="352.3" x2="573" y2="412.4"/>
	<line class="st13" x1="642" y1="352.3" x2="642" y2="413.6"/>
	<rect x="588" y="387.4" class="st13" width="11.3" height="26.3"/>
	<rect x="616" y="387.4" class="st13" width="11.3" height="26.3"/>
	<line class="st13" x1="607" y1="351.3" x2="607" y2="413.6"/>
	<line class="st13" x1="566" y1="351.3" x2="566" y2="413.6"/>
	<line class="st13" x1="646.1" y1="352.3" x2="646.1" y2="413.6"/>
	<line class="st13" x1="552.8" y1="330.6" x2="552.8" y2="413.6"/>
	<line class="st13" x1="543.9" y1="319.3" x2="543.9" y2="413.4"/>
	<line class="st13" x1="658.4" y1="334.3" x2="658.4" y2="413.6"/>
	<line class="st13" x1="667.5" y1="319.9" x2="667.5" y2="413.6"/>
	<polyline class="st13" points="543.9,419.4 543.9,439.4 539.9,439.4 	"/>
	<polyline class="st13" points="668.1,419.4 668.1,439.4 672.1,439.4 	"/>
	<polyline class="st13" points="551.9,419.4 551.9,439.4 555.9,439.4 555.9,419.4 	"/>
	<polyline class="st13" points="563.9,419.4 563.9,439.4 568,439.4 568,419.4 	"/>
	<polyline class="st13" points="576,419.4 576,439.4 580,439.4 580,419.4 	"/>
	<polyline class="st13" points="588,419.4 588,439.4 592,439.4 592,419.4 	"/>
	<polyline class="st13" points="600,419.4 600,439.4 604,439.4 604,419.4 	"/>
	<polyline class="st13" points="614,419.4 614,439.4 618,439.4 618,419.4 	"/>
	<polyline class="st13" points="628,419.4 628,439.4 632,439.4 632,419.4 	"/>
	<polyline class="st13" points="642,419.4 642,439.4 646.1,439.4 646.1,419.4 	"/>
	<polyline class="st13" points="654.1,419.4 654.1,439.4 658.1,439.4 658.1,419.4 	"/>
	<polyline class="st13" points="1002.5,425.4 1002.5,445.4 1006.5,445.4 1006.5,425.4 	"/>
	<polyline class="st13" points="1014.5,425.4 1014.5,445.4 1018.5,445.4 1018.5,425.4 	"/>
	<polyline class="st13" points="1026.5,425.4 1026.5,445.4 1030.5,445.4 1030.5,425.4 	"/>
	<polyline class="st13" points="1038.6,425.4 1038.6,445.4 1042.6,445.4 1042.6,425.4 	"/>
	<polyline class="st13" points="1050.6,425.4 1050.6,445.4 1054.6,445.4 1054.6,425.4 	"/>
	<polyline class="st13" points="1064.6,425.4 1064.6,445.4 1068.6,445.4 1068.6,425.4 	"/>
	<polyline class="st13" points="1078.6,425.4 1078.6,445.4 1082.6,445.4 1082.6,425.4 	"/>
	<polyline class="st13" points="1092.6,425.4 1092.6,445.4 1096.6,445.4 1096.6,425.4 	"/>
	<polyline class="st13" points="1104.6,425.4 1104.6,445.4 1108.6,445.4 1108.6,425.4 	"/>
	<polyline class="st13" points="107.4,419.4 107.4,439.4 111.4,439.4 111.4,419.4 	"/>
	<polyline class="st13" points="119.4,419.4 119.4,439.4 123.4,439.4 123.4,419.4 	"/>
	<polyline class="st13" points="131.4,419.4 131.4,439.4 135.4,439.4 135.4,419.4 	"/>
	<polyline class="st13" points="143.4,419.4 143.4,439.4 147.4,439.4 147.4,419.4 	"/>
	<polyline class="st13" points="155.4,419.4 155.4,439.4 159.4,439.4 159.4,419.4 	"/>
	<polyline class="st13" points="169.4,419.4 169.4,439.4 173.4,439.4 173.4,419.4 	"/>
	<polyline class="st13" points="183.5,419.4 183.5,439.4 187.5,439.4 187.5,419.4 	"/>
	<polyline class="st13" points="197.5,419.4 197.5,439.4 201.5,439.4 201.5,419.4 	"/>
	<polyline class="st13" points="209.5,419.4 209.5,439.4 213.5,439.4 213.5,419.4 	"/>
	<polyline class="st13" points="257.6,417.4 257.6,437.4 261.6,437.4 261.6,417.4 	"/>
	<polyline class="st13" points="269.6,417.4 269.6,437.4 273.6,437.4 273.6,417.4 	"/>
	<polyline class="st13" points="281.6,417.4 281.6,437.4 285.6,437.4 285.6,417.4 	"/>
	<polyline class="st13" points="293.6,417.4 293.6,437.4 297.6,437.4 297.6,417.4 	"/>
	<polyline class="st13" points="305.6,417.4 305.6,437.4 309.6,437.4 309.6,417.4 	"/>
	<polyline class="st13" points="319.6,417.4 319.6,437.4 323.6,437.4 323.6,417.4 	"/>
	<polyline class="st13" points="333.7,417.4 333.7,437.4 337.7,437.4 337.7,417.4 	"/>
	<polyline class="st13" points="347.7,417.4 347.7,437.4 351.7,437.4 351.7,417.4 	"/>
	<polyline class="st13" points="359.7,417.4 359.7,437.4 363.7,437.4 363.7,417.4 	"/>
	<polyline class="st13" points="850.3,425.4 850.3,445.4 854.3,445.4 854.3,425.4 	"/>
	<polyline class="st13" points="862.3,425.4 862.3,436.4 866.6,436.4 866.6,425.4 	"/>
	<polyline class="st13" points="875.1,425.4 875.1,436.4 879.4,436.4 879.4,425.4 	"/>
	<polyline class="st13" points="886.4,425.4 886.4,445.4 890.4,445.4 890.4,425.4 	"/>
	<polyline class="st13" points="898.4,425.4 898.4,445.4 902.4,445.4 902.4,425.4 	"/>
	<polyline class="st13" points="912.4,425.4 912.4,445.4 916.4,445.4 916.4,425.4 	"/>
	<polyline class="st13" points="926.4,425.4 926.4,445.4 930.4,445.4 930.4,425.4 	"/>
	<polyline class="st13" points="940.4,425.4 940.4,445.4 944.4,445.4 944.4,425.4 	"/>
	<polyline class="st13" points="952.4,425.4 952.4,445.4 956.4,445.4 956.4,425.4 	"/>
	<line class="st13" x1="971.5" y1="444.4" x2="887.4" y2="444.4"/>
	<line class="st13" x1="988.5" y1="445.9" x2="1137.7" y2="445.9"/>
	<polyline class="st13" points="970.5,425.4 970.5,445.4 988.5,445.4 988.5,425.4 970.5,425.4 	"/>
	<polyline class="st13" points="818.3,424.4 818.3,445.4 836.3,445.4 836.3,424.4 818.3,424.4 	"/>
	<polyline class="st13" points="375.7,418.4 375.7,439.4 393.7,439.4 393.7,418.4 375.7,418.4 	"/>
	<polyline class="st13" points="223.5,418.4 223.5,440.4 246.5,440.4 246.5,418.4 223.5,418.4 	"/>
	<polyline class="st13" points="1114.7,425.4 1114.7,444.4 1135.7,444.4 1135.7,425.4 1114.7,425.4 	"/>
	<line class="st13" x1="98.4" y1="439.4" x2="224.5" y2="439.4"/>
	<line class="st13" x1="248.5" y1="439.4" x2="374.7" y2="439.4"/>
	<line class="st13" x1="388.7" y1="439.4" x2="514.9" y2="439.4"/>
	<line class="st13" x1="697.1" y1="439.4" x2="823.3" y2="439.4"/>
	<polyline class="st13" points="74.3,426.4 98.4,426.4 98.4,418.4 	"/>
	<polyline class="st13" points="98.4,426.4 98.4,444.4 78.3,444.4 	"/>
	<polyline class="st13" points="950.4,275.2 271.6,268.2 171.4,267.2 173.4,214.2 224.5,198.1 270.6,198.1 270.6,170.1 269.6,269.2 
			"/>
	<line class="st13" x1="387.7" y1="201.1" x2="435.8" y2="201.1"/>
	<line class="st13" x1="393.7" y1="201.1" x2="393.7" y2="269.5"/>
	<line class="st13" x1="429.8" y1="201.1" x2="429.8" y2="269.5"/>
	<polyline class="st13" points="405.7,201.1 405.7,269.5 418.7,269.5 417.8,201.1 	"/>
	<line class="st13" x1="393.7" y1="240.2" x2="429.8" y2="240.2"/>
	<line class="st13" x1="776.2" y1="201.1" x2="824.3" y2="201.1"/>
	<line class="st13" x1="782.2" y1="201.1" x2="782.2" y2="269.5"/>
	<line class="st13" x1="818.3" y1="201.1" x2="818.3" y2="269.5"/>
	<polyline class="st13" points="794.2,201.1 794.2,269.5 807.2,269.5 806.3,201.1 	"/>
	<line class="st13" x1="782.2" y1="240.2" x2="818.3" y2="240.2"/>
	<polyline class="st13" points="560.9,270.2 560.9,230.2 589,230.2 589,270.2 	"/>
	<polyline class="st13" points="570,269.2 570,243.2 580,243.2 580,270.2 	"/>
	<polyline class="st13" points="636,271.2 636,245.2 646.1,245.2 646.1,272.2 	"/>
	<path class="st13" d="M590,231.2c0,0,0-18,18-20c0,0,18,0,20,18v42.7"/>
	<polyline class="st13" points="652.1,271.2 652.1,231.2 628,231.2 	"/>
	<path class="st13" d="M561.9,231.2c0,0,8-42.1,46.1-44.1c0,0,36-2,44.1,44.1"/>
	<polyline class="st13" points="941.4,140 643.6,139.5 657.1,152.9 966.2,152.9 954.4,170.1 270.6,170.1 244.5,142 574,142 
		563.9,155.1 257.6,155.1 	"/>
	<polyline class="st13" points="561.9,142 561.9,60.9 654.1,60.9 	"/>
	<polyline class="st13" points="584,44.9 584,147 628,147 628,44.9 	"/>
	<line class="st13" x1="563.9" y1="100.2" x2="656.1" y2="100.2"/>
	<polyline class="st13" points="563.9,52.9 654.1,52.9 654.1,60.9 654.1,139.5 	"/>
	<polygon class="st13" points="770.2,70.9 772.2,83 832.3,83 836.3,70.9 	"/>
	<polygon class="st13" points="827.3,139.5 827.3,83 774.2,83 774.2,139 	"/>
	<line class="st13" x1="773.2" y1="115.6" x2="826.3" y2="115.6"/>
	<polygon class="st13" points="445.8,70.9 443.8,83 383.7,83 379.7,70.9 	"/>
	<polygon class="st13" points="388.7,139.5 388.7,83 441.8,83 441.8,139 	"/>
	<line class="st13" x1="442.8" y1="115.6" x2="389.7" y2="115.6"/>
	<line class="st13" x1="303.6" y1="60.9" x2="271.6" y2="139"/>
	<polyline class="st13" points="255.6,91 223.5,183.1 270.4,183.1 	"/>
	<line class="st13" x1="171.4" y1="207.1" x2="223.5" y2="183.1"/>
	<path class="st13" d="M183.5,263.2l20-8v-32c0,0-2-12-10-8c-8,4-8,16-8,16L183.5,263.2z"/>
	<line class="st13" x1="227.5" y1="123" x2="247" y2="115.6"/>
	<polyline class="st13" points="259.6,79 265.6,79 265.6,91 291.3,91 	"/>
	<polyline class="st13" points="283.6,305.5 283.6,345.3 246.5,345.3 246.5,351.3 283.6,351.3 283.6,417.4 293.6,417.4 293.6,351.3 
		331.7,351.3 331.7,417.4 339.7,417.4 339.7,351.3 373.7,351.3 375.7,351.3 375.7,344.9 339.7,344.9 339.7,306.5 331.5,306.4 
		331.7,345.3 293.6,345.3 293.6,305.7 	"/>
	<polyline class="st13" points="107.4,303.2 107.4,417.4 125.4,417.4 125.4,347.3 149.4,347.3 149.4,417.4 157.4,417.4 157.4,347.3 
		171.4,347.3 171.4,417.4 183.5,417.4 183.5,347.3 189.5,347.3 189.5,418.4 194.4,418.4 195.5,305.2 189.6,304.7 189.5,343.3 
		183.5,343.3 183.5,304.7 171.4,304.7 171.4,343.3 157.4,343.3 157.4,305.2 148.8,304.7 149.4,343.3 115.4,343.3 115.4,317.3 
		107.4,317.3 	"/>
</g>
</svg>
