<?xml version="1.0" encoding="utf-8"?>
<!-- Generator: Adobe Illustrator 23.0.1, SVG Export Plug-In . SVG Version: 6.00 Build 0)  -->
<svg version="1.1" id="Layer_1" xmlns="http://www.w3.org/2000/svg" xmlns:xlink="http://www.w3.org/1999/xlink" x="0px" y="0px"
	 viewBox="0 0 1920 256" style="enable-background:new 0 0 1920 256;" xml:space="preserve">
<style type="text/css">
	.st0{fill:none;stroke:#BDCDC4;stroke-width:2;stroke-miterlimit:10;}
	.st1{fill:#EBE8DB;stroke:#BDCDC4;stroke-width:2;stroke-miterlimit:10;}
	.st2{fill:none;stroke:#BDCDC4;stroke-miterlimit:10;}
</style>
<title>bottom</title>
<path class="st0" d="M1768.5,147.7c-0.5,2.3,1.4,1.4,1.4,1.4c-2.3,3.2,0.9,3.6,0.9,3.6c1.4,3.2,4.1,0.5,4.1,0.5c0.5,2.3,3.2,0,3.2,0
	c1.8,0.9,2.7-1.8,2.7-1.8c2.7,0.9,3.2-0.9,3.2-0.9c2.7,0.9,1.8-2.3,1.8-2.3c1.4,1.8,2.7-1.4,2.7-1.4c2.7,0.9,2.7-3.2,2.7-3.2
	c2.7,0.5,2.3-3.6,2.3-3.6c1.8-0.9,0-4.5,0-4.5c2.3,0,1.4-3.2,1.4-3.2c2.3-1.8-0.5-3.6-0.5-3.6c1.8-3.2-3.6-3.2-3.6-3.2
	c2.3-1.8-2.7-5.5-2.7-5.5c0.5-2.3-3.2-2.3-3.2-2.3c1.8-0.5,1.4-3.6,0-3.2c-1.4,0.5-2.3-4.1-1.4-2.7c0.9,1.4,1.4-0.9,1.4,0
	s0.5,0.9,2.3,0.5c1.8-0.5-0.5-2.3-0.5-2.3s2.3,0,1.8-1.8s-1.8-0.5-1.8-0.5c0.9-3.6-2.7-4.1-2.7-4.1c3.2,0,0.9-2.7,0.9-2.7
	c2.7-1.8-2.3-3.2-2.3-3.2c0.5-4.1-2.7-1.8-2.7-1.8c-1.4-1.8-4.5,0.9-4.5,0.9c2.7-1.4-0.5-4.1-0.5-4.1c1.8,0,1.4-2.3,1.4-2.3
	c2.3,1.4,2.7-2.7,2.7-2.7c2.3-0.9-0.5-5-0.5-5c1.8-3.6-2.3-4.5-2.3-4.5c0.9-5.9-4.1-4.1-4.1-4.1c-0.5-2.3-2.3,0-2.3,0
	c-1.4-1.8-2.3,1.4-2.3,1.4c-5-5-4.1,1.4-4.1,1.4c-2.3-1.8-3.2,0-3.2,0c1.8-5.9-3.2-5.5-3.2-5.5c0.5-4.5-3.2-2.7-3.2-2.7
	c0.9-3.2-2.7-2.3-2.7-2.3c0.5-1.8-1.4-1.4-1.4-1.4c0.9-3.6-3.2-1.8-3.2-1.8c-1.8-1.4-2.3,0.9-2.3,0.9c0.2-1-0.2-2-0.9-2.7
	c-1.4-1.4-2.7,1.4-2.7,1.4c0.9-2.7-0.9-2.3-0.9-2.3c1.4-3.2-1.8-3.6-1.8-3.6c-1.8-3.6-3.6-0.5-3.6-0.5c-2.7-2.3-3.6,0.9-3.6,0.9
	c-4.5-1.8-4.1,2.7-4.1,2.7c-5.5-0.9-4.1,4.1-4.1,4.1c-3.6-1.4-3.2,2.3-3.2,2.3s-3.2-1.4-4.5,0.9c0,0-2.3,0.5-3.6,3.6
	c0,0-1.8-2.3-4.1,0.5c0,0-3.6-1.8-3.6,1.8c0,0-3.2,1.8-0.9,3.6c0,0-1.8,0-0.9,1.8c0,0-1.4-0.9-1.8,1.4c0,0-2.7-0.9-2.7,1.8
	c0,0-3.6,1.4-1.8,3.6c0,0-1.8,2.3,0.9,5.9c0,0-0.9-0.9-1.4,0.9c-0.5,1.8,0.9,1.8,0.9,1.8s-0.5,1.8,0.9,2.3c0,0-1.4,0.5-0.9,2.7
	c0,0-2.7-0.9-3.6,0.5c0,0-1.4-2.3-2.7-0.5c0,0-2.3-1.8-4.1,0.5c0,0-1.8-1.4-2.3,1.4c0,0-4.1-2.3-4.5,1.8c0,0-2.7-0.5-1.8,1.8
	c0,0-2.3,2.3,0,3.6c-0.8,1.1-0.8,2.6,0,3.6c0.9,1.1,2.2,1.7,3.6,1.8c0,0-2.3,0.5-2.3,2.3c0,0-3.2-0.9-2.7,1.8
	c0.5,2.7,0.5,1.4,0.5,1.4s-3.2,0.5-2.7,3.2c0.3,1.6,1.6,2.9,3.2,3.2c0,0-2.7,0.5-2.3,2.7c0.5,2.3,2.3,2.3,2.3,2.3s-2.3,0.5-1.4,2.3
	c0,0-2.3,3.2,0.9,4.1c0,0-0.9,2.3,0.5,2.7c1.1,0.2,2.1,0.2,3.2,0c0,0-0.5,2.3,1.4,2.3c0,0-0.5,2.3,1.4,2.3c0,0-0.9,1.8,1.8,2.7
	c0,0-0.9,1.8,0.9,1.8c0,0-0.5,1.4,1.8,0.9l2.3-0.5l0,0c0,0-0.5,2.7,2.3,1.4c0,0,1.4,1.8,3.2-0.5c0,0,0,2.7,3.6,2.3
	c0,0-0.9,3.6,1.8,2.7c0,0,0,2.7,2.7,1.8c0,0-0.9,3.6,1.8,2.3c0.2,0.8,0.9,1.3,1.7,1.1c0.2-0.1,0.4-0.2,0.5-0.2c0,0,3.6,2.3,4.1-2.3
	c0,0,1.4,1.8,2.7-0.5c0,0,1.4,2.3,2.7-0.9c0,0,1.8-0.5,1.4-1.8c0,0,0.5,1.8,1.8,0.5c0,0,2.7,2.3,4.1,0c0,0,2.3,0.9,3.2-0.9
	c0,0,1.8,0.9,2.3-1.4c0,0,1.4,2.3,2.3-0.5"/>
<path class="st0" d="M1719.2,101.6c0,0,2.3,5.9,7.3,0c0,0,1.8,2.3,5,0.5c1.1-0.5,2-1.3,2.7-2.3c0,0-0.9,1.4,0,1.8c0,0-1.8,0,0,1.8
	c0,0-1.4,1.4,1.8,1.8c0.9,0.2,1.8-0.2,2.3-0.9c0,0,0,3.6,2.3,3.2c0,0,0,0.5,1.4-0.5"/>
<path class="st0" d="M1733.7,108.6c0,0,0.6,3.5,3.3,1.2c0,0,0.5,2.3,2.3,1.4c0,0-0.5,2.7,2.3,0.9c0,0-0.9,3.6,2.3,1.8
	c0,0-0.9,4.5,3.2,1.8c0,0,1.4,3.2,4.1,0.5"/>
<path class="st0" d="M1758.9,114.8c0,0,3.6-0.9,2.7,2.3c0,0,0.9,0,1.4,1.4c0,0,2.3-0.5,1.8,1.4c0,0,3.6-0.5,3.6,2.7
	c0,0,1.4,2.3,0,3.6c0,0,0.5,3.2-1.8,2.7c0,0,0.5,1.8-1.4,1.8"/>
<path class="st0" d="M1746.6,131.3c0.3,0.6,0.9,0.9,1.5,1c0.5,0,1,0.3,1.1,0.8c0.2,0.2,0.5,0.5,1.1,0.3c0.3-0.1,0.6,0.2,0.7,0.5l0,0
	c0,0.4,0.3,0.8,0.7,0.8c0.3,0,0.5,0.3,0.5,0.6l0,0c-0.2,0.8-0.1,1.8,1.1,1.5"/>
<path class="st0" d="M1752.5,144.1c0,0,0.9,4.5,4.1,1.8c0,0,0,3.6,4.1,0.9c0,0,1.4,2.7,3.6,0.5c0,0,0.5,2.7,2.7,0.5
	c0.5,0.2,1.1,0.2,1.5-0.1c0.5-0.3,0.7-0.9,0.3-2.2c0.8,0.5,1.7,0.3,2.3-0.4c0,0,0,0,0-0.1c0,0,2.3,0.9,2.7-1.4
	c0.8,0.1,1.4-0.5,1.4-1.3c0-0.2,0-0.4-0.1-0.6"/>
<path class="st0" d="M1692.8,118.5c0,0,0,3.2,4.1,1.4c0,0,0.9,3.6,4.1,1.4c0,0,2.3,3.2,4.5-0.9c0,0,0,3.2,3.2,2.3
	c0,0-1.4,2.3,0.9,2.7c0,0-2.7,3.2,0,4.5c2.7,1.4,4.1,0.9,4.1,0.9"/>
<path class="st0" d="M1697.3,139c0,0,2.7,3.2,5.9-0.9c0.7,1.2,2.3,1.7,3.6,1l0.1-0.1c0,0,3.2,1.4,3.2-1.4c0,0,2.7,1.8,3.6-1.8
	c0,0,0.5-0.5,0-2.7"/>
<path class="st0" d="M1732.9,93.8c0,0,1.8-1.8,3.6,0.5c0,0,3.6-3.2,5.9,2.3c0,0,3.6-0.5,2.3,4.1c0,0,3.2,0.5,1.8,3.2
	c0,0,2.7-2.3,4.1,0c0,0,3.6-2.3,5.9,1.4c0.8-0.8,2.1-1,3.2-0.5"/>
<path class="st0" d="M1739.8,87c0,0,3.6-1.8,4.5,0c0,0,3.2-1.4,4.5,1.8c0,0,3.6-3.2,5.9,1.8c0,0,1.4-2.3,3.2-0.9
	c0,0,1.8-3.2,4.5-1.8"/>
<path class="st0" d="M1748,76.9c0,0,2.7,2.3,4.5-1.8c0,0,3.6,2.7,6.8-1.4c0,0,1.4,2.7,4.1,1.8c0,0,0.9,2.3,2.3,1.4"/>
<path class="st0" d="M1701,105.7c0,0,0.5-4.5,4.1-3.2c0,0,0-4.1,4.1-2.7c0,0,0.9-4.1,4.5-2.7c0.9-1.4,2.7-1.7,4-0.8
	c0.2,0.2,0.4,0.2,0.5,0.4"/>
<path class="st0" d="M1761.9,125.1c0,0,2.3,1.4,2.4-1.3c0,0,1.5,0.8,1.9-0.6c0,0,1.4,1.6,1.7-0.8c0,0,1.6,2.3,2.1-0.4
	c0,0,2.1,2.7,2.6-0.9c0,0,2.5,0.8,2.3-2.1"/>
<path class="st0" d="M1813.5,159.4c0,0,0.2,2.8-2,1.7c0,0-0.2,0.7-1.2,0.8c0,0,0,1.7-1.2,1.1c0,0-0.2,2.7-2.5,2.4
	c0,0-1.8,0.7-2.7-0.5c0,0-2.4-0.1-1.7-1.7c0,0-1.4,0.1-1.1-1.2"/>
<path class="st0" d="M1757.7,150.6c0,0,0,2.8-2.2,1.5c0,0-0.2,0.7-1.3,0.7c0,0-0.1,1.7-1.4,1.1c0,0-0.4,2.7-2.7,2.1
	c0,0-1.9,0.5-2.7-0.7c0,0-2.4-0.3-1.7-1.8c0,0-1.4,0-1.1-1.4"/>
<path class="st0" d="M1774.2,161c0.5,1.7-0.7,1.1-0.7,1.1c1.5,2.3-0.2,2.7-0.2,2.7c-0.5,2.4-2.3,0.6-2.3,0.6
	c-0.1,1.7-1.8,0.2-1.8,0.2c-1,0.8-1.7-1.2-1.7-1.2c-1.4,0.8-1.9-0.5-1.9-0.5c-1.5,0.8-1.2-1.6-1.2-1.6c-0.6,1.4-1.7-0.8-1.7-0.8
	c-1.4,0.8-1.8-2.2-1.8-2.2c-1.5,0.5-1.6-2.6-1.6-2.6c-1.1-0.6-0.4-3.4-0.4-3.4c-1.3,0.2-1-2.3-1-2.3c-1.4-1.2,0-2.7,0-2.7
	c-1.3-2.3,1.8-2.6,1.8-2.6c-1.4-1.2,1.1-4.2,1.1-4.2c-0.5-1.7,1.6-1.9,1.6-1.9c-1.1-0.2-1.1-2.7-0.2-2.4c0.8,0.3,1-3.2,0.5-2.1
	c-0.5,1.1-0.8-0.6-0.8,0.1c0.1,0.7-0.2,0.7-1.3,0.5s0.1-1.7,0.1-1.7c-0.6,0.1-1.1-0.3-1.2-0.9c0-0.2,0-0.2,0-0.4
	c0.2-1.4,1-0.5,1-0.5c-0.8-2.7,1.2-3.2,1.2-3.2c-1.8,0.2-0.8-2-0.8-2c-1.7-1.2,1.1-2.5,1.1-2.5c-0.6-3,1.4-1.5,1.4-1.5
	c0.6-1.4,2.7,0.4,2.7,0.4c-1.7-0.8-0.1-3-0.1-3c-1.1,0.1-1-1.6-1-1.6c-1.2,1.1-1.7-1.9-1.7-1.9c-1.4-0.5-0.2-3.7-0.2-3.7
	c-1.3-2.6,0.9-3.6,0.9-3.6c-1-4.3,2-3.3,2-3.3c0.1-1.7,1.3-0.2,1.3-0.2c0.6-1.4,1.4,0.9,1.4,0.9c2.4-4,2.4,0.8,2.4,0.8
	c1.1-1.5,1.8-0.2,1.8-0.2c-1.5-4.3,1.4-4.2,1.4-4.2c-0.6-3.3,1.6-2.2,1.6-2.2c-0.8-2.3,1.4-1.8,1.4-1.8c-0.4-1.4,0.7-1.1,0.7-1.1
	c-0.8-2.7,1.7-1.5,1.7-1.5c0.9-1.1,1.4,0.5,1.4,0.5c-0.2-0.7-0.1-1.4,0.3-2.1c0.7-1.1,1.7,0.8,1.7,0.8c-0.8-2,0.3-1.7,0.3-1.7
	c-1-2.3,0.8-2.8,0.8-2.8c0.8-2.8,2-0.5,2-0.5c1.4-1.8,2.1,0.5,2.1,0.5c2.4-1.7,2.5,1.8,2.5,1.8c3-1,2.7,2.8,2.7,2.8
	c2-1.2,2,1.5,2,1.5s1.7-1.2,2.7,0.4c0,0,1.4,0.2,2.3,2.5c0,0,0.8-1.8,2.3,0.1c0,0,1.9-1.6,2.2,1.1c0,0,2,1.1,0.8,2.7
	c0,0,1.1-0.1,0.7,1.3c0,0,0.7-0.8,1.1,0.9c0,0,1.5-0.8,1.7,1.2c0,0,2.2,0.8,1.3,2.6c0,0,1.2,1.6-0.1,4.5c0,0,0.5-0.8,0.8,0.6
	c0.4,1.4-0.4,1.4-0.4,1.4s0.4,1.4-0.3,1.7c0,0,0.8,0.2,0.8,2c0,0,1.5-0.8,2.1,0.2c0,0,0.6-1.7,1.5-0.5c0.5-0.6,1.3-0.8,1.9-0.4
	c0.2,0.2,0.3,0.3,0.5,0.5c0,0,0.9-1.1,1.4,0.9c0,0,2.1-2,2.7,1.1c0,0,1.5-0.5,1.2,1.2c0,0,1.4,1.6,0.3,2.7c0.5,0.8,0.6,1.8,0.3,2.7
	c-0.3,0.8-1.1,1.4-1.9,1.6c0.8,0.2,1.4,0.8,1.4,1.6c0,0,1.7-0.9,1.7,1.2c-0.1,2.1-0.2,1.1-0.2,1.1c1.1,0.1,1.9,1.1,1.8,2.2l0,0
	c0.1,1.1-0.5,2.1-1.5,2.6c0.9,0.1,1.6,1,1.5,1.9c-0.1,1.7-1.1,1.8-1.1,1.8c0.7,0.1,1.1,0.7,1,1.4c0,0.1,0,0.2-0.1,0.2
	c0,0,1.5,2.3-0.2,3.1c0,0,0.7,1.7-0.1,2c-0.5,0.2-1.2,0.3-1.8,0.2c0,0,0.5,1.7-0.6,1.7c0,0,0.5,1.7-0.6,1.7c0.4,0.8,0,1.7-0.8,2.1
	l0,0c0,0,0.7,1.3-0.4,1.4c0,0,0.4,1-1,0.8l-1.3-0.2l0,0c0,0,0.5,2-1.2,1.1c0,0-0.6,1.4-1.8-0.2c0.2,0.9-0.5,1.7-1.4,1.9
	c-0.2,0-0.3,0-0.5,0c0,0,0.8,2.7-0.8,2.1c0,0,0.2,2-1.4,1.5c0,0,0.8,2.7-0.8,1.8c0,0-0.2,1.4-1.2,0.8c0,0-1.9,1.9-2.5-1.4
	c0,0-0.6,1.4-1.6-0.2c0,0-0.6,1.8-1.6-0.5c-0.6-0.2-1-0.7-0.9-1.3c0,0-0.2,1.4-1,0.5c0,0-1.4,1.8-2.3,0.2c-0.5,0.4-1.4,0.3-1.7-0.2
	c-0.1-0.1-0.1-0.2-0.2-0.2c0,0-1,0.8-1.4-0.9c0,0-0.6,1.8-1.4-0.2"/>
<path class="st0" d="M1773.4,116.5c0,0-2.9,0.3-3.3-0.7c0,0-2.5,0.2-3.2-1.5c0,0-3,1-4.2-1.7c-0.8,0.5-1.7,0.5-2.4,0
	c-1.1,0.8-2.4,0.8-3.5,0.2"/>
<path class="st0" d="M1775.3,121.6c0,0,2.7,0.2,2-3.1c0,0,3.4,0.1,3.6-3.8c0,0,2,1.1,3.3-0.7c0,0,1.5,1,2-0.2"/>
<path class="st0" d="M1794.2,149.3c0,0,0,3.4-2.8,2.7c0,0,0.3,3-2.9,2.4c0,0-0.4,3.1-3.2,2.4c-0.5,1.1-1.9,1.5-3,0.9
	c-0.2-0.1-0.3-0.2-0.4-0.3"/>
<path class="st0" d="M1802.1,145.6c0.5-0.6,1.2-1,2-1.1c0,0-3.4,3.7-3,4.1c0.4,0.4,2.7-1.4,2.7-1.4s-0.3,1,0.3,1
	c0.6,0-1.4,0.7-2,1.1c-0.7,0.4-4.8,2.7-6.1,3c-1.4,0.3-1,1.4-2,1.7c-1.1,0.3-1.4,2.4-3,2.7c-1.7,0.4-2,4.1-2,4.1s2.3-1.7,3-3
	c0.7-1.4,2-1.7,2-2.7l0.3,1.4l-0.7,2l-3.4,4.4c0,0-0.7,3.4-1,4.5c-0.3,1.1,0.3,5.5,0.3,5.5s0.3,3.7,0.3,5.1c0,1.4-1,6.8,3,9.9
	c0,0-1.7-1-2.7-0.7c-1.1,0.3-0.7,1.7-1.4,1.4s-0.3-1.1-1-1.1c-0.7,0-2.4,1.7-2.7,1.4c-0.3-0.3,0.3-1.4,0.3-1.4s-0.3-1-1.7,0
	c0,0-0.7,0-0.7-0.3c0,0,2.7-2.4,2.7-3.8v-4.7c-0.5-4.1-0.5-8.2,0-12.3c0,0-0.3-3.4-2-4.5c-1.1-0.8-2-1.8-2.7-3c0,0-1.4-2-2-2.4
	c-0.7-0.5-1.2-1.1-1.7-1.7c-0.6-0.4-1.4-0.8-2-1c0,0-1,0.3-1.4,0c0,0,1,0,1-0.3s-0.7-0.7-0.7-0.7c0.6,0.2,1.2,0.4,1.7,0.7l2,1
	c0,0,0.7,0.3,0.7-1V152c0-0.3,0.3,1.1,0.3,1.7s0.7-1.4,0.7-1.4s-0.3,2.4-0.7,2.4c-0.4,0,0.7,2,1.4,2s1.7,1.7,2.4,2
	c0.8,0.4,2.3,3.4,3,2.4c0.7-1.1-0.3-3-0.3-3s-1.4-3.4-1.4-3.7s-5.5-7.1-6.5-7.5h-0.3c0.2-0.2,0.2-0.5,0-0.7l0,0c0,0,1,0,0.7-0.3
	s0.7,1.7,1.4,1.7c0.7,0,1.7,1.4,1.7,1.4l4.1,5.2c0,0,0.3-3.4,0-4.1c-0.2-0.5-0.2-0.9,0-1.4c-0.5-0.5-0.8-1.3-0.7-2
	c0.4-1.1,0.4-2.3,0-3.4c0,0-4.4-1.4-5.5-2.4c-0.4-0.8-1.3-1.1-2-0.7l0,0c-0.3,0.2-0.2-0.9-0.2-1.4c0-0.2,0.1-0.4,0.2-0.4
	c0.2,0,0.2,0,0.3,0.2c0.2,0.4,0.8,0.3,1,0.3c0.3,0,1.4,0.7,2.7,1.7c0.7,0.8,1.7,1.3,2.7,1.4c1.2,0-3.8-3.7-3.8-3.7v-0.3l1.4,0.3
	c0,0,2,0.3,0.3-4.1l0.7-0.7c0,0,1.4,2.7,1.4,4.1c0,1.4,0.3,3.7,0.7,3.4c0.5-0.7,0.7-1.5,0.7-2.4c0-1.1-0.7-1.1-0.3-1.7
	c0.4-0.6,0.7-0.7,0.7-1.4c0-0.7,0.3-1.7,0.3-2.4s1.7-2.7,1.4-3.4l0.3-0.7c0,0,0.7,0.7,1,0.3c0,0-0.3,0.3-0.7,2.4
	c-0.5,1.8-1.1,3.5-2,5.1c0.3,1.4,0.4,2.7,0.3,4.1c0,3,0,7.5,0.3,7.8c0.3,0.3,1,2,1.7,0.3c0.5-1.4,0.8-3,1-4.4l0.3-5.1v-1.1
	c0.4-0.5,0.6-1.1,0.7-1.7c0.3-1.4,0-4.4,0.3-5.1c0.3-0.7-1.4-7.1-2.7-6.4c0,0,2,0,1.7-1.4c-0.4-1.4,1.7,3.4,1.7,3.4s0,3,1,3h1
	c0,0,0.3-1.4,0.7-1.4s0.7-5.8,0.3-5.8s0.3,0.3,0.7-0.3c0.4-0.6,0,5.5,0,5.5s0.7-1,1.4-1c0.7,0,3.4-2,3.4-2s-0.7,1,0,1.4
	c0,0,0,0.7-1,1c-1,0.3-2.7,1.7-3,1.4s-0.7,2-1.7,2.7c-1,0.7,0.3-0.3-1.7,5.1c0.2,1,0.2,2,0,3c-0.3,1.1,1-1.1,2.7-2.7
	c1.1-1.1,2.1-2.4,3-3.7c0,0,3.1-1.4,3.1-2.7c0,0,0,0.3,0.7,0.3c0,0-0.3,1.4,0,1.4c0.3,0-3.8,2.4-4.4,3.4c-0.6,1.1-4.8,5.5-4.8,5.5
	s-3,5.5,1.4,1.7c0,0,5.1-1.4,5.8-2.7l0.7-0.7l0.3,0.7l-0.3,1.4c0,0-3.4,1.7-4.8,1.7c-1.4,0-2.7,4.1-4.8,4.4c0,0-3,8.5-1.7,8.2
	c1.4-0.3,4.4-3.7,4.8-3"/>
<path class="st0" d="M1770,133.2c0,0-1.1,3.3,2,2.7c0,0-1.4,2.4,2.4,2.2c-0.2,0.9,0.5,1.7,1.4,1.8c0.3,0.1,0.6,0,0.9-0.2
	c0,0-0.8,2,1.7,1.4c0.2,0.3,0.6,0.5,1.1,0.5c0.4,0,0.8-0.3,1.1-1.3c0.3,0.6,1.1,0.9,1.7,0.6l0,0c0,0,1.1,1.4,2.3,0.2
	c0.5,0.3,1.1,0.2,1.4-0.2c0.1-0.2,0.2-0.2,0.2-0.4"/>
<path class="st1" d="M82.1,132.6v-17.3l15.1-23.4l-0.3-5.3l8.4-3.3l1.1-3.3l-2.2-3.3l10.1-3.9l4.5,2.2h72v-4.5h6.1
	c0,0,6.7-3.9,12.8,0h6.7v5l69.8,1.1l10,20.1h9.5l-6.7,11.2v26.8h53l-2.8,4.5v37.4h1.7V196H54.4v-14.5h1.1V177h-1.1v-2.8h2.2V138
	l-3.3-4.5L82.1,132.6z"/>
<line class="st2" x1="56.7" y1="142.8" x2="349.1" y2="142.8"/>
<line class="st2" x1="56.9" y1="137.7" x2="349.1" y2="140.4"/>
<polygon class="st1" points="61.3,142.8 61.4,174.5 96.6,174.5 96.6,142.8 "/>
<polygon class="st1" points="102.2,142.8 102.4,174.2 138.7,174.2 138.7,143.5 "/>
<polyline class="st1" points="125.3,196 125.3,183.2 124.2,181.5 125.3,179.8 133.1,179.8 134.2,181.5 133.1,183.2 133.1,193.8 
	140.4,193.8 140.4,192.1 147.6,192.1 147.6,190.4 153.8,190.4 153.8,188.7 159.9,188.7 159.9,183.2 158.8,182.1 159.4,179.8 
	168.3,179.8 168.9,182.1 167.7,183.2 168,196 177.8,182.6 184.5,182.6 184.5,175.9 185,174.2 183.9,171.4 178.3,171.4 177.2,174.2 
	177.8,175.9 143.7,175.9 143.2,143.5 180.6,143.5 180.6,171.4 "/>
<line class="st0" x1="159.9" y1="196" x2="159.9" y2="188.7"/>
<polyline class="st1" points="177.8,182.6 177.8,175.9 184.5,175.9 "/>
<polyline class="st1" points="228,182.6 228,175.9 221.3,175.9 "/>
<polyline class="st1" points="221.3,182.6 221.3,175.9 228,175.9 "/>
<line class="st0" x1="125.3" y1="183.2" x2="133.1" y2="183.2"/>
<line class="st0" x1="159.9" y1="183.2" x2="167.7" y2="183.2"/>
<polyline class="st1" points="280.5,196 280.5,183.2 281.6,181.5 280.5,179.8 272.7,179.8 271.5,181.5 272.7,183.2 272.7,193.8 
	265.4,193.8 265.4,192.1 258.1,192.1 258.1,190.4 252,190.4 252,188.7 245.9,188.7 245.9,183.2 247,182.1 246.4,179.8 237.5,179.8 
	236.9,182.1 238.1,183.2 237.8,196 228,182.6 221.3,182.6 221.3,175.9 220.8,174.2 221.9,171.4 227.4,171.4 228.6,174.2 228,175.9 
	262.1,175.9 262.6,143.5 226.9,143.5 226.9,171.4 "/>
<rect x="266.8" y="143.3" class="st1" width="38" height="32.9"/>
<polygon class="st1" points="308.4,143.5 308.4,176.5 345.8,176.5 345.8,144.1 "/>
<polyline class="st1" points="262.4,154.9 250.9,154.9 250.9,175.9 257,175.9 257,155.3 "/>
<line class="st0" x1="250.9" y1="161.9" x2="262.1" y2="161.9"/>
<line class="st0" x1="250.9" y1="168.1" x2="262.4" y2="168.1"/>
<line class="st0" x1="250.9" y1="172.6" x2="262.1" y2="172.6"/>
<line class="st0" x1="226.9" y1="148.5" x2="262.1" y2="148.5"/>
<line class="st0" x1="266.8" y1="148.5" x2="304.8" y2="148.5"/>
<polyline class="st1" points="308.4,148.5 335.2,148.5 345.8,144.1 "/>
<line class="st0" x1="298.6" y1="148.5" x2="298.6" y2="175.9"/>
<line class="st0" x1="292.8" y1="148.5" x2="292.8" y2="175.9"/>
<line class="st0" x1="289.4" y1="149.1" x2="289.4" y2="169.8"/>
<polyline class="st1" points="143.4,154.3 154.9,154.3 154.9,175.9 149.1,175.9 149.1,154.1 "/>
<line class="st0" x1="143.5" y1="161.5" x2="154.9" y2="161.5"/>
<line class="st0" x1="143.6" y1="167.3" x2="154.6" y2="167.3"/>
<line class="st0" x1="143.7" y1="171.6" x2="154.9" y2="171.6"/>
<polyline class="st1" points="183.9,171.4 183.9,143.5 202.6,143.5 222.4,143.5 222.4,171.4 "/>
<polygon class="st1" points="202.3,153 204,153 204,148.6 203,148.6 202.3,148.6 "/>
<line class="st0" x1="203.2" y1="143.5" x2="203.2" y2="148.6"/>
<polyline class="st1" points="183.9,143.5 191.7,155.8 214.1,155.8 222.4,143.5 "/>
<line class="st0" x1="221" y1="173.2" x2="185" y2="173.2"/>
<line class="st0" x1="221.3" y1="182.6" x2="184.5" y2="182.6"/>
<line class="st0" x1="221" y1="174.8" x2="184.8" y2="174.8"/>
<rect x="185" y="185.9" class="st1" width="13.9" height="7.3"/>
<rect x="206.8" y="185.9" class="st1" width="13.9" height="7.3"/>
<line class="st0" x1="193.7" y1="156.1" x2="193.7" y2="172.8"/>
<line class="st0" x1="212.9" y1="156.1" x2="212.9" y2="173.2"/>
<rect x="197.9" y="165.9" class="st1" width="3.1" height="7.3"/>
<rect x="205.7" y="165.9" class="st1" width="3.1" height="7.3"/>
<line class="st0" x1="203.2" y1="155.8" x2="203.2" y2="173.2"/>
<line class="st0" x1="191.7" y1="155.8" x2="191.7" y2="173.2"/>
<line class="st0" x1="214.1" y1="156.1" x2="214.1" y2="173.2"/>
<line class="st0" x1="188.1" y1="150" x2="188.1" y2="173.2"/>
<line class="st0" x1="185.6" y1="146.9" x2="185.6" y2="173.1"/>
<line class="st0" x1="217.5" y1="151.1" x2="217.5" y2="173.2"/>
<line class="st0" x1="220" y1="147.1" x2="220" y2="173.2"/>
<polyline class="st1" points="185.6,174.8 185.6,180.4 184.5,180.4 "/>
<polyline class="st1" points="220.2,174.8 220.2,180.4 221.3,180.4 "/>
<polyline class="st1" points="187.8,174.8 187.8,180.4 188.9,180.4 188.9,174.8 "/>
<polyline class="st1" points="191.2,174.8 191.2,180.4 192.3,180.4 192.3,174.8 "/>
<polyline class="st1" points="194.5,174.8 194.5,180.4 195.6,180.4 195.6,174.8 "/>
<polyline class="st1" points="197.9,174.8 197.9,180.4 199,180.4 199,174.8 "/>
<polyline class="st1" points="201.2,174.8 201.2,180.4 202.3,180.4 202.3,174.8 "/>
<polyline class="st1" points="205.1,174.8 205.1,180.4 206.2,180.4 206.2,174.8 "/>
<polyline class="st1" points="209,174.8 209,180.4 210.1,180.4 210.1,174.8 "/>
<polyline class="st1" points="212.9,174.8 212.9,180.4 214.1,180.4 214.1,174.8 "/>
<polyline class="st1" points="216.3,174.8 216.3,180.4 217.4,180.4 217.4,174.8 "/>
<polyline class="st1" points="313.4,176.5 313.4,182.1 314.5,182.1 314.5,176.5 "/>
<polyline class="st1" points="316.8,176.5 316.8,182.1 317.9,182.1 317.9,176.5 "/>
<polyline class="st1" points="320.1,176.5 320.1,182.1 321.2,182.1 321.2,176.5 "/>
<polyline class="st1" points="323.5,176.5 323.5,182.1 324.6,182.1 324.6,176.5 "/>
<polyline class="st1" points="326.8,176.5 326.8,182.1 327.9,182.1 327.9,176.5 "/>
<polyline class="st1" points="330.7,176.5 330.7,182.1 331.8,182.1 331.8,176.5 "/>
<polyline class="st1" points="334.6,176.5 334.6,182.1 335.7,182.1 335.7,176.5 "/>
<polyline class="st1" points="338.5,176.5 338.5,182.1 339.6,182.1 339.6,176.5 "/>
<polyline class="st1" points="341.9,176.5 341.9,182.1 343,182.1 343,176.5 "/>
<polyline class="st1" points="63.9,174.8 63.9,180.4 65,180.4 65,174.8 "/>
<polyline class="st1" points="67.3,174.8 67.3,180.4 68.4,180.4 68.4,174.8 "/>
<polyline class="st1" points="70.6,174.8 70.6,180.4 71.7,180.4 71.7,174.8 "/>
<polyline class="st1" points="74,174.8 74,180.4 75.1,180.4 75.1,174.8 "/>
<polyline class="st1" points="77.3,174.8 77.3,180.4 78.4,180.4 78.4,174.8 "/>
<polyline class="st1" points="81.2,174.8 81.2,180.4 82.3,180.4 82.3,174.8 "/>
<polyline class="st1" points="85.1,174.8 85.1,180.4 86.2,180.4 86.2,174.8 "/>
<polyline class="st1" points="89,174.8 89,180.4 90.2,180.4 90.2,174.8 "/>
<polyline class="st1" points="92.4,174.8 92.4,180.4 93.5,180.4 93.5,174.8 "/>
<polyline class="st1" points="105.8,174.2 105.8,179.8 106.9,179.8 106.9,174.2 "/>
<polyline class="st1" points="109.1,174.2 109.1,179.8 110.2,179.8 110.2,174.2 "/>
<polyline class="st1" points="112.5,174.2 112.5,179.8 113.6,179.8 113.6,174.2 "/>
<polyline class="st1" points="115.8,174.2 115.8,179.8 116.9,179.8 116.9,174.2 "/>
<polyline class="st1" points="119.2,174.2 119.2,179.8 120.3,179.8 120.3,174.2 "/>
<polyline class="st1" points="123.1,174.2 123.1,179.8 124.2,179.8 124.2,174.2 "/>
<polyline class="st1" points="127,174.2 127,179.8 128.1,179.8 128.1,174.2 "/>
<polyline class="st1" points="130.9,174.2 130.9,179.8 132,179.8 132,174.2 "/>
<polyline class="st1" points="134.2,174.2 134.2,179.8 135.4,179.8 135.4,174.2 "/>
<polyline class="st1" points="271,176.5 271,182.1 272.1,182.1 272.1,176.5 "/>
<polyline class="st1" points="274.3,176.5 274.3,179.5 275.5,179.5 275.5,176.5 "/>
<polyline class="st1" points="277.9,176.5 277.9,179.5 279.1,179.5 279.1,176.5 "/>
<polyline class="st1" points="281,176.5 281,182.1 282.1,182.1 282.1,176.5 "/>
<polyline class="st1" points="284.4,176.5 284.4,182.1 285.5,182.1 285.5,176.5 "/>
<polyline class="st1" points="288.3,176.5 288.3,182.1 289.4,182.1 289.4,176.5 "/>
<polyline class="st1" points="292.2,176.5 292.2,182.1 293.3,182.1 293.3,176.5 "/>
<polyline class="st1" points="296.1,176.5 296.1,182.1 297.2,182.1 297.2,176.5 "/>
<polyline class="st1" points="299.5,176.5 299.5,182.1 300.6,182.1 300.6,176.5 "/>
<line class="st0" x1="304.8" y1="181.8" x2="281.3" y2="181.8"/>
<line class="st0" x1="309.5" y1="182.2" x2="351.1" y2="182.2"/>
<polyline class="st1" points="304.5,176.5 304.5,182.1 309.5,182.1 309.5,176.5 304.5,176.5 "/>
<polyline class="st1" points="262.1,176.2 262.1,182.1 267.1,182.1 267.1,176.2 262.1,176.2 "/>
<polyline class="st1" points="138.7,174.5 138.7,180.4 143.7,180.4 143.7,174.5 138.7,174.5 "/>
<polyline class="st1" points="96.3,174.5 96.3,180.6 102.7,180.6 102.7,174.5 96.3,174.5 "/>
<polyline class="st1" points="344.7,176.5 344.7,181.8 350.5,181.8 350.5,176.5 344.7,176.5 "/>
<line class="st0" x1="61.4" y1="180.4" x2="96.6" y2="180.4"/>
<line class="st0" x1="103.3" y1="180.4" x2="138.4" y2="180.4"/>
<line class="st0" x1="142.3" y1="180.4" x2="177.5" y2="180.4"/>
<line class="st0" x1="228.3" y1="180.4" x2="263.5" y2="180.4"/>
<polyline class="st1" points="54.7,176.8 61.4,176.8 61.4,174.5 "/>
<polyline class="st1" points="61.4,176.8 61.4,181.8 55.8,181.8 "/>
<polyline class="st1" points="298.9,134.6 109.7,132.7 81.8,132.4 82.3,117.6 96.6,113.1 109.4,113.1 109.4,105.3 109.1,132.9 "/>
<line class="st0" x1="142.1" y1="114" x2="155.4" y2="114"/>
<line class="st0" x1="143.7" y1="114" x2="143.7" y2="133"/>
<line class="st0" x1="153.8" y1="114" x2="153.8" y2="133"/>
<polyline class="st1" points="147.1,113.9 147.1,133 150.7,133 150.4,113.9 "/>
<line class="st0" x1="143.7" y1="124.8" x2="153.8" y2="124.8"/>
<line class="st0" x1="250.3" y1="114" x2="263.7" y2="114"/>
<line class="st0" x1="252" y1="114" x2="252" y2="133"/>
<line class="st0" x1="262.1" y1="114" x2="262.1" y2="133"/>
<polyline class="st1" points="255.4,113.9 255.4,133 259,133 258.7,113.9 "/>
<line class="st0" x1="252" y1="124.8" x2="262.1" y2="124.8"/>
<polyline class="st1" points="190.3,133.2 190.3,122.1 198.1,122.1 198.1,133.2 "/>
<polyline class="st1" points="192.9,132.9 192.9,125.7 195.6,125.7 195.6,133.2 "/>
<polyline class="st1" points="211.3,133.5 211.3,126.2 214.1,126.2 214.1,133.8 "/>
<path class="st1" d="M198.4,122.3c0,0,0-5,5-5.6c0,0,5,0,5.6,5v11.9"/>
<polyline class="st1" points="215.7,133.5 215.7,122.3 209,122.3 "/>
<path class="st1" d="M190.6,122.3c0,0,2.2-11.7,12.8-12.3c0,0,10.1-0.6,12.3,12.3"/>
<polyline class="st1" points="296.4,96.9 213.4,96.8 217.1,100.5 303.3,100.5 300,105.3 109.4,105.3 102.2,97.5 194,97.5 
	191.2,101.1 105.8,101.1 "/>
<polyline class="st1" points="190.6,97.5 190.6,74.9 216.3,74.9 "/>
<polyline class="st1" points="196.8,70.4 196.8,98.9 209,98.9 209,70.4 "/>
<line class="st0" x1="191.2" y1="85.8" x2="216.9" y2="85.8"/>
<polyline class="st1" points="191.2,72.6 216.3,72.6 216.3,74.9 216.3,96.8 "/>
<polygon class="st1" points="248.7,77.7 249.2,81 266,81 267.1,77.7 "/>
<polygon class="st1" points="264.6,96.8 264.6,81 249.8,81 249.8,96.7 "/>
<line class="st0" x1="249.5" y1="90.1" x2="264.3" y2="90.1"/>
<polygon class="st1" points="158.2,77.7 157.7,81 140.9,81 139.8,77.7 "/>
<polygon class="st1" points="142.3,96.8 142.3,81 157.1,81 157.1,96.7 "/>
<line class="st0" x1="157.4" y1="90.1" x2="142.6" y2="90.1"/>
<line class="st0" x1="118.6" y1="74.9" x2="109.7" y2="96.7"/>
<polyline class="st1" points="105.2,83.3 96.3,108.9 109.4,108.9 "/>
<line class="st0" x1="81.8" y1="115.6" x2="96.3" y2="108.9"/>
<path class="st1" d="M85.1,131.3l5.6-2.3v-8.9c0,0-0.6-3.3-2.8-2.2s-2.2,4.5-2.2,4.5L85.1,131.3z"/>
<line class="st0" x1="97.4" y1="92.2" x2="102.8" y2="90.1"/>
<polyline class="st1" points="106.3,79.9 108,79.9 108,83.3 115.2,83.3 "/>
<polyline class="st1" points="113,143 113,154.1 102.7,154.1 102.7,155.8 113,155.8 113,174.2 115.8,174.2 115.8,155.8 126.4,155.8 
	126.4,174.2 128.7,174.2 128.7,155.8 138.1,155.8 138.7,155.8 138.7,154 128.7,154 128.7,143.3 126.4,143.3 126.4,154.1 
	115.8,154.1 115.8,143.1 "/>
<polyline class="st1" points="63.9,142.4 63.9,174.2 68.9,174.2 68.9,154.7 75.6,154.7 75.6,174.2 77.9,174.2 77.9,154.7 
	81.8,154.7 81.8,174.2 85.1,174.2 85.1,154.7 86.8,154.7 86.8,174.5 88.2,174.5 88.5,143 86.8,142.8 86.8,153.6 85.1,153.6 
	85.1,142.8 81.8,142.8 81.8,153.6 77.9,153.6 77.9,143 75.5,142.8 75.6,153.6 66.2,153.6 66.2,146.3 63.9,146.3 "/>
<g>
	<path class="st0" d="M1777.7,147c-0.1-0.1-0.1,0,0,0.2C1777.8,147.2,1777.8,147.1,1777.7,147z"/>
	<path class="st0" d="M1787.1,126.3c0,0,0.1,0,0.3,0C1787.3,126.3,1787.2,126.3,1787.1,126.3z"/>
	<path class="st0" d="M1793.4,124.4C1793.4,124.3,1793.4,124.3,1793.4,124.4C1793.2,124.3,1793.3,124.4,1793.4,124.4z"/>
	<path class="st0" d="M1804.1,149.5c-0.6,0-0.3-1-0.3-1s-2.3,1.7-2.7,1.4c-0.4-0.4,3-4.1,3-4.1c-0.8,0.1-1.6,0.5-2,1.1
		c-0.7,1-1.7,2.4-1.7,2.4c-1,0.9-2.2,1.7-3.4,2.4c-2,1-3.3,3-3.7,2.4c-0.4-0.7-3.4,2.7-4.8,3s1.7-8.2,1.7-8.2c2-0.3,3.4-4.4,4.8-4.4
		s4.8-1.7,4.8-1.7l0.3-1.4l-0.3-0.7l-0.7,0.7c-0.7,1.4-5.8,2.7-5.8,2.7c-4.4,3.8-1.4-1.7-1.4-1.7s4.2-4.4,4.8-5.5
		c0.6-1.1,4.7-3.4,4.4-3.4s0-1.4,0-1.4c-0.7,0-0.7-0.3-0.7-0.3c0,1.4-3.1,2.7-3.1,2.7c-0.9,1.3-1.9,2.6-3,3.7
		c-1.7,1.7-3,3.8-2.7,2.7c0.2-1,0.2-2,0-3c2-5.4,0.7-4.4,1.7-5.1s1.4-3,1.7-2.7c0.3,0.3,2-1.1,3-1.4c1-0.3,1-1,1-1
		c-0.7-0.4,0-1.4,0-1.4s-2.7,2-3.4,2c-0.7,0-1.4,1-1.4,1s0.4-6.1,0-5.5c-0.2,0.3-0.4,0.4-0.6,0.4c0.3,0.7,0,5.7-0.4,5.7
		c-0.4,0-0.7,1.4-0.7,1.4h-1c-1,0-1-3-1-3s-2-4.8-1.7-3.4c0.3,1-0.8,1.3-1.3,1.3c1.3,0.3,2.7,5.8,2.4,6.5c-0.3,0.7,0,3.7-0.3,5.1
		c-0.1,0.6-0.3,1.1-0.7,1.7v1.1l-0.3,5.1c-0.2,1.4-0.5,3-1,4.4c-0.7,1.7-1.4,0-1.7-0.3c-0.3-0.3-0.3-10.5-0.6-11.9
		c0.9-1.6,1.6-3.3,2-5.1c0.4-2.1,0.7-2.4,0.7-2.4c-0.3,0.4-1-0.3-1-0.3l-0.3,0.7c0.3,0.7-1.4,2.7-1.4,3.4c0,0.7-0.3,1.7-0.3,2.3
		c0,0.7-0.3,0.8-0.7,1.4s0.3,0.6,0.3,1.7c0,0.8-1.4,0.3-1.4-1.1s-1.4-4.1-1.4-4.1l-0.7,0.7c1.7,4.4-0.3,4.1-0.3,4.1l-1.4-0.3v0.3
		c0,0,5,3.7,3.8,3.7c-1.1-0.1-5.2-3-5.5-3c-0.2,0-0.8,0.1-1-0.3c-0.1-0.2-0.2-0.2-0.3-0.2s-0.2,0.2-0.2,0.4c0.1,0.5-0.1,1.6,0.2,1.4
		c0.8-0.4,1.7-0.1,2,0.7c1.1,1,5.8,4.6,5.5,5.8c-0.1,0.8,0.2,1.5,0.7,2c-0.2,0.5-0.2,0.9,0,1.4c0.3,0.7,0,4.1,0,4.1l-4.1-5.2
		c0,0-1-1.4-1.7-1.4c-0.5,0-1.1-1-1.4-1.5c-0.2,0.1-0.7,0.1-0.7,0.1c0.2,0.2,0.2,0.5,0,0.7h0.3c1.1,0.4,6.5,7.2,6.5,7.5
		s1.4,3.7,1.4,3.7s1,2,0.3,3c-0.7,1.1-2.3-2-3-2.4s-1.7-2-2.4-2c-0.7,0-1.7-2-1.4-2c0.4,0,0.7-2.4,0.7-2.4s-0.7,2-0.7,1.4
		s-0.3-2-0.3-1.7v1.4c0,1.3-0.7,1-0.7,1l-2-1c-0.5-0.3-1.1-0.5-1.7-0.7c0,0,0.7,0.4,0.7,0.7s-1,0.3-1,0.3c0.4,0.3,1.4,0,1.4,0
		c0.7,0.2,1.4,0.6,2,1c0.5,0.6,1,1.2,1.7,1.7c0.7,0.3,2,2.3,2,2.3c0.7,1.2,1.6,2.3,2.7,3c1.7,1.1,2,4.5,2,4.5
		c-0.2,1.9-0.3,3.8-0.3,5.8c-16.8,0.4-33.4,1.5-46.1,2.6c0.5-5.2,0.5-10.4-0.1-15.6c0,0,0.5-4.5,2.7-5.9c1.5-1.1,2.8-2.4,3.6-4.1
		c0,0,1.8-2.7,2.7-3.2c0.9-0.6,1.7-1.4,2.3-2.3c0.8-0.5,1.7-1,2.7-1.4c0,0,1.4,0.5,1.8,0c0,0-1.4,0-1.4-0.5s0.9-0.9,0.9-0.9
		c-0.8,0.2-1.6,0.5-2.3,0.9l-2.7,1.4c0,0-0.9,0.5-0.9-1.4V141c0-0.5-0.5,1.4-0.5,2.3s-0.9-1.8-0.9-1.8s0.5,3.2,0.9,3.2
		s-0.9,2.7-1.8,2.7s-2.3,2.3-3.2,2.7c-0.9,0.5-3.2,4.5-4.1,3.2c-0.9-1.4,0.5-4.1,0.5-4.1s1.8-4.5,1.8-5c0-0.5,7.3-9.6,8.6-10h0.5
		c-0.2-0.2-0.2-0.6,0-0.9c0,0-0.7,0-0.9-0.2c-0.3,0.6-1.2,2-1.8,2c-0.9,0-2.3,1.8-2.3,1.8l-5.5,6.8c0,0-0.5-4.5,0-5.5s0-2.7,0-2.7
		c0.5-0.5,0.8-1.1,0.9-1.8c0.5-1.4,2.7-4.5,3.2-6.4c0,0,0-0.9,1.4-0.9c0,0,4.1-2.7,5-2.3c0.4,0.2,0.6-0.3,0.8-1
		c0-0.2-0.2-0.5-0.4-0.5c-0.2,0-0.3,0.1-0.4,0.2c-0.4,0.5-0.7,0.8-0.9,0.8c-1.5,0.2-2.9,0.9-4.1,1.8c-0.9,0.1-1.7,0.6-2.3,1.4
		c-0.9,1.4-1.4-0.5-1.4-0.5s1.8-3.2,3.2-3.2c0.8,0.1,1.4-0.3,1.8-0.9l0.5-0.5l-0.9-0.5c-0.8,0.2-1.6,0.5-2.3,0.9
		c-0.5,0.5-1.4,0-1.4,0s-1.4,1.4,1.8-5.5l-0.9-0.9c0,0-1.8,3.6-1.8,5.5c0,1.8-0.5,5-0.9,4.5c-0.6-0.9-1-2-0.9-3.2
		c0-1.4,0.9-1.4,0.5-2.3c-0.5-0.9-0.9-0.9-0.9-1.8s-0.5-2.3-0.5-3.2s-2.3-3.6-1.8-4.5l-0.5-0.9c0,0-0.9,0.9-1.4,0.5
		c0,0,0.5,0.5,0.9,3.2c0.5,2.7,2.7,6.8,2.7,6.8s-0.5,1.4-0.5,5.5s0,10-0.5,10.5c-0.5,0.5-1.4,2.7-2.3,0.5c-0.7-1.9-1.1-3.9-1.4-5.9
		l-0.5-6.8v-1.4c-0.5-0.7-0.8-1.4-0.9-2.3c-0.5-1.8,0-5.9-0.5-6.8c-0.4-0.8,1.5-8.2,3.2-8.7c-0.7-0.1-2.2-0.4-1.8-1.8
		c0.5-1.8-2.3,4.5-2.3,4.5s0,4.1-1.4,4.1h-1.4c0,0-0.5-1.8-0.9-1.8c-0.4,0-0.8-6.7-0.5-7.6c-0.2,0-0.6-0.1-0.8-0.6
		c-0.5-0.9,0,7.3,0,7.3s-0.9-1.4-1.8-1.4c-0.9,0-4.5-2.7-4.5-2.7s0.9,1.4,0,1.8c0,0,0,0.9,1.4,1.4c1.4,0.5,3.6,2.3,4.1,1.8
		c0.5-0.5,0.9,2.7,2.3,3.6c1.4,0.9-0.5-0.5,2.3,6.8c0,0-0.5,2.7,0,4.1c0.5,1.4-1.4-1.4-3.6-3.6c-1.5-1.5-2.9-3.3-4.1-5
		c0,0-4.1-1.8-4.1-3.6c0,0,0,0.5-0.9,0.5c0,0,0.5,1.8,0,1.8s5,3.2,5.9,4.5c0.9,1.4,6.4,7.3,6.4,7.3s4.1,7.3-1.8,2.3
		c0,0-6.8-1.8-7.7-3.6l-0.9-0.9l-0.5,0.9l0.5,1.8c0,0,4.5,2.3,6.4,2.3s3.6,5.5,6.4,5.9c0,0,4.1,11.4,2.3,11c-1.8-0.4-5.9-5-6.4-4.1
		s-2.3-1.8-5-3.2c-1.7-0.8-3.2-1.9-4.5-3.2c0,0-1.4-1.8-2.3-3.2c-0.7-0.8-1.7-1.4-2.7-1.4c0,0,4.5,5,4.1,5.5s-3.6-1.8-3.6-1.8
		s0.5,1.4-0.5,1.4s1.8,0.9,2.7,1.4c0.9,0.5,6.4,3.6,8.2,4.1s1.4,1.8,2.7,2.3c1.4,0.5,1.8,3.2,4.1,3.6c2.3,0.5,2.7,5.5,2.7,5.5
		s-3.2-2.3-4.1-4.1c-0.9-1.8-2.7-2.3-2.7-3.6l-0.5,1.8l1.8,2.7l4.5,5.9c0,0,0.9,4.5,1.4,5.9c0.5,1.4-0.5,7.3-0.5,7.3s-0.5,5-0.5,6.8
		c0,0.1,0,0.3,0,0.6c-10.7,1-17.6,1.7-17.6,1.7c-136-24-585,0-585,0c-32-26-213-7-213-7c-61-20-216,7-216,7c-20-17-117-7-117-7
		c-21-5-112,7-112,7c-11-9-68-10-68-10c-20-8-336,2-347-1s-29,7-29,7c-9-3-29-3-29-3v85h1920v-84c-18-9-66,9-66,9
		c-10.7-6.9-37.5-8.4-64.7-7.9c-0.2-1.3-0.4-3.8-0.2-4.6c0.3-1.1,1-4.5,1-4.5l3.4-4.4l0.7-2l-0.3-1.4c0,1.1-1.4,1.4-2,2.7
		c-0.7,1.4-3,3-3,3s0.4-3.7,2-4.1c1.7-0.4,2-2.4,3-2.7"/>
	<path class="st0" d="M1727.7,102.4c0,0-0.1,0-0.1,0.1C1727.8,102.5,1727.9,102.4,1727.7,102.4z"/>
	<path class="st0" d="M1735.9,105.1c0.3,0,0.4,0,0.4,0C1736.2,105,1736,105,1735.9,105.1z"/>
	<path class="st0" d="M1749.5,132.9c-0.1,0.1-0.1,0.2,0,0.3C1749.6,132.9,1749.6,132.7,1749.5,132.9z"/>
</g>
<path class="st0" d="M1728.6,149.8l4.5,5.9c0,0,0.9,4.5,1.4,5.9c0.5,1.4-0.5,7.3-0.5,7.3s-0.5,5-0.5,6.8s1.4,9.1-4.1,13.3
	c0,0,2.3-1.4,3.6-0.9c1.4,0.5,0.9,2.3,1.8,1.8c0.9-0.5,0.5-1.4,1.4-1.4c0.9,0,3.2,2.3,3.6,1.8c0.5-0.5-0.5-1.8-0.5-1.8
	s0.5-1.4,2.3,0c0,0,0.9,0,0.9-0.5c0,0-3.6-3.2-3.6-5v-6.4c0.6-5.5,0.6-11,0-16.5c0,0,0.5-4.5,2.7-5.9c1.5-1.1,2.8-2.4,3.6-4.1
	c0,0,1.8-2.7,2.7-3.2c0.9-0.6,1.7-1.4,2.3-2.3c0.8-0.5,1.7-1,2.7-1.4c0,0,1.4,0.5,1.8,0c0,0-1.4,0-1.4-0.5s0.9-0.9,0.9-0.9
	c-0.8,0.2-1.6,0.5-2.3,0.9l-2.7,1.4c0,0-0.9,0.5-0.9-1.4V141c0-0.5-0.5,1.4-0.5,2.3s-0.9-1.8-0.9-1.8s0.5,3.2,0.9,3.2
	c0.5,0-0.9,2.7-1.8,2.7s-2.3,2.3-3.2,2.7s-3.2,4.5-4.1,3.2s0.5-4.1,0.5-4.1s1.8-4.5,1.8-5c0-0.5,7.3-9.6,8.6-10h0.5
	c-0.2-0.2-0.2-0.6,0-0.9l0,0c0,0-1.4,0-0.9-0.5c0.5-0.5-0.9,2.3-1.8,2.3c-0.9,0-2.3,1.8-2.3,1.8l-5.5,6.8c0,0-0.5-4.5,0-5.5
	s0-2.7,0-2.7c0.5-0.5,0.8-1.1,0.9-1.8c0.5-1.4,2.7-4.5,3.2-6.4c0,0,0-0.9,1.4-0.9c0,0,4.1-2.7,5-2.3c0.4,0.2,0.6-0.3,0.8-1
	c0-0.2-0.2-0.5-0.4-0.5c-0.2,0-0.3,0.1-0.4,0.2c-0.4,0.5-0.7,0.8-0.9,0.8c-1.5,0.2-2.9,0.9-4.1,1.8c-0.9,0.1-1.7,0.6-2.3,1.4
	c-0.9,1.4-1.4-0.5-1.4-0.5s1.8-3.2,3.2-3.2c0.8,0.1,1.4-0.3,1.8-0.9l0.5-0.5l-0.9-0.5c-0.8,0.2-1.6,0.5-2.3,0.9
	c-0.5,0.5-1.4,0-1.4,0s-1.4,1.4,1.8-5.5l-0.9-0.9c0,0-1.8,3.6-1.8,5.5s-0.5,5-0.9,4.5c-0.6-0.9-1-2-0.9-3.2c0-1.4,0.9-1.4,0.5-2.3
	c-0.5-0.9-0.9-0.9-0.9-1.8c0-0.9-0.5-2.3-0.5-3.2s-2.3-3.6-1.8-4.5l-0.5-0.9c0,0-0.9,0.9-1.4,0.5c0,0,0.5,0.5,0.9,3.2
	s2.7,6.8,2.7,6.8s-0.5,1.4-0.5,5.5c0,4.1,0,10-0.5,10.5s-1.4,2.7-2.3,0.5c-0.7-1.9-1.1-3.9-1.4-5.9l-0.5-6.8v-1.4
	c-0.5-0.7-0.8-1.4-0.9-2.3c-0.5-1.8,0-5.9-0.5-6.8s1.8-9.6,3.6-8.6c0,0-2.7,0-2.3-1.8c0.5-1.8-2.3,4.5-2.3,4.5s0,4.1-1.4,4.1h-1.4
	c0,0-0.5-1.8-0.9-1.8s-0.9-7.7-0.5-7.7s-0.5,0.5-0.9-0.5s0,7.3,0,7.3s-0.9-1.4-1.8-1.4c-0.9,0-4.5-2.7-4.5-2.7s0.9,1.4,0,1.8
	c0,0,0,0.9,1.4,1.4c1.4,0.5,3.6,2.3,4.1,1.8s0.9,2.7,2.3,3.6c1.4,0.9-0.5-0.5,2.3,6.8c0,0-0.5,2.7,0,4.1c0.5,1.4-1.4-1.4-3.6-3.6
	c-1.5-1.5-2.9-3.3-4.1-5c0,0-4.1-1.8-4.1-3.6c0,0,0,0.5-0.9,0.5c0,0,0.5,1.8,0,1.8s5,3.2,5.9,4.5s6.4,7.3,6.4,7.3s4.1,7.3-1.8,2.3
	c0,0-6.8-1.8-7.7-3.6l-0.9-0.9l-0.5,0.9l0.5,1.8c0,0,4.5,2.3,6.4,2.3s3.6,5.5,6.4,5.9c0,0,4.1,11.4,2.3,11c-1.8-0.4-5.9-5-6.4-4.1
	s-2.3-1.8-5-3.2c-1.7-0.8-3.2-1.9-4.5-3.2c0,0-1.4-1.8-2.3-3.2c-0.7-0.8-1.7-1.4-2.7-1.4c0,0,4.5,5,4.1,5.5
	c-0.5,0.5-3.6-1.8-3.6-1.8s0.5,1.4-0.5,1.4c-0.9,0,1.8,0.9,2.7,1.4c0.9,0.5,6.4,3.6,8.2,4.1c1.8,0.5,1.4,1.8,2.7,2.3
	c1.4,0.5,1.8,3.2,4.1,3.6c2.3,0.5,2.7,5.5,2.7,5.5s-3.2-2.3-4.1-4.1c-0.9-1.8-2.7-2.3-2.7-3.6l-0.5,1.8L1728.6,149.8z"/>
<path class="st0" d="M1784.5,145.2l-1-3.4L1784.5,145.2z"/>
<path class="st0" d="M1782.9,151.5"/>
</svg>
