<?xml version="1.0" encoding="utf-8"?>
<!-- Generator: Adobe Illustrator 23.0.1, SVG Export Plug-In . SVG Version: 6.00 Build 0)  -->
<svg version="1.1" id="Layer_1" xmlns="http://www.w3.org/2000/svg" xmlns:xlink="http://www.w3.org/1999/xlink" x="0px" y="0px"
	 viewBox="0 0 544 92" style="enable-background:new 0 0 544 92;" xml:space="preserve">
<style type="text/css">
	.st0{fill:#FFFFFF;}
	.st1{fill:#EED7CB;}
	.st2{opacity:0.5;}
	.st3{fill:#E7C1AA;}
	.st4{opacity:0.8;}
	.st5{opacity:0.2;}
	.st6{fill:#BDCDC4;}
	.st7{fill:#EBE8DB;}
	.st8{opacity:0.25;}
	.st9{fill:#BF815B;}
	.st10{fill:#8B9C7D;}
	.st11{opacity:0.52;}
	.st12{opacity:0.14;}
	.st13{fill:none;stroke:#BDCDC4;stroke-width:2;stroke-miterlimit:10;}
	.st14{fill:none;stroke:#BDCDC4;stroke-miterlimit:10;}
	.st15{fill:none;stroke:#BF815B;stroke-miterlimit:10;}
	.st16{fill:#EBE8DB;stroke:#BDCDC4;stroke-width:2;stroke-miterlimit:10;}
	.st17{fill:none;stroke:#BF815B;stroke-width:3;stroke-miterlimit:10;}
	.st18{fill:#EBE8DB;stroke:#BDCDC4;stroke-miterlimit:10;}
</style>
<g>
	<path class="st6" d="M56.7,50.5H52v-1.2c-0.3,0.2-0.5,0.4-0.7,0.6s-0.5,0.3-0.8,0.5s-0.6,0.2-1,0.3c-0.4,0.1-0.8,0.1-1.3,0.1
		c-0.7,0-1.3-0.1-1.9-0.3c-0.6-0.2-1-0.5-1.4-0.8c-0.4-0.3-0.7-0.8-0.9-1.2c-0.2-0.5-0.3-1-0.3-1.6c0-0.6,0.1-1.1,0.3-1.6
		s0.5-0.9,0.9-1.3c0.4-0.4,0.8-0.7,1.3-1c0.5-0.3,1.1-0.6,1.7-0.8c0.6-0.2,1.2-0.5,1.8-0.7c0.6-0.2,1.2-0.4,1.9-0.6l0.5-0.1v-1.5
		c0-1-0.2-1.6-0.6-2.1c-0.4-0.4-0.9-0.6-1.5-0.6c-0.4,0-0.7,0-0.9,0.1c-0.2,0.1-0.4,0.2-0.6,0.4c-0.1,0.2-0.3,0.4-0.3,0.6
		c-0.1,0.2-0.1,0.4-0.1,0.7c0,0.3,0,0.6-0.1,0.8s-0.2,0.5-0.3,0.7c-0.2,0.2-0.4,0.4-0.6,0.5c-0.3,0.1-0.6,0.2-1,0.2
		c-0.7,0-1.2-0.2-1.6-0.6c-0.4-0.4-0.6-0.8-0.6-1.4c0-0.5,0.2-1,0.5-1.5s0.8-0.8,1.4-1.2c0.6-0.3,1.3-0.6,2.1-0.8s1.6-0.3,2.5-0.3
		c1.1,0,2,0.1,2.8,0.3c0.8,0.2,1.4,0.5,1.9,0.8c0.5,0.4,0.9,0.8,1.1,1.3c0.2,0.5,0.4,1.1,0.4,1.7V50.5z M52,42.7
		c-0.4,0.2-0.9,0.4-1.3,0.7s-0.9,0.5-1.2,0.8s-0.7,0.6-0.9,0.9c-0.2,0.3-0.3,0.7-0.3,1c0,0.3,0,0.6,0.1,0.8c0.1,0.3,0.2,0.5,0.3,0.7
		c0.1,0.2,0.3,0.3,0.4,0.5s0.3,0.2,0.5,0.2c0.4,0,0.7-0.1,1.1-0.3s0.8-0.5,1.3-0.9V42.7z"/>
	<path class="st6" d="M70,40.1c0-0.8-0.2-1.4-0.5-1.8c-0.3-0.4-0.7-0.6-1.1-0.6c-0.2,0-0.4,0-0.7,0.1c-0.3,0.1-0.5,0.2-0.8,0.3
		c-0.3,0.1-0.6,0.3-0.9,0.5c-0.3,0.2-0.6,0.4-0.9,0.7v11.1h-4.6V35.4h4.6v1.2c0.7-0.5,1.5-0.9,2.3-1.1c0.8-0.2,1.6-0.4,2.4-0.4
		c0.6,0,1.2,0.1,1.8,0.4c0.6,0.2,1,0.6,1.5,1c0.4,0.4,0.8,0.9,1,1.5c0.2,0.6,0.4,1.2,0.4,1.8v10.8H70V40.1z"/>
	<path class="st6" d="M93.3,50.8c-1.1,0-2.1-0.2-3-0.6c-0.9-0.4-1.8-0.9-2.5-1.6c-0.7-0.7-1.3-1.5-1.7-2.4c-0.4-0.9-0.6-1.9-0.6-2.8
		c0-1.2,0.2-2.3,0.6-3.3c0.4-1,0.9-1.9,1.6-2.6c0.7-0.7,1.5-1.3,2.5-1.8c1-0.4,2-0.6,3.2-0.6c1.1,0,2,0.2,2.9,0.5
		c0.9,0.3,1.6,0.8,2.2,1.4s1.1,1.3,1.5,2.1c0.3,0.8,0.5,1.6,0.5,2.5H90.1c0,0.8,0.2,1.6,0.4,2.4c0.2,0.8,0.5,1.4,0.8,2
		s0.8,1,1.3,1.4c0.5,0.3,1,0.5,1.6,0.5c0.5,0,1-0.1,1.5-0.3c0.5-0.2,0.9-0.4,1.4-0.7c0.4-0.3,0.8-0.6,1.1-1.1
		c0.3-0.4,0.5-0.8,0.7-1.3l2.4,0.3c-0.2,0.8-0.6,1.6-1.1,2.3c-0.5,0.7-1.1,1.4-1.8,1.9c-0.7,0.5-1.5,1-2.3,1.3S94.2,50.8,93.3,50.8z
		 M95.3,40c0-0.4-0.1-0.8-0.3-1.2c-0.2-0.4-0.4-0.7-0.6-1s-0.5-0.5-0.8-0.6c-0.3-0.1-0.7-0.2-1-0.2c-0.3,0-0.6,0.1-0.8,0.2
		c-0.3,0.1-0.5,0.3-0.7,0.6c-0.2,0.3-0.4,0.6-0.6,0.9c-0.2,0.4-0.3,0.8-0.3,1.2H95.3z"/>
	<path class="st6" d="M105,50.5h-3.3l6.3-7.6l-5.8-7.8h5.2l3.4,4.5l3.7-4.5h3.3l-5.4,6.6l6.6,8.8h-5.2l-4.1-5.6L105,50.5z"/>
	<path class="st6" d="M120.3,35.4h4.6v1.2c0.5-0.4,1.1-0.8,1.8-1.1c0.7-0.3,1.5-0.4,2.4-0.4c1,0,1.9,0.2,2.6,0.6s1.5,0.9,2,1.5
		s1,1.4,1.3,2.3c0.3,0.9,0.5,1.8,0.5,2.7c0,1.2-0.2,2.4-0.5,3.4c-0.4,1.1-0.9,2-1.6,2.7s-1.5,1.4-2.4,1.8s-2,0.6-3.2,0.6
		c-0.6,0-1.1,0-1.6-0.1c-0.4,0-0.9-0.2-1.3-0.3v6.1h-4.6V35.4z M124.9,46.3c0,0.4,0.1,0.7,0.2,1c0.1,0.3,0.3,0.6,0.6,0.8
		c0.2,0.2,0.5,0.4,0.9,0.6c0.3,0.1,0.7,0.2,1.2,0.2c0.4,0,0.8-0.1,1.1-0.4c0.3-0.3,0.7-0.6,0.9-1.1c0.3-0.5,0.5-1,0.6-1.7
		s0.2-1.4,0.2-2.1c0-2-0.3-3.4-0.8-4.4c-0.5-1-1.2-1.5-2-1.5c-0.6,0-1.1,0.2-1.6,0.5s-0.9,0.8-1.3,1.3V46.3z"/>
	<path class="st6" d="M145.5,50.8c-1.1,0-2.1-0.2-3-0.6s-1.8-0.9-2.5-1.6c-0.7-0.7-1.3-1.5-1.7-2.4c-0.4-0.9-0.6-1.9-0.6-2.8
		c0-1.2,0.2-2.3,0.6-3.3c0.4-1,0.9-1.9,1.6-2.6s1.5-1.3,2.5-1.8c1-0.4,2-0.6,3.2-0.6c1.1,0,2,0.2,2.9,0.5c0.9,0.3,1.6,0.8,2.2,1.4
		c0.6,0.6,1.1,1.3,1.5,2.1c0.3,0.8,0.5,1.6,0.5,2.5h-10.5c0,0.8,0.2,1.6,0.4,2.4s0.5,1.4,0.8,2c0.4,0.6,0.8,1,1.3,1.4
		c0.5,0.3,1,0.5,1.6,0.5c0.5,0,1-0.1,1.5-0.3c0.5-0.2,0.9-0.4,1.4-0.7c0.4-0.3,0.8-0.6,1.1-1.1c0.3-0.4,0.5-0.8,0.7-1.3l2.4,0.3
		c-0.2,0.8-0.6,1.6-1.1,2.3c-0.5,0.7-1.1,1.4-1.8,1.9c-0.7,0.5-1.5,1-2.3,1.3C147.1,50.7,146.3,50.8,145.5,50.8z M147.4,40
		c0-0.4-0.1-0.8-0.3-1.2c-0.2-0.4-0.4-0.7-0.6-1c-0.2-0.3-0.5-0.5-0.8-0.6c-0.3-0.1-0.7-0.2-1-0.2c-0.3,0-0.6,0.1-0.8,0.2
		c-0.3,0.1-0.5,0.3-0.7,0.6c-0.2,0.3-0.4,0.6-0.6,0.9c-0.2,0.4-0.3,0.8-0.3,1.2H147.4z"/>
	<path class="st6" d="M160.6,50.5H156V35.4h4.6v1.1c0.5-0.5,1.1-0.9,1.7-1.3c0.6-0.3,1.3-0.5,2-0.5c0.4,0,0.8,0.1,1.2,0.2
		c0.4,0.1,0.7,0.3,0.9,0.4c0.3,0.2,0.5,0.4,0.6,0.7s0.2,0.5,0.2,0.8c0,0.3-0.1,0.5-0.2,0.7c-0.1,0.2-0.2,0.4-0.4,0.6
		c-0.2,0.2-0.4,0.3-0.6,0.4c-0.2,0.1-0.5,0.1-0.8,0.1c-0.4,0-0.7-0.1-0.9-0.2s-0.4-0.2-0.6-0.4s-0.4-0.3-0.6-0.4
		c-0.2-0.1-0.4-0.2-0.7-0.2c-0.2,0-0.3,0.1-0.5,0.2s-0.3,0.3-0.5,0.5c-0.2,0.2-0.3,0.4-0.4,0.7c-0.1,0.3-0.3,0.5-0.4,0.8V50.5z"/>
	<path class="st6" d="M169.1,30.5c0-0.3,0.1-0.6,0.2-0.9c0.1-0.3,0.3-0.5,0.5-0.7c0.2-0.2,0.5-0.4,0.8-0.5s0.6-0.2,1-0.2
		c0.3,0,0.7,0.1,1,0.2s0.6,0.3,0.8,0.5c0.2,0.2,0.4,0.4,0.5,0.7c0.1,0.3,0.2,0.6,0.2,0.9c0,0.3-0.1,0.6-0.2,0.9
		c-0.1,0.3-0.3,0.5-0.5,0.7c-0.2,0.2-0.5,0.4-0.8,0.5s-0.6,0.2-1,0.2c-0.3,0-0.7-0.1-1-0.2s-0.6-0.3-0.8-0.5
		c-0.2-0.2-0.4-0.4-0.5-0.7C169.2,31.1,169.1,30.8,169.1,30.5z M169.3,36.2l4.6-1.3v15.6h-4.6V36.2z"/>
	<path class="st6" d="M184.8,50.8c-1.1,0-2.1-0.2-3-0.6s-1.8-0.9-2.5-1.6c-0.7-0.7-1.3-1.5-1.7-2.4c-0.4-0.9-0.6-1.9-0.6-2.8
		c0-1.2,0.2-2.3,0.6-3.3c0.4-1,0.9-1.9,1.6-2.6s1.5-1.3,2.5-1.8c1-0.4,2-0.6,3.2-0.6c1.1,0,2,0.2,2.9,0.5c0.9,0.3,1.6,0.8,2.2,1.4
		c0.6,0.6,1.1,1.3,1.5,2.1c0.3,0.8,0.5,1.6,0.5,2.5h-10.5c0,0.8,0.2,1.6,0.4,2.4s0.5,1.4,0.8,2c0.4,0.6,0.8,1,1.3,1.4
		c0.5,0.3,1,0.5,1.6,0.5c0.5,0,1-0.1,1.5-0.3c0.5-0.2,0.9-0.4,1.4-0.7c0.4-0.3,0.8-0.6,1.1-1.1c0.3-0.4,0.5-0.8,0.7-1.3l2.4,0.3
		c-0.2,0.8-0.6,1.6-1.1,2.3c-0.5,0.7-1.1,1.4-1.8,1.9c-0.7,0.5-1.5,1-2.3,1.3C186.5,50.7,185.7,50.8,184.8,50.8z M186.8,40
		c0-0.4-0.1-0.8-0.3-1.2c-0.2-0.4-0.4-0.7-0.6-1c-0.2-0.3-0.5-0.5-0.8-0.6c-0.3-0.1-0.7-0.2-1-0.2c-0.3,0-0.6,0.1-0.8,0.2
		c-0.3,0.1-0.5,0.3-0.7,0.6c-0.2,0.3-0.4,0.6-0.6,0.9c-0.2,0.4-0.3,0.8-0.3,1.2H186.8z"/>
	<path class="st6" d="M204.7,40.1c0-0.8-0.2-1.4-0.5-1.8c-0.3-0.4-0.7-0.6-1.1-0.6c-0.2,0-0.4,0-0.7,0.1c-0.3,0.1-0.5,0.2-0.8,0.3
		c-0.3,0.1-0.6,0.3-0.9,0.5c-0.3,0.2-0.6,0.4-0.9,0.7v11.1h-4.6V35.4h4.6v1.2c0.7-0.5,1.5-0.9,2.3-1.1c0.8-0.2,1.6-0.4,2.4-0.4
		c0.6,0,1.2,0.1,1.8,0.4c0.6,0.2,1,0.6,1.5,1s0.8,0.9,1,1.5c0.2,0.6,0.4,1.2,0.4,1.8v10.8h-4.6V40.1z"/>
	<path class="st6" d="M219.9,36.9c-0.5,0-0.9,0.1-1.3,0.4c-0.4,0.2-0.7,0.6-1,1c-0.3,0.4-0.5,0.9-0.6,1.5c-0.2,0.6-0.2,1.1-0.2,1.7
		c0,0.9,0.1,1.7,0.3,2.4c0.2,0.8,0.5,1.4,0.8,2c0.3,0.6,0.8,1.1,1.3,1.4s1,0.5,1.7,0.5c0.5,0,1-0.1,1.4-0.3c0.4-0.2,0.8-0.5,1.1-0.8
		c0.3-0.4,0.6-0.8,0.9-1.2c0.3-0.5,0.5-1,0.8-1.5l2.2,0.6c-0.5,2-1.4,3.5-2.7,4.6c-1.3,1.1-2.8,1.6-4.7,1.6c-1,0-2-0.2-2.9-0.6
		s-1.7-0.9-2.4-1.6c-0.7-0.7-1.2-1.5-1.6-2.4c-0.4-0.9-0.6-1.9-0.6-2.9c0-1.1,0.2-2.2,0.6-3.2c0.4-1,1-1.9,1.7-2.6
		c0.7-0.7,1.6-1.3,2.5-1.8c1-0.4,2-0.7,3.1-0.7c0.9,0,1.8,0.1,2.5,0.3c0.8,0.2,1.4,0.5,1.9,0.8c0.5,0.3,0.9,0.7,1.2,1.2
		c0.3,0.5,0.4,1,0.4,1.5c0,0.3-0.1,0.5-0.2,0.7c-0.2,0.2-0.3,0.4-0.6,0.6c-0.2,0.2-0.5,0.3-0.8,0.4c-0.3,0.1-0.6,0.1-1,0.1
		c-0.4,0-0.7,0-1-0.1s-0.5-0.2-0.7-0.4s-0.3-0.4-0.4-0.6c-0.1-0.2-0.1-0.4-0.1-0.7s0-0.5,0-0.7c0-0.2-0.1-0.4-0.2-0.6
		c-0.1-0.2-0.2-0.4-0.4-0.5C220.6,37,220.3,36.9,219.9,36.9z"/>
	<path class="st6" d="M237,50.8c-1.1,0-2.1-0.2-3-0.6c-0.9-0.4-1.8-0.9-2.5-1.6c-0.7-0.7-1.3-1.5-1.7-2.4c-0.4-0.9-0.6-1.9-0.6-2.8
		c0-1.2,0.2-2.3,0.6-3.3c0.4-1,0.9-1.9,1.6-2.6c0.7-0.7,1.5-1.3,2.5-1.8c1-0.4,2-0.6,3.2-0.6c1.1,0,2,0.2,2.9,0.5
		c0.9,0.3,1.6,0.8,2.2,1.4s1.1,1.3,1.5,2.1c0.3,0.8,0.5,1.6,0.5,2.5h-10.5c0,0.8,0.2,1.6,0.4,2.4c0.2,0.8,0.5,1.4,0.8,2
		s0.8,1,1.3,1.4c0.5,0.3,1,0.5,1.6,0.5c0.5,0,1-0.1,1.5-0.3c0.5-0.2,0.9-0.4,1.4-0.7c0.4-0.3,0.8-0.6,1.1-1.1
		c0.3-0.4,0.5-0.8,0.7-1.3l2.4,0.3c-0.2,0.8-0.6,1.6-1.1,2.3c-0.5,0.7-1.1,1.4-1.8,1.9c-0.7,0.5-1.5,1-2.3,1.3S237.8,50.8,237,50.8z
		 M238.9,40c0-0.4-0.1-0.8-0.3-1.2c-0.2-0.4-0.4-0.7-0.6-1s-0.5-0.5-0.8-0.6c-0.3-0.1-0.7-0.2-1-0.2c-0.3,0-0.6,0.1-0.8,0.2
		c-0.3,0.1-0.5,0.3-0.7,0.6c-0.2,0.3-0.4,0.6-0.6,0.9c-0.2,0.4-0.3,0.8-0.3,1.2H238.9z"/>
	<path class="st6" d="M263.3,50.8c-1.2,0-2.3-0.2-3.3-0.6c-1-0.4-1.9-0.9-2.6-1.6c-0.7-0.7-1.3-1.5-1.7-2.4c-0.4-0.9-0.6-1.9-0.6-3
		c0-1.2,0.2-2.2,0.6-3.2c0.4-1,1-1.8,1.7-2.5s1.6-1.3,2.6-1.7s2.1-0.6,3.3-0.6c1.2,0,2.3,0.2,3.4,0.6c1,0.4,1.9,0.9,2.7,1.6
		c0.7,0.7,1.3,1.5,1.8,2.4c0.4,0.9,0.6,1.9,0.6,3c0,1.1-0.2,2.2-0.6,3.2c-0.4,1-1,1.8-1.8,2.6c-0.7,0.7-1.6,1.3-2.7,1.8
		S264.5,50.8,263.3,50.8z M263.8,48.9c0.4,0,0.8-0.1,1.2-0.4c0.4-0.3,0.7-0.6,0.9-1.1c0.3-0.5,0.5-1,0.6-1.6
		c0.1-0.6,0.2-1.2,0.2-1.9c0-1-0.1-1.9-0.2-2.7c-0.1-0.9-0.4-1.6-0.7-2.2c-0.3-0.6-0.7-1.2-1.3-1.5c-0.5-0.4-1.2-0.6-1.9-0.6
		c-0.4,0-0.7,0.1-1,0.4s-0.6,0.6-0.9,1.1s-0.5,1-0.6,1.6c-0.2,0.6-0.2,1.2-0.2,1.9c0,1,0.1,1.9,0.3,2.8c0.2,0.9,0.4,1.6,0.8,2.3
		c0.3,0.7,0.8,1.2,1.3,1.6S263.2,48.9,263.8,48.9z"/>
	<path class="st6" d="M280.8,35.4h3.8v1.8h-3.8v13.3h-4.6V37.2h-3v-1.8h3v-1.7c0-0.8,0.2-1.5,0.5-2.2c0.3-0.7,0.7-1.3,1.3-1.9
		c0.6-0.5,1.2-1,2-1.3c0.8-0.3,1.6-0.5,2.5-0.5c0.8,0,1.4,0.1,2,0.2c0.6,0.1,1,0.3,1.4,0.6s0.6,0.5,0.8,0.8c0.2,0.3,0.3,0.6,0.3,1
		c0,0.3,0,0.5-0.1,0.7c-0.1,0.2-0.2,0.4-0.4,0.6s-0.4,0.3-0.6,0.4c-0.2,0.1-0.5,0.1-0.8,0.1c-0.4,0-0.7-0.1-0.9-0.2
		s-0.3-0.3-0.4-0.5s-0.2-0.5-0.2-0.7c0-0.3-0.1-0.5-0.2-0.7s-0.2-0.4-0.3-0.5c-0.1-0.1-0.4-0.2-0.7-0.2c-1,0-1.4,0.8-1.4,2.5V35.4z"
		/>
	<path class="st6" d="M296.9,46.3c0.3,0.8,0.7,1.5,1.2,1.9s1.1,0.7,1.9,0.7c0.6,0,1.1-0.2,1.5-0.5c0.4-0.3,0.6-0.7,0.6-1.1
		c0-0.4-0.1-0.7-0.2-1s-0.3-0.5-0.6-0.8c-0.2-0.2-0.5-0.4-0.9-0.6c-0.3-0.2-0.7-0.4-1.1-0.5c-0.6-0.3-1.2-0.6-1.8-0.9
		c-0.6-0.3-1.1-0.7-1.6-1.1c-0.5-0.4-0.9-0.9-1.2-1.4s-0.4-1.1-0.4-1.8c0-0.6,0.1-1.2,0.4-1.8s0.6-1,1.1-1.4
		c0.5-0.4,1.1-0.7,1.7-0.9c0.7-0.2,1.4-0.3,2.2-0.3c0.7,0,1.4,0.1,2,0.2c0.6,0.1,1.1,0.3,1.5,0.6c0.4,0.3,0.8,0.6,1.2,0.9
		s0.6,0.8,0.9,1.2l-2.7,0.9c-0.1-0.5-0.3-0.9-0.5-1.1c-0.2-0.3-0.4-0.5-0.6-0.6c-0.2-0.1-0.4-0.2-0.6-0.2c-0.2,0-0.4,0-0.6,0
		c-0.3,0-0.5,0-0.8,0.1c-0.3,0.1-0.5,0.2-0.7,0.3c-0.2,0.1-0.4,0.3-0.5,0.4c-0.1,0.2-0.2,0.4-0.2,0.6c0,0.3,0.1,0.6,0.2,0.8
		c0.1,0.3,0.4,0.5,0.6,0.7c0.3,0.2,0.6,0.4,0.9,0.6c0.4,0.2,0.7,0.4,1.2,0.6c0.6,0.3,1.3,0.6,1.9,0.9c0.6,0.3,1.2,0.7,1.6,1.1
		c0.5,0.4,0.9,0.9,1.1,1.4c0.3,0.5,0.4,1.1,0.4,1.7c0,0.7-0.1,1.3-0.3,1.8c-0.2,0.6-0.6,1.1-1.1,1.5c-0.5,0.4-1.1,0.8-1.9,1
		c-0.8,0.2-1.7,0.4-2.8,0.4c-0.9,0-1.7-0.1-2.4-0.3s-1.2-0.5-1.7-0.8c-0.5-0.3-0.8-0.7-1.1-1.1c-0.3-0.4-0.6-0.8-0.8-1.3L296.9,46.3
		z"/>
	<path class="st6" d="M316.9,50.8c-1.2,0-2.3-0.2-3.3-0.6c-1-0.4-1.9-0.9-2.6-1.6c-0.7-0.7-1.3-1.5-1.7-2.4c-0.4-0.9-0.6-1.9-0.6-3
		c0-1.2,0.2-2.2,0.6-3.2c0.4-1,1-1.8,1.7-2.5s1.6-1.3,2.6-1.7s2.1-0.6,3.3-0.6c1.2,0,2.3,0.2,3.4,0.6c1,0.4,1.9,0.9,2.7,1.6
		c0.7,0.7,1.3,1.5,1.8,2.4c0.4,0.9,0.6,1.9,0.6,3c0,1.1-0.2,2.2-0.6,3.2c-0.4,1-1,1.8-1.8,2.6c-0.7,0.7-1.6,1.3-2.7,1.8
		S318.1,50.8,316.9,50.8z M317.4,48.9c0.4,0,0.8-0.1,1.2-0.4c0.4-0.3,0.7-0.6,0.9-1.1c0.3-0.5,0.5-1,0.6-1.6
		c0.1-0.6,0.2-1.2,0.2-1.9c0-1-0.1-1.9-0.2-2.7c-0.1-0.9-0.4-1.6-0.7-2.2c-0.3-0.6-0.7-1.2-1.3-1.5c-0.5-0.4-1.2-0.6-1.9-0.6
		c-0.4,0-0.7,0.1-1,0.4s-0.6,0.6-0.9,1.1s-0.5,1-0.6,1.6c-0.2,0.6-0.2,1.2-0.2,1.9c0,1,0.1,1.9,0.3,2.8c0.2,0.9,0.4,1.6,0.8,2.3
		c0.3,0.7,0.8,1.2,1.3,1.6S316.8,48.9,317.4,48.9z"/>
	<path class="st6" d="M332.7,35.4V46c0,0.3,0.1,0.6,0.2,0.8c0.1,0.3,0.3,0.5,0.5,0.7c0.2,0.2,0.4,0.3,0.7,0.5
		c0.3,0.1,0.6,0.2,0.9,0.2c0.2,0,0.4,0,0.6-0.1c0.2-0.1,0.4-0.2,0.6-0.4c0.2-0.2,0.4-0.4,0.7-0.6c0.2-0.2,0.4-0.5,0.6-0.7V35.4h4.6
		v15.1h-4.6v-1.4c-0.6,0.5-1.2,0.9-1.9,1.2c-0.7,0.3-1.4,0.5-2,0.5c-0.8,0-1.5-0.1-2.1-0.4c-0.6-0.2-1.2-0.6-1.7-1
		c-0.5-0.4-0.9-0.9-1.1-1.5c-0.3-0.6-0.4-1.2-0.4-1.8V35.4H332.7z"/>
	<path class="st6" d="M354.8,40.1c0-0.8-0.2-1.4-0.5-1.8c-0.3-0.4-0.7-0.6-1.1-0.6c-0.2,0-0.4,0-0.7,0.1c-0.3,0.1-0.5,0.2-0.8,0.3
		c-0.3,0.1-0.6,0.3-0.9,0.5c-0.3,0.2-0.6,0.4-0.9,0.7v11.1h-4.6V35.4h4.6v1.2c0.7-0.5,1.5-0.9,2.3-1.1c0.8-0.2,1.6-0.4,2.4-0.4
		c0.6,0,1.2,0.1,1.8,0.4c0.6,0.2,1,0.6,1.5,1s0.8,0.9,1,1.5c0.2,0.6,0.4,1.2,0.4,1.8v10.8h-4.6V40.1z"/>
	<path class="st6" d="M372.9,49.6c-0.6,0.4-1.2,0.7-1.8,0.9s-1.3,0.3-2,0.3c-1,0-1.8-0.2-2.7-0.6c-0.8-0.4-1.6-1-2.2-1.7
		c-0.6-0.7-1.1-1.5-1.5-2.5c-0.4-0.9-0.5-1.9-0.5-2.9c0-1,0.2-2,0.7-3c0.4-1,1-1.8,1.8-2.6s1.6-1.4,2.6-1.8c1-0.5,2.1-0.7,3.2-0.7
		c0.4,0,0.9,0,1.3,0.1c0.4,0.1,0.7,0.2,1.1,0.3v-6.2l4.6-1.3v22.5h-4.6V49.6z M372.9,40.2c0-0.5-0.1-0.9-0.2-1.3
		c-0.2-0.4-0.4-0.7-0.6-1c-0.2-0.3-0.5-0.5-0.8-0.7c-0.3-0.2-0.6-0.2-0.9-0.2c-0.4,0-0.8,0.1-1.2,0.4s-0.7,0.6-1,1.1
		c-0.3,0.5-0.5,1-0.7,1.7c-0.2,0.7-0.2,1.4-0.2,2.1c0,0.8,0.1,1.6,0.3,2.4c0.2,0.8,0.4,1.4,0.8,2c0.3,0.6,0.7,1,1.1,1.4
		c0.4,0.3,0.9,0.5,1.4,0.5c0.2,0,0.4,0,0.6-0.1c0.2-0.1,0.4-0.1,0.6-0.2c0.2-0.1,0.4-0.2,0.5-0.3c0.2-0.1,0.3-0.3,0.5-0.4V40.2z"/>
	<path class="st6" d="M405.5,50.8c-0.8,0-1.5-0.1-2.3-0.4s-1.6-0.7-2.3-1.2c-0.8,0.5-1.7,0.9-2.7,1.2s-2.1,0.4-3.4,0.4
		c-1,0-1.9-0.1-2.7-0.3c-0.8-0.2-1.5-0.5-2-1c-0.5-0.4-1-0.9-1.2-1.4c-0.3-0.6-0.4-1.2-0.4-1.8c0-0.7,0.1-1.4,0.4-2
		c0.3-0.6,0.7-1.1,1.2-1.6c0.5-0.5,1-1,1.7-1.4s1.3-0.8,2-1.2c-0.3-0.8-0.5-1.5-0.7-2.2s-0.3-1.4-0.3-2.1c0-0.7,0.1-1.3,0.4-2
		c0.3-0.6,0.7-1.2,1.2-1.7s1.1-0.9,1.9-1.2c0.7-0.3,1.5-0.5,2.4-0.5c0.6,0,1.2,0.1,1.8,0.2c0.6,0.2,1.2,0.4,1.7,0.7
		c0.5,0.3,0.9,0.8,1.2,1.3c0.3,0.5,0.5,1.2,0.5,1.9c0,0.7-0.2,1.3-0.5,1.8c-0.3,0.6-0.7,1.1-1.3,1.5c-0.5,0.5-1.1,0.9-1.8,1.3
		c-0.7,0.4-1.3,0.8-2,1.2c0.4,0.9,0.9,1.8,1.4,2.6c0.5,0.9,1.1,1.6,1.7,2.4c0.4-0.4,0.9-0.9,1.3-1.4c0.4-0.5,0.8-1,1.1-1.5
		c0.3-0.5,0.6-1,0.9-1.4c0.3-0.5,0.5-0.9,0.7-1.3l2.3,1.5c-0.7,1.1-1.4,2.1-2.1,3.1c-0.7,1-1.4,1.9-2.2,2.7c0.5,0.4,1,0.7,1.5,0.9
		s1,0.3,1.5,0.3c0.4,0,0.8-0.1,1.1-0.2c0.3-0.1,0.6-0.3,0.8-0.6c0.2-0.2,0.5-0.5,0.7-0.8c0.2-0.3,0.4-0.7,0.5-1.1l1.8,0.8
		c-0.5,1.5-1.1,2.6-2.1,3.2C408.1,50.5,407,50.8,405.5,50.8z M395.6,48.4c0.5,0,1.1-0.1,1.6-0.3c0.5-0.2,1.1-0.4,1.6-0.7
		c-0.8-0.7-1.5-1.5-2.1-2.3s-1.3-1.7-1.8-2.6c-0.6,0.5-1.2,1-1.6,1.5c-0.4,0.5-0.6,1.1-0.6,1.8c0,0.4,0.1,0.7,0.2,1s0.3,0.6,0.5,0.9
		s0.5,0.4,0.9,0.6S395.1,48.4,395.6,48.4z M396.8,35.3c0,0.8,0.1,1.7,0.4,2.6c0.4-0.3,0.8-0.6,1.2-0.8c0.4-0.3,0.7-0.6,1-0.9
		s0.5-0.6,0.6-1c0.2-0.3,0.2-0.7,0.2-1.1c0-0.7-0.1-1.2-0.4-1.5c-0.3-0.3-0.6-0.4-1.1-0.4c-0.3,0-0.5,0.1-0.8,0.2
		c-0.2,0.2-0.4,0.4-0.6,0.6c-0.2,0.3-0.3,0.6-0.4,1S396.8,34.9,396.8,35.3z"/>
	<path class="st6" d="M423,46.3c0.3,0.8,0.7,1.5,1.2,1.9s1.1,0.7,1.9,0.7c0.6,0,1.1-0.2,1.5-0.5c0.4-0.3,0.6-0.7,0.6-1.1
		c0-0.4-0.1-0.7-0.2-1s-0.3-0.5-0.6-0.8s-0.5-0.4-0.9-0.6c-0.3-0.2-0.7-0.4-1.1-0.5c-0.6-0.3-1.2-0.6-1.8-0.9
		c-0.6-0.3-1.1-0.7-1.6-1.1s-0.9-0.9-1.2-1.4c-0.3-0.5-0.4-1.1-0.4-1.8c0-0.6,0.1-1.2,0.4-1.8s0.6-1,1.1-1.4
		c0.5-0.4,1.1-0.7,1.7-0.9c0.7-0.2,1.4-0.3,2.2-0.3c0.7,0,1.4,0.1,2,0.2c0.6,0.1,1.1,0.3,1.5,0.6c0.4,0.3,0.8,0.6,1.2,0.9
		s0.6,0.8,0.9,1.2L429,39c-0.1-0.5-0.3-0.9-0.5-1.1c-0.2-0.3-0.4-0.5-0.6-0.6c-0.2-0.1-0.4-0.2-0.6-0.2c-0.2,0-0.4,0-0.6,0
		c-0.3,0-0.5,0-0.8,0.1c-0.3,0.1-0.5,0.2-0.7,0.3c-0.2,0.1-0.4,0.3-0.5,0.4c-0.1,0.2-0.2,0.4-0.2,0.6c0,0.3,0.1,0.6,0.2,0.8
		c0.2,0.3,0.4,0.5,0.6,0.7c0.3,0.2,0.6,0.4,0.9,0.6c0.4,0.2,0.8,0.4,1.2,0.6c0.6,0.3,1.3,0.6,1.9,0.9c0.6,0.3,1.2,0.7,1.6,1.1
		c0.5,0.4,0.9,0.9,1.1,1.4c0.3,0.5,0.4,1.1,0.4,1.7c0,0.7-0.1,1.3-0.3,1.8c-0.2,0.6-0.6,1.1-1.1,1.5c-0.5,0.4-1.1,0.8-1.9,1
		s-1.7,0.4-2.8,0.4c-0.9,0-1.7-0.1-2.4-0.3c-0.7-0.2-1.2-0.5-1.7-0.8c-0.5-0.3-0.8-0.7-1.1-1.1c-0.3-0.4-0.6-0.8-0.8-1.3L423,46.3z"
		/>
	<path class="st6" d="M435.3,35.4h4.6v1.2c0.5-0.4,1.1-0.8,1.8-1.1c0.7-0.3,1.5-0.4,2.4-0.4c1,0,1.9,0.2,2.6,0.6s1.5,0.9,2,1.5
		s1,1.4,1.3,2.3c0.3,0.9,0.5,1.8,0.5,2.7c0,1.2-0.2,2.4-0.5,3.4c-0.4,1.1-0.9,2-1.6,2.7s-1.5,1.4-2.4,1.8s-2,0.6-3.2,0.6
		c-0.6,0-1.1,0-1.6-0.1c-0.4,0-0.9-0.2-1.3-0.3v6.1h-4.6V35.4z M440,46.3c0,0.4,0.1,0.7,0.2,1c0.1,0.3,0.3,0.6,0.6,0.8
		c0.2,0.2,0.5,0.4,0.9,0.6c0.3,0.1,0.7,0.2,1.2,0.2c0.4,0,0.8-0.1,1.1-0.4c0.3-0.3,0.7-0.6,0.9-1.1c0.3-0.5,0.5-1,0.6-1.7
		s0.2-1.4,0.2-2.1c0-2-0.3-3.4-0.8-4.4c-0.5-1-1.2-1.5-2-1.5c-0.6,0-1.1,0.2-1.6,0.5s-0.9,0.8-1.3,1.3V46.3z"/>
	<path class="st6" d="M465.5,50.5h-4.6v-1.2c-0.3,0.2-0.5,0.4-0.7,0.6c-0.2,0.2-0.5,0.3-0.8,0.5c-0.3,0.1-0.6,0.2-1,0.3
		c-0.4,0.1-0.8,0.1-1.3,0.1c-0.7,0-1.3-0.1-1.9-0.3s-1-0.5-1.4-0.8s-0.7-0.8-0.9-1.2s-0.3-1-0.3-1.6c0-0.6,0.1-1.1,0.3-1.6
		c0.2-0.5,0.5-0.9,0.9-1.3c0.4-0.4,0.8-0.7,1.3-1c0.5-0.3,1.1-0.6,1.7-0.8s1.2-0.5,1.8-0.7c0.6-0.2,1.2-0.4,1.9-0.6l0.5-0.1v-1.5
		c0-1-0.2-1.6-0.6-2.1c-0.4-0.4-0.9-0.6-1.5-0.6c-0.4,0-0.7,0-0.9,0.1c-0.2,0.1-0.4,0.2-0.6,0.4c-0.2,0.2-0.3,0.4-0.3,0.6
		s-0.1,0.4-0.1,0.7c0,0.3,0,0.6-0.1,0.8c-0.1,0.3-0.2,0.5-0.3,0.7c-0.2,0.2-0.4,0.4-0.6,0.5c-0.3,0.1-0.6,0.2-1,0.2
		c-0.7,0-1.2-0.2-1.6-0.6c-0.4-0.4-0.6-0.8-0.6-1.4c0-0.5,0.2-1,0.5-1.5c0.4-0.4,0.8-0.8,1.4-1.2c0.6-0.3,1.3-0.6,2.1-0.8
		s1.6-0.3,2.5-0.3c1.1,0,2,0.1,2.8,0.3c0.8,0.2,1.4,0.5,1.9,0.8c0.5,0.4,0.9,0.8,1.1,1.3c0.2,0.5,0.4,1.1,0.4,1.7V50.5z M460.9,42.7
		c-0.4,0.2-0.9,0.4-1.3,0.7c-0.5,0.2-0.9,0.5-1.2,0.8s-0.7,0.6-0.9,0.9s-0.3,0.7-0.3,1c0,0.3,0,0.6,0.1,0.8c0.1,0.3,0.2,0.5,0.3,0.7
		c0.1,0.2,0.3,0.3,0.4,0.5s0.3,0.2,0.5,0.2c0.4,0,0.7-0.1,1.1-0.3c0.4-0.2,0.8-0.5,1.3-0.9V42.7z"/>
	<path class="st6" d="M476.7,36.9c-0.5,0-0.9,0.1-1.3,0.4c-0.4,0.2-0.7,0.6-1,1c-0.3,0.4-0.5,0.9-0.6,1.5c-0.1,0.6-0.2,1.1-0.2,1.7
		c0,0.9,0.1,1.7,0.3,2.4c0.2,0.8,0.5,1.4,0.8,2c0.3,0.6,0.8,1.1,1.3,1.4c0.5,0.3,1,0.5,1.7,0.5c0.5,0,1-0.1,1.4-0.3
		c0.4-0.2,0.8-0.5,1.1-0.8c0.3-0.4,0.6-0.8,0.9-1.2c0.3-0.5,0.5-1,0.8-1.5l2.2,0.6c-0.5,2-1.4,3.5-2.7,4.6c-1.3,1.1-2.8,1.6-4.7,1.6
		c-1,0-2-0.2-2.9-0.6c-0.9-0.4-1.7-0.9-2.4-1.6c-0.7-0.7-1.2-1.5-1.6-2.4s-0.6-1.9-0.6-2.9c0-1.1,0.2-2.2,0.6-3.2
		c0.4-1,1-1.9,1.7-2.6s1.6-1.3,2.5-1.8c1-0.4,2-0.7,3.1-0.7c0.9,0,1.8,0.1,2.5,0.3c0.8,0.2,1.4,0.5,1.9,0.8c0.5,0.3,0.9,0.7,1.2,1.2
		c0.3,0.5,0.4,1,0.4,1.5c0,0.3-0.1,0.5-0.2,0.7c-0.1,0.2-0.3,0.4-0.6,0.6c-0.2,0.2-0.5,0.3-0.8,0.4c-0.3,0.1-0.6,0.1-1,0.1
		c-0.4,0-0.7,0-1-0.1c-0.3-0.1-0.5-0.2-0.7-0.4c-0.2-0.2-0.3-0.4-0.4-0.6s-0.1-0.4-0.1-0.7s0-0.5,0-0.7c0-0.2-0.1-0.4-0.2-0.6
		c-0.1-0.2-0.2-0.4-0.4-0.5C477.3,37,477,36.9,476.7,36.9z"/>
	<path class="st6" d="M493.7,50.8c-1.1,0-2.1-0.2-3-0.6s-1.8-0.9-2.5-1.6c-0.7-0.7-1.3-1.5-1.7-2.4c-0.4-0.9-0.6-1.9-0.6-2.8
		c0-1.2,0.2-2.3,0.6-3.3c0.4-1,0.9-1.9,1.6-2.6s1.5-1.3,2.5-1.8c1-0.4,2-0.6,3.2-0.6c1.1,0,2,0.2,2.9,0.5c0.9,0.3,1.6,0.8,2.2,1.4
		c0.6,0.6,1.1,1.3,1.5,2.1c0.3,0.8,0.5,1.6,0.5,2.5h-10.5c0,0.8,0.2,1.6,0.4,2.4s0.5,1.4,0.8,2c0.4,0.6,0.8,1,1.3,1.4
		c0.5,0.3,1,0.5,1.6,0.5c0.5,0,1-0.1,1.5-0.3c0.5-0.2,0.9-0.4,1.4-0.7c0.4-0.3,0.8-0.6,1.1-1.1c0.3-0.4,0.5-0.8,0.7-1.3l2.4,0.3
		c-0.2,0.8-0.6,1.6-1.1,2.3c-0.5,0.7-1.1,1.4-1.8,1.9c-0.7,0.5-1.5,1-2.3,1.3C495.4,50.7,494.5,50.8,493.7,50.8z M495.7,40
		c0-0.4-0.1-0.8-0.3-1.2c-0.2-0.4-0.4-0.7-0.6-1c-0.2-0.3-0.5-0.5-0.8-0.6c-0.3-0.1-0.7-0.2-1-0.2c-0.3,0-0.6,0.1-0.8,0.2
		c-0.3,0.1-0.5,0.3-0.7,0.6c-0.2,0.3-0.4,0.6-0.6,0.9c-0.2,0.4-0.3,0.8-0.3,1.2H495.7z"/>
</g>
</svg>
