<?xml version="1.0" encoding="utf-8"?>
<!-- Generator: Adobe Illustrator 23.0.1, SVG Export Plug-In . SVG Version: 6.00 Build 0)  -->
<svg version="1.1" id="Layer_1" xmlns="http://www.w3.org/2000/svg" xmlns:xlink="http://www.w3.org/1999/xlink" x="0px" y="0px"
	 viewBox="0 0 242 63" style="enable-background:new 0 0 242 63;" xml:space="preserve">
<style type="text/css">
	.st0{fill:#FFFFFF;}
	.st1{fill:#EED7CB;}
	.st2{opacity:0.5;}
	.st3{fill:#E7C1AA;}
	.st4{opacity:0.8;}
	.st5{opacity:0.2;}
	.st6{fill:#BDCDC4;}
	.st7{fill:#EBE8DB;}
	.st8{opacity:0.25;}
	.st9{fill:#BF815B;}
	.st10{fill:#8B9C7D;}
	.st11{opacity:0.52;}
	.st12{opacity:0.14;}
	.st13{fill:none;stroke:#BDCDC4;stroke-width:2;stroke-miterlimit:10;}
	.st14{fill:none;stroke:#BDCDC4;stroke-miterlimit:10;}
	.st15{fill:none;stroke:#BF815B;stroke-miterlimit:10;}
	.st16{fill:#EBE8DB;stroke:#BDCDC4;stroke-width:2;stroke-miterlimit:10;}
	.st17{fill:none;stroke:#BF815B;stroke-width:3;stroke-miterlimit:10;}
	.st18{fill:#EBE8DB;stroke:#BDCDC4;stroke-miterlimit:10;}
</style>
<g>
	<path class="st9" d="M30.8,44.1c-0.9,0-1.8-0.2-2.7-0.6S26.6,42.6,26,42c-0.6-0.6-1.1-1.4-1.5-2.3c-0.4-0.9-0.5-1.8-0.5-2.8
		c0-1.1,0.2-2.1,0.6-3.1c0.4-1,0.9-1.8,1.6-2.5c0.7-0.7,1.5-1.3,2.4-1.7c0.9-0.4,1.9-0.6,2.9-0.6c0.8,0,1.6,0.1,2.2,0.3
		s1.3,0.4,1.8,0.7c0.5,0.3,0.9,0.7,1.2,1.1c0.3,0.4,0.4,0.9,0.4,1.4c0,0.2-0.1,0.4-0.2,0.6c-0.1,0.2-0.3,0.4-0.4,0.5
		c-0.2,0.1-0.4,0.3-0.6,0.3s-0.5,0.1-0.7,0.1c-0.3,0-0.5,0-0.7-0.1c-0.2-0.1-0.4-0.2-0.5-0.4c-0.1-0.2-0.3-0.3-0.3-0.5
		c-0.1-0.2-0.1-0.4-0.1-0.6c0-0.3,0-0.7-0.1-0.9c-0.1-0.3-0.2-0.5-0.4-0.8c-0.2-0.2-0.4-0.4-0.7-0.5c-0.3-0.1-0.7-0.2-1.2-0.2
		c-0.7,0-1.2,0.1-1.8,0.4c-0.5,0.3-1,0.6-1.3,1.1c-0.4,0.4-0.6,1-0.8,1.6c-0.2,0.6-0.3,1.3-0.3,1.9c0,0.9,0.1,1.8,0.4,2.6
		c0.2,0.8,0.6,1.5,1,2.2c0.4,0.6,1,1.1,1.6,1.5c0.6,0.4,1.3,0.5,2.1,0.5c0.7,0,1.3-0.1,1.7-0.3c0.5-0.2,0.9-0.5,1.3-0.9
		c0.4-0.4,0.7-0.8,0.9-1.2c0.3-0.5,0.5-1,0.7-1.5l0.9,0.3c-0.2,0.9-0.6,1.7-1,2.4s-0.9,1.3-1.5,1.8c-0.6,0.5-1.2,0.9-1.9,1.1
		S31.6,44.1,30.8,44.1z"/>
	<path class="st9" d="M43.1,43.8h-2.9v-21l2-0.8h0.8V43.8z"/>
	<path class="st9" d="M48.1,22c0.2,0,0.4,0,0.6,0.1c0.2,0.1,0.4,0.2,0.5,0.3c0.1,0.1,0.3,0.3,0.4,0.5s0.1,0.4,0.1,0.6
		c0,0.2,0,0.4-0.1,0.5s-0.2,0.3-0.4,0.5c-0.1,0.1-0.3,0.2-0.5,0.3c-0.2,0.1-0.4,0.1-0.6,0.1c-0.2,0-0.4,0-0.6-0.1
		c-0.2-0.1-0.4-0.2-0.5-0.3s-0.3-0.3-0.4-0.5c-0.1-0.2-0.1-0.4-0.1-0.5c0-0.2,0-0.4,0.1-0.6c0.1-0.2,0.2-0.3,0.4-0.5
		c0.1-0.1,0.3-0.2,0.5-0.3C47.7,22,47.9,22,48.1,22z M46.8,29.9l2-0.8h0.8v14.7h-2.8V29.9z"/>
	<path class="st9" d="M59.2,44.1c-0.9,0-1.8-0.2-2.7-0.6S55,42.6,54.4,42c-0.6-0.6-1.1-1.4-1.5-2.3c-0.4-0.9-0.5-1.8-0.5-2.8
		c0-1.1,0.2-2.1,0.6-3.1c0.4-1,0.9-1.8,1.6-2.5c0.7-0.7,1.5-1.3,2.4-1.7c0.9-0.4,1.9-0.6,2.9-0.6c0.8,0,1.6,0.1,2.2,0.3
		s1.3,0.4,1.8,0.7c0.5,0.3,0.9,0.7,1.2,1.1c0.3,0.4,0.4,0.9,0.4,1.4c0,0.2-0.1,0.4-0.2,0.6c-0.1,0.2-0.3,0.4-0.4,0.5
		c-0.2,0.1-0.4,0.3-0.6,0.3s-0.5,0.1-0.7,0.1c-0.3,0-0.5,0-0.7-0.1c-0.2-0.1-0.4-0.2-0.5-0.4c-0.1-0.2-0.3-0.3-0.3-0.5
		c-0.1-0.2-0.1-0.4-0.1-0.6c0-0.3,0-0.7-0.1-0.9c-0.1-0.3-0.2-0.5-0.4-0.8c-0.2-0.2-0.4-0.4-0.7-0.5c-0.3-0.1-0.7-0.2-1.2-0.2
		c-0.7,0-1.2,0.1-1.8,0.4c-0.5,0.3-1,0.6-1.3,1.1c-0.4,0.4-0.6,1-0.8,1.6c-0.2,0.6-0.3,1.3-0.3,1.9c0,0.9,0.1,1.8,0.4,2.6
		c0.2,0.8,0.6,1.5,1,2.2c0.4,0.6,1,1.1,1.6,1.5c0.6,0.4,1.3,0.5,2.1,0.5c0.7,0,1.3-0.1,1.7-0.3c0.5-0.2,0.9-0.5,1.3-0.9
		c0.4-0.4,0.7-0.8,0.9-1.2c0.3-0.5,0.5-1,0.7-1.5l0.9,0.3c-0.2,0.9-0.6,1.7-1,2.4s-0.9,1.3-1.5,1.8c-0.6,0.5-1.2,0.9-1.9,1.1
		S60.1,44.1,59.2,44.1z"/>
	<path class="st9" d="M71.4,35.2l7.2-5.8h1.9l-6.5,5.2l8,9.2h-3.8l-6.9-7.9v7.9h-2.9v-21l2-0.8h0.8V35.2z"/>
	<path class="st9" d="M98.5,41.9c-0.4,0.7-0.9,1.2-1.5,1.6c-0.6,0.4-1.4,0.6-2.3,0.6c-0.5,0-0.9-0.1-1.3-0.2
		c-0.4-0.2-0.7-0.4-0.9-0.7s-0.4-0.6-0.5-1.1c-0.1-0.4-0.2-0.9-0.2-1.4V30.6h-2.5v-0.7c0.8,0,1.5-0.1,2-0.4c0.5-0.3,0.9-0.7,1.3-1.2
		c0.3-0.5,0.6-1.1,0.8-1.7c0.2-0.7,0.4-1.4,0.5-2.1h0.8v4.9h3.2v1.2h-3.2v10.2c0,0.4,0.1,0.8,0.5,1.1s0.7,0.5,1.1,0.5
		c0.3,0,0.6-0.1,0.9-0.2s0.5-0.4,0.7-0.6L98.5,41.9z"/>
	<path class="st9" d="M107.2,44.1c-1.1,0-2.1-0.2-3.1-0.6c-0.9-0.4-1.7-0.9-2.4-1.6s-1.2-1.4-1.6-2.3s-0.6-1.8-0.6-2.9
		c0-1.1,0.2-2.1,0.6-3s0.9-1.7,1.6-2.4s1.5-1.2,2.4-1.7c0.9-0.4,2-0.6,3.1-0.6c1.1,0,2.1,0.2,3,0.6s1.7,0.9,2.4,1.5
		c0.7,0.6,1.2,1.4,1.6,2.3c0.4,0.9,0.6,1.8,0.6,2.8c0,1.1-0.2,2.1-0.6,3.1c-0.4,1-0.9,1.8-1.6,2.5c-0.7,0.7-1.5,1.3-2.4,1.7
		C109.3,43.9,108.3,44.1,107.2,44.1z M107.8,43c0.6,0,1.1-0.1,1.6-0.4c0.5-0.3,0.9-0.7,1.2-1.2c0.3-0.5,0.6-1.1,0.8-1.7
		c0.2-0.6,0.3-1.3,0.3-2.1c0-1-0.1-2-0.3-2.9c-0.2-0.9-0.5-1.7-0.9-2.4c-0.4-0.7-0.9-1.2-1.6-1.6s-1.4-0.6-2.4-0.6
		c-0.5,0-1,0.1-1.4,0.4s-0.8,0.7-1.2,1.1c-0.3,0.5-0.6,1-0.8,1.7c-0.2,0.6-0.3,1.3-0.3,2.1c0,1.1,0.1,2,0.3,3c0.2,0.9,0.5,1.7,1,2.4
		c0.4,0.7,0.9,1.2,1.6,1.6C106.3,42.8,107,43,107.8,43z"/>
	<path class="st9" d="M132.1,44.1c-1,0-1.9-0.2-2.8-0.5c-0.9-0.4-1.6-0.9-2.2-1.5c-0.6-0.6-1.1-1.4-1.5-2.2
		c-0.4-0.8-0.6-1.8-0.6-2.7c0-1.2,0.2-2.2,0.5-3.2c0.3-1,0.8-1.8,1.4-2.6c0.6-0.7,1.4-1.3,2.2-1.7c0.9-0.4,1.8-0.6,2.9-0.6
		c0.9,0,1.8,0.2,2.6,0.5c0.8,0.3,1.5,0.8,2,1.3c0.6,0.6,1,1.2,1.3,1.9c0.3,0.7,0.5,1.5,0.5,2.3h-10.8c0,1,0.1,1.9,0.4,2.7
		c0.2,0.8,0.6,1.5,1.1,2.1c0.5,0.6,1,1.1,1.6,1.4c0.6,0.3,1.3,0.5,2.1,0.5c0.6,0,1.2-0.1,1.8-0.3s1.1-0.5,1.6-0.8
		c0.5-0.3,0.9-0.7,1.2-1.1c0.3-0.4,0.6-0.9,0.7-1.3l0.8,0.4c-0.2,0.7-0.5,1.4-1,2.1c-0.5,0.7-1,1.2-1.6,1.7c-0.6,0.5-1.3,0.9-2,1.2
		C133.5,43.9,132.8,44.1,132.1,44.1z M134.9,34c0-0.5-0.1-1.1-0.3-1.5s-0.5-0.9-0.8-1.2s-0.7-0.6-1.2-0.8c-0.5-0.2-0.9-0.3-1.5-0.3
		c-0.4,0-0.8,0.1-1.2,0.3c-0.4,0.2-0.7,0.5-1.1,0.8c-0.3,0.3-0.6,0.8-0.8,1.2c-0.2,0.5-0.3,1-0.4,1.5H134.9z"/>
	<path class="st9" d="M141.6,29.3h2.9V32c0.9-1,1.8-1.7,2.7-2.2c0.9-0.5,1.9-0.7,2.9-0.7c0.5,0,1,0.1,1.4,0.3
		c0.4,0.2,0.8,0.5,1.2,0.9c0.3,0.4,0.6,0.9,0.8,1.4c0.2,0.5,0.3,1.1,0.3,1.7v10.4h-2.9v-9.9c0-1-0.2-1.7-0.6-2.2
		c-0.4-0.5-1-0.7-1.7-0.7c-0.3,0-0.6,0.1-1,0.1c-0.3,0.1-0.7,0.2-1,0.4c-0.4,0.2-0.7,0.4-1.1,0.6c-0.3,0.3-0.7,0.5-1,0.9v10.7h-2.9
		V29.3z"/>
	<path class="st9" d="M164.6,41.9c-0.4,0.7-0.9,1.2-1.5,1.6c-0.6,0.4-1.4,0.6-2.3,0.6c-0.5,0-0.9-0.1-1.3-0.2
		c-0.4-0.2-0.7-0.4-0.9-0.7s-0.4-0.6-0.5-1.1c-0.1-0.4-0.2-0.9-0.2-1.4V30.6h-2.5v-0.7c0.8,0,1.5-0.1,2-0.4c0.5-0.3,0.9-0.7,1.3-1.2
		c0.3-0.5,0.6-1.1,0.8-1.7c0.2-0.7,0.4-1.4,0.5-2.1h0.8v4.9h3.2v1.2h-3.2v10.2c0,0.4,0.1,0.8,0.5,1.1s0.7,0.5,1.1,0.5
		c0.3,0,0.6-0.1,0.9-0.2s0.5-0.4,0.7-0.6L164.6,41.9z"/>
	<path class="st9" d="M172.8,44.1c-1,0-1.9-0.2-2.8-0.5c-0.9-0.4-1.6-0.9-2.2-1.5c-0.6-0.6-1.1-1.4-1.5-2.2
		c-0.4-0.8-0.6-1.8-0.6-2.7c0-1.2,0.2-2.2,0.5-3.2c0.3-1,0.8-1.8,1.4-2.6c0.6-0.7,1.4-1.3,2.2-1.7c0.9-0.4,1.8-0.6,2.9-0.6
		c0.9,0,1.8,0.2,2.6,0.5c0.8,0.3,1.5,0.8,2,1.3c0.6,0.6,1,1.2,1.3,1.9c0.3,0.7,0.5,1.5,0.5,2.3h-10.8c0,1,0.1,1.9,0.4,2.7
		c0.2,0.8,0.6,1.5,1.1,2.1c0.5,0.6,1,1.1,1.6,1.4c0.6,0.3,1.3,0.5,2.1,0.5c0.6,0,1.2-0.1,1.8-0.3s1.1-0.5,1.6-0.8
		c0.5-0.3,0.9-0.7,1.2-1.1c0.3-0.4,0.6-0.9,0.7-1.3l0.8,0.4c-0.2,0.7-0.5,1.4-1,2.1c-0.5,0.7-1,1.2-1.6,1.7c-0.6,0.5-1.3,0.9-2,1.2
		C174.3,43.9,173.5,44.1,172.8,44.1z M175.6,34c0-0.5-0.1-1.1-0.3-1.5s-0.5-0.9-0.8-1.2s-0.7-0.6-1.2-0.8c-0.5-0.2-0.9-0.3-1.5-0.3
		c-0.4,0-0.8,0.1-1.2,0.3c-0.4,0.2-0.7,0.5-1.1,0.8c-0.3,0.3-0.6,0.8-0.8,1.2c-0.2,0.5-0.3,1-0.4,1.5H175.6z"/>
	<path class="st9" d="M182.3,29.3h2.8v2.7c0.3-0.4,0.6-0.8,0.9-1.2c0.3-0.4,0.7-0.7,1-1c0.3-0.3,0.7-0.5,1.1-0.7
		c0.4-0.2,0.8-0.2,1.1-0.2c0.3,0,0.6,0,0.9,0.1c0.3,0.1,0.5,0.2,0.7,0.4s0.4,0.3,0.5,0.6c0.1,0.2,0.2,0.4,0.2,0.7
		c0,0.5-0.1,0.8-0.4,1.1c-0.3,0.2-0.7,0.3-1.2,0.3c-0.3,0-0.6,0-0.8-0.1c-0.2-0.1-0.4-0.1-0.5-0.2c-0.2-0.1-0.3-0.2-0.5-0.2
		c-0.2-0.1-0.4-0.1-0.6-0.1c-0.4,0-0.8,0.2-1.1,0.6c-0.4,0.4-0.8,1-1.2,1.6v10h-2.8V29.3z"/>
</g>
</svg>
