<?xml version="1.0" encoding="utf-8"?>
<!-- Generator: Adobe Illustrator 23.0.1, SVG Export Plug-In . SVG Version: 6.00 Build 0)  -->
<svg version="1.1" id="Layer_1" xmlns="http://www.w3.org/2000/svg" xmlns:xlink="http://www.w3.org/1999/xlink" x="0px" y="0px"
	 viewBox="0 0 958 263" style="enable-background:new 0 0 958 263;" xml:space="preserve">
<style type="text/css">
	.st0{fill:#FFFFFF;}
	.st1{fill:#EED7CB;}
	.st2{opacity:0.5;}
	.st3{fill:#E7C1AA;}
	.st4{opacity:0.8;}
	.st5{opacity:0.2;}
	.st6{fill:#BDCDC4;}
	.st7{fill:#EBE8DB;}
	.st8{opacity:0.25;}
	.st9{fill:#BF815B;}
	.st10{fill:#8B9C7D;}
	.st11{opacity:0.52;}
	.st12{opacity:0.14;}
	.st13{fill:none;stroke:#BDCDC4;stroke-width:2;stroke-miterlimit:10;}
	.st14{fill:none;stroke:#BDCDC4;stroke-miterlimit:10;}
	.st15{fill:none;stroke:#BF815B;stroke-miterlimit:10;}
	.st16{fill:#EBE8DB;stroke:#BDCDC4;stroke-width:2;stroke-miterlimit:10;}
	.st17{fill:none;stroke:#BF815B;stroke-width:3;stroke-miterlimit:10;}
	.st18{fill:#EBE8DB;stroke:#BDCDC4;stroke-miterlimit:10;}
</style>
<g>
	<path class="st9" d="M118.4,86.6v7.2H77.8v105.1H58.9V93.8H18.2v-7.2H118.4z"/>
	<path class="st9" d="M148.9,128.1c5.2-5.9,10.6-10.4,16.3-13.3c5.7-2.9,11.4-4.4,17.3-4.4c3,0,5.9,0.7,8.5,2.1
		c2.6,1.4,4.9,3.3,6.9,5.6c2,2.4,3.5,5.2,4.6,8.3c1.1,3.2,1.7,6.6,1.7,10.2v62.1H187v-59.3c0-5.8-1.3-10.1-3.8-13
		c-2.6-2.9-5.9-4.4-10-4.4c-1.8,0-3.8,0.3-5.8,0.9c-2,0.6-4.1,1.4-6.2,2.5c-2.1,1.1-4.2,2.4-6.3,3.9s-4.1,3.2-6.1,5.1v64.2h-17.2
		v-126L144,68h4.9V128.1z"/>
	<path class="st9" d="M262.8,200.8c-5.9,0-11.4-1.1-16.5-3.3c-5.1-2.2-9.6-5.2-13.5-9c-3.9-3.8-6.9-8.2-9.1-13.3
		c-2.2-5.1-3.3-10.5-3.3-16.4c0-7,1-13.4,3-19.3c2-5.9,4.9-11,8.6-15.3c3.7-4.3,8.2-7.7,13.4-10.1c5.2-2.4,11-3.7,17.5-3.7
		c5.7,0,10.9,1,15.6,3c4.7,2,8.8,4.7,12.1,8.1c3.4,3.4,6,7.3,7.9,11.7c1.9,4.4,2.8,9,2.8,13.8h-64.6c0,5.8,0.7,11.2,2.2,16.2
		c1.5,5,3.6,9.2,6.3,12.9c2.7,3.6,5.9,6.4,9.7,8.5c3.7,2.1,7.8,3.1,12.3,3.1c3.7,0,7.3-0.6,10.8-1.8c3.4-1.2,6.6-2.8,9.4-4.8
		c2.8-2,5.2-4.3,7.2-6.8c2-2.5,3.4-5.2,4.2-7.9l4.8,2.2c-1.3,4.4-3.3,8.6-6,12.5c-2.7,3.9-5.9,7.3-9.6,10.2
		c-3.7,2.9-7.7,5.2-12.1,6.9C271.7,199.9,267.3,200.8,262.8,200.8z M279.9,140.1c0-3.3-0.6-6.3-1.8-9.2c-1.2-2.8-2.8-5.3-4.8-7.3
		c-2-2.1-4.4-3.7-7.1-4.9c-2.7-1.2-5.6-1.8-8.7-1.8c-2.6,0-5.1,0.6-7.4,1.8c-2.4,1.2-4.5,2.8-6.3,4.9c-1.8,2.1-3.4,4.5-4.6,7.3
		c-1.2,2.8-2,5.9-2.2,9.2H279.9z"/>
	<path class="st9" d="M364.6,86.6l42.3,89.3l39.5-89.3h8.9l-51,114.9h-4.8L344.7,86.6H364.6z"/>
	<path class="st9" d="M474.8,68c1.3,0,2.6,0.2,3.8,0.7c1.2,0.4,2.3,1.1,3.2,1.8c0.9,0.8,1.6,1.7,2.1,2.8c0.5,1,0.8,2.2,0.8,3.4
		c0,1.1-0.3,2.2-0.8,3.3c-0.5,1-1.2,2-2.1,2.8c-0.9,0.8-1.9,1.4-3.2,1.9c-1.2,0.5-2.5,0.7-3.8,0.7c-1.3,0-2.6-0.2-3.8-0.7
		c-1.2-0.5-2.2-1.1-3.1-1.9c-0.9-0.8-1.6-1.7-2.1-2.8c-0.5-1-0.8-2.1-0.8-3.3c0-1.2,0.3-2.3,0.8-3.4c0.5-1,1.2-2,2.1-2.8
		c0.9-0.8,1.9-1.4,3.1-1.8C472.2,68.2,473.5,68,474.8,68z M466.5,115.4l12-4.9h5v88.4h-17.1V115.4z"/>
	<path class="st9" d="M532.2,194.8c2.3,0,4.5-0.4,6.5-1.1c2-0.7,3.7-1.7,5.1-2.9c1.4-1.2,2.5-2.6,3.4-4.1c0.8-1.5,1.2-3.1,1.2-4.7
		c0-2.7-0.7-5-2-6.9c-1.3-2-3.1-3.7-5.3-5.3c-2.2-1.6-4.7-3-7.4-4.3c-2.8-1.3-5.6-2.6-8.5-4c-2.9-1.4-5.7-2.8-8.5-4.4
		c-2.8-1.6-5.3-3.4-7.4-5.5s-3.9-4.5-5.3-7.2c-1.3-2.7-2-5.9-2-9.7c0-3.5,0.7-6.7,2.2-9.7c1.5-3,3.5-5.5,6.2-7.7
		c2.6-2.1,5.7-3.8,9.3-5c3.6-1.2,7.6-1.8,11.9-1.8c2.8,0,5.5,0.2,8.1,0.6c2.5,0.4,5,1.2,7.4,2.3c2.4,1.1,4.8,2.8,7.2,4.9
		c2.4,2.1,4.9,4.9,7.5,8.3l-6.3,5.6c-3.3-5.4-7-9.4-11-12c-4.1-2.6-8.4-3.9-13-3.9c-2.5,0-4.7,0.3-6.7,0.9c-2,0.6-3.8,1.4-5.2,2.5
		c-1.5,1-2.6,2.3-3.4,3.7c-0.8,1.4-1.2,2.9-1.2,4.5c0,2.6,0.7,4.9,2.2,6.8c1.5,1.9,3.4,3.7,5.7,5.3c2.4,1.6,5.1,3,8.1,4.3
		c3,1.3,6.1,2.6,9.2,4c3.2,1.4,6.2,2.8,9.2,4.4c3,1.6,5.7,3.4,8.1,5.5c2.4,2.1,4.3,4.4,5.7,7.2c1.5,2.7,2.2,5.9,2.2,9.5
		c0,3.7-0.7,7.1-2,10.3c-1.4,3.2-3.4,6-6.2,8.3c-2.8,2.3-6.2,4.2-10.3,5.5c-4.1,1.4-9,2-14.6,2c-2.5,0-5.1-0.2-7.8-0.6
		c-2.7-0.4-5.3-1.2-8.1-2.3c-2.7-1.1-5.4-2.8-8.2-4.9c-2.7-2.1-5.4-4.9-8-8.3l7-6.4c2.1,3,4.1,5.5,6,7.6c1.9,2.1,3.9,3.8,5.9,5.1
		c2,1.3,4,2.3,6.2,2.9C527.5,194.5,529.8,194.8,532.2,194.8z"/>
	<path class="st9" d="M591.9,68c1.3,0,2.6,0.2,3.8,0.7c1.2,0.4,2.3,1.1,3.2,1.8c0.9,0.8,1.6,1.7,2.1,2.8c0.5,1,0.8,2.2,0.8,3.4
		c0,1.1-0.3,2.2-0.8,3.3c-0.5,1-1.2,2-2.1,2.8c-0.9,0.8-1.9,1.4-3.2,1.9c-1.2,0.5-2.5,0.7-3.8,0.7c-1.3,0-2.6-0.2-3.8-0.7
		c-1.2-0.5-2.2-1.1-3.1-1.9c-0.9-0.8-1.6-1.7-2.1-2.8c-0.5-1-0.8-2.1-0.8-3.3c0-1.2,0.3-2.3,0.8-3.4c0.5-1,1.2-2,2.1-2.8
		c0.9-0.8,1.9-1.4,3.1-1.8C589.3,68.2,590.5,68,591.9,68z M583.5,115.4l12-4.9h5v88.4h-17.1V115.4z"/>
	<path class="st9" d="M667.6,187.9c-2.3,4-5.3,7.1-9.2,9.4c-3.8,2.3-8.5,3.5-14.1,3.5c-2.9,0-5.4-0.5-7.6-1.5
		c-2.1-1-3.9-2.4-5.3-4.1c-1.4-1.8-2.4-3.9-3.1-6.4c-0.7-2.5-1-5.2-1-8.3v-61h-15v-4.3c4.8,0,8.8-0.9,11.9-2.6
		c3.1-1.7,5.7-4.1,7.7-7.1c2-3,3.6-6.5,4.7-10.4c1.1-4,2.1-8.1,2.9-12.5h4.9v29.6H664v7.3h-19.4v61c0,2.6,0.9,4.8,2.7,6.6
		c1.8,1.8,4,2.7,6.7,2.7c2,0,3.7-0.5,5.3-1.4c1.6-0.9,2.9-2.1,4.1-3.5L667.6,187.9z"/>
	<path class="st9" d="M720.3,200.8c-6.6,0-12.8-1.2-18.4-3.5c-5.6-2.3-10.4-5.5-14.5-9.5c-4.1-4-7.3-8.7-9.5-14
		c-2.3-5.3-3.4-11-3.4-17.1c0-6.4,1.1-12.4,3.4-18c2.3-5.6,5.5-10.5,9.5-14.7s8.9-7.5,14.5-9.9c5.6-2.4,11.7-3.7,18.4-3.7
		c6.6,0,12.7,1.1,18.3,3.3c5.6,2.2,10.4,5.2,14.5,9.1c4.1,3.9,7.3,8.4,9.5,13.5c2.3,5.2,3.4,10.7,3.4,16.6c0,6.6-1.1,12.8-3.4,18.5
		c-2.3,5.8-5.5,10.8-9.5,15.1c-4.1,4.3-8.9,7.7-14.5,10.2C732.9,199.5,726.9,200.8,720.3,200.8z M723.5,194.3c3.4,0,6.5-0.9,9.3-2.6
		c2.8-1.7,5.2-4.1,7.3-7c2.1-2.9,3.7-6.4,4.8-10.2c1.1-3.9,1.7-8,1.7-12.4c0-6.3-0.5-12.1-1.6-17.6c-1.1-5.5-2.8-10.3-5.2-14.4
		c-2.4-4.1-5.5-7.3-9.4-9.6c-3.9-2.3-8.6-3.5-14.3-3.5c-2.9,0-5.7,0.8-8.4,2.5c-2.7,1.7-5.1,4-7.2,6.9c-2.1,2.9-3.7,6.3-5,10.1
		c-1.2,3.9-1.8,8-1.8,12.3c0,6.3,0.7,12.3,2,17.8c1.3,5.5,3.3,10.4,5.8,14.5c2.6,4.1,5.7,7.4,9.4,9.7
		C714.6,193.1,718.8,194.3,723.5,194.3z"/>
	<path class="st9" d="M782.5,112.3h17.1v16.4c1.7-2.5,3.5-4.8,5.5-7c1.9-2.2,3.9-4.1,6-5.8c2.1-1.7,4.3-3,6.5-4
		c2.2-1,4.5-1.5,6.8-1.5c1.9,0,3.7,0.3,5.3,0.9s3,1.3,4.2,2.3c1.2,0.9,2.1,2.1,2.8,3.3c0.7,1.3,1,2.6,1,4c0,2.8-0.9,5-2.6,6.4
		c-1.7,1.4-4.2,2.1-7.3,2.1c-1.9,0-3.4-0.2-4.6-0.6c-1.2-0.4-2.2-0.9-3.2-1.3c-0.9-0.5-1.9-0.9-2.8-1.3c-0.9-0.4-2.2-0.6-3.7-0.6
		c-2.3,0-4.6,1.3-6.9,3.8c-2.3,2.5-4.7,5.8-7.1,9.7v59.9h-17.1V112.3z"/>
	<path class="st9" d="M876.5,194.8c2.3,0,4.5-0.4,6.5-1.1c2-0.7,3.7-1.7,5.1-2.9c1.4-1.2,2.5-2.6,3.4-4.1c0.8-1.5,1.2-3.1,1.2-4.7
		c0-2.7-0.7-5-2-6.9c-1.3-2-3.1-3.7-5.3-5.3c-2.2-1.6-4.7-3-7.4-4.3c-2.8-1.3-5.6-2.6-8.5-4c-2.9-1.4-5.7-2.8-8.5-4.4
		c-2.8-1.6-5.3-3.4-7.4-5.5s-3.9-4.5-5.3-7.2c-1.3-2.7-2-5.9-2-9.7c0-3.5,0.7-6.7,2.2-9.7c1.5-3,3.5-5.5,6.2-7.7
		c2.6-2.1,5.7-3.8,9.3-5c3.6-1.2,7.6-1.8,11.9-1.8c2.8,0,5.5,0.2,8.1,0.6c2.5,0.4,5,1.2,7.4,2.3c2.4,1.1,4.8,2.8,7.2,4.9
		c2.4,2.1,4.9,4.9,7.5,8.3l-6.3,5.6c-3.3-5.4-7-9.4-11-12c-4.1-2.6-8.4-3.9-13-3.9c-2.5,0-4.7,0.3-6.7,0.9c-2,0.6-3.8,1.4-5.2,2.5
		c-1.5,1-2.6,2.3-3.4,3.7c-0.8,1.4-1.2,2.9-1.2,4.5c0,2.6,0.7,4.9,2.2,6.8c1.5,1.9,3.4,3.7,5.7,5.3c2.4,1.6,5.1,3,8.1,4.3
		c3,1.3,6.1,2.6,9.2,4c3.2,1.4,6.2,2.8,9.2,4.4c3,1.6,5.7,3.4,8.1,5.5c2.4,2.1,4.3,4.4,5.7,7.2c1.5,2.7,2.2,5.9,2.2,9.5
		c0,3.7-0.7,7.1-2,10.3c-1.4,3.2-3.4,6-6.2,8.3c-2.8,2.3-6.2,4.2-10.3,5.5c-4.1,1.4-9,2-14.6,2c-2.5,0-5.1-0.2-7.8-0.6
		c-2.7-0.4-5.3-1.2-8.1-2.3c-2.7-1.1-5.4-2.8-8.2-4.9c-2.7-2.1-5.4-4.9-8-8.3l7-6.4c2.1,3,4.1,5.5,6,7.6c1.9,2.1,3.9,3.8,5.9,5.1
		c2,1.3,4,2.3,6.2,2.9C871.7,194.5,874,194.8,876.5,194.8z"/>
</g>
</svg>
